<svg width="473" height="334" viewBox="0 0 473 334" fill="none" xmlns="http://www.w3.org/2000/svg">
<g clip-path="url(#clip0_291_2239)">
<path d="M343.051 72.5018L197.398 52.1972C197.005 52.1422 196.61 52.1142 196.214 52.1133C195.824 52.1126 195.435 52.1395 195.048 52.1938C194.662 52.2481 194.28 52.3299 193.903 52.4388C193.523 52.5499 193.149 52.6878 192.784 52.8517C192.427 53.012 192.08 53.1958 191.743 53.4022C191.402 53.6101 191.072 53.8399 190.755 54.0904C190.432 54.3473 190.122 54.6242 189.826 54.9196C189.522 55.2236 189.232 55.5451 188.959 55.883C188.679 56.2309 188.415 56.5942 188.169 56.9716C187.92 57.3538 187.686 57.7513 187.468 58.1642C187.25 58.5785 187.048 59.0093 186.861 59.4566C186.674 59.9039 186.504 60.3663 186.35 60.8439C186.191 61.3375 186.051 61.8422 185.931 62.3578C185.811 62.8735 185.711 63.3981 185.63 63.9316C185.551 64.4647 185.491 65.0065 185.449 65.557C185.407 66.1076 185.386 66.6647 185.386 67.2286C185.387 67.7919 185.408 68.3535 185.449 68.9131C185.489 69.4728 185.549 70.028 185.63 70.5785C185.711 71.1313 185.812 71.6786 185.932 72.2204C186.052 72.7622 186.192 73.2978 186.351 73.8272C186.505 74.3388 186.676 74.8386 186.862 75.3268C187.049 75.8153 187.251 76.2906 187.47 76.7526C187.688 77.2146 187.921 77.6632 188.17 78.0986C188.418 78.5358 188.682 78.9565 188.961 79.3607C189.239 79.7649 189.528 80.1505 189.828 80.5175C190.127 80.8822 190.437 81.2263 190.757 81.5497C191.076 81.8731 191.406 82.1752 191.744 82.456C192.079 82.734 192.427 82.993 192.786 83.2322C193.147 83.4734 193.521 83.6924 193.905 83.888C194.277 84.0778 194.659 84.2435 195.049 84.3842C195.432 84.5221 195.821 84.6345 196.216 84.7207C196.606 84.8058 197.002 84.8644 197.399 84.8962L343.052 96.5459C343.475 96.5796 343.901 96.533 344.311 96.4082C344.519 96.3449 344.722 96.263 344.918 96.1633C345.122 96.0592 345.32 95.9384 345.508 95.8019C345.698 95.6637 345.88 95.512 346.053 95.3478C346.233 95.1755 346.405 94.9916 346.566 94.7972C346.736 94.5919 346.897 94.3769 347.046 94.1532C347.201 93.9228 347.35 93.6774 347.492 93.4168C347.635 93.1563 347.77 92.8844 347.897 92.6014C348.024 92.3183 348.143 92.0242 348.254 91.7192C348.365 91.4145 348.468 91.0994 348.562 90.7736C348.657 90.4479 348.743 90.1126 348.82 89.7676C348.902 89.4107 348.973 89.0473 349.032 88.6775C349.091 88.3078 349.142 87.9325 349.184 87.5517C349.224 87.1709 349.255 86.7851 349.275 86.3942C349.295 86.0034 349.305 85.6081 349.305 85.2086C349.304 84.8094 349.294 84.4121 349.275 84.0167C349.256 83.6212 349.226 83.2288 349.184 82.8393C349.143 82.4498 349.092 82.0635 349.032 81.6804C348.971 81.2974 348.901 80.9184 348.82 80.5436C348.743 80.1812 348.657 79.827 348.562 79.4811C348.469 79.1397 348.366 78.8035 348.254 78.4723C348.142 78.141 348.023 77.8199 347.897 77.5088C347.77 77.1982 347.636 76.8968 347.492 76.6046C347.349 76.3124 347.201 76.0343 347.046 75.7705C346.892 75.5067 346.732 75.2567 346.566 75.0205C346.4 74.7842 346.229 74.5631 346.053 74.3571C345.88 74.1552 345.698 73.9637 345.508 73.7832C345.32 73.6063 345.124 73.4424 344.918 73.2925C344.724 73.1509 344.521 73.0244 344.311 72.914C344.109 72.8085 343.901 72.7202 343.687 72.6498C343.479 72.5815 343.266 72.532 343.051 72.5018Z" fill="#ECC94B"/>
<path d="M343.038 118.796L343.037 118.796L197.384 114.981L197.384 114.981C196.64 114.961 195.897 115.044 195.171 115.228L343.038 118.796ZM343.038 118.796C343.22 118.801 343.403 118.822 343.582 118.861C343.765 118.9 343.945 118.956 344.121 119.028L344.121 119.028M343.038 118.796L344.121 119.028M194.09 115.583L194.09 115.583C193.728 115.729 193.373 115.899 193.029 116.092L193.029 116.092C192.688 116.283 192.356 116.495 192.036 116.727C191.709 116.964 191.394 117.22 191.091 117.494C190.78 117.776 190.482 118.076 190.199 118.392L190.198 118.392C189.91 118.714 189.63 119.056 189.361 119.42C189.092 119.785 188.837 120.166 188.596 120.562L188.596 120.562C188.355 120.958 188.128 121.37 187.916 121.796C187.704 122.223 187.507 122.664 187.325 123.12C187.144 123.576 186.978 124.045 186.827 124.528L186.827 124.529C186.672 125.028 186.536 125.536 186.418 126.053C186.301 126.569 186.203 127.092 186.125 127.622C186.048 128.153 185.988 128.69 185.947 129.234C185.906 129.776 185.886 130.323 185.886 130.874C185.887 131.426 185.908 131.974 185.947 132.516C185.987 133.058 186.046 133.594 186.124 134.124C186.204 134.651 186.302 135.173 186.42 135.688C186.537 136.204 186.673 136.711 186.829 137.21L186.829 137.21C186.979 137.695 187.145 138.164 187.327 138.618C187.508 139.073 187.705 139.513 187.917 139.938C188.129 140.363 188.355 140.772 188.596 141.166C188.837 141.559 189.092 141.937 189.362 142.299C189.631 142.661 189.91 143.002 190.199 143.321L190.199 143.322C190.482 143.636 190.78 143.933 191.091 144.213C191.393 144.485 191.709 144.739 192.035 144.973C192.355 145.203 192.687 145.412 193.028 145.601L193.028 145.601C193.372 145.791 193.726 145.959 194.089 146.103C194.442 146.243 194.803 146.358 195.17 146.449L195.17 146.449C195.532 146.539 195.899 146.604 196.269 146.643C196.639 146.682 197.011 146.695 197.382 146.683L197.382 146.683L343.034 141.838C343.217 141.831 343.399 141.808 343.579 141.769C343.763 141.728 343.943 141.671 344.118 141.598C344.302 141.521 344.481 141.428 344.654 141.321L344.654 141.321C344.839 141.206 345.017 141.077 345.186 140.934C345.361 140.787 345.529 140.629 345.688 140.459L345.688 140.459C345.857 140.279 346.017 140.09 346.168 139.891L346.169 139.89C346.324 139.687 346.475 139.467 346.622 139.231C346.769 138.994 346.911 138.743 347.048 138.479C347.185 138.213 347.315 137.937 347.437 137.65C347.56 137.364 347.674 137.068 347.781 136.761C347.889 136.448 347.989 136.129 348.081 135.804C348.173 135.48 348.256 135.145 348.332 134.8L348.333 134.797C348.412 134.446 348.48 134.087 348.538 133.721C348.596 133.352 348.645 132.979 348.686 132.602C348.726 132.224 348.756 131.844 348.775 131.46C348.795 131.076 348.805 130.689 348.805 130.298C348.804 129.91 348.794 129.522 348.775 129.134C348.757 128.749 348.727 128.369 348.686 127.995L348.686 127.993C348.647 127.615 348.597 127.244 348.538 126.878L349.032 126.799L348.538 126.878C348.479 126.513 348.411 126.151 348.332 125.793C348.256 125.448 348.172 125.113 348.08 124.786L348.562 124.651L348.08 124.786C347.989 124.46 347.889 124.144 347.782 123.838L347.782 123.837C347.675 123.531 347.561 123.235 347.438 122.949L347.898 122.753L347.438 122.949C347.316 122.663 347.186 122.388 347.049 122.124C346.912 121.86 346.77 121.61 346.623 121.375C346.476 121.14 346.325 120.921 346.17 120.718L346.169 120.717C346.018 120.52 345.858 120.331 345.69 120.153L346.053 119.809L345.69 120.153C345.531 119.985 345.364 119.828 345.188 119.682L345.188 119.682C345.019 119.541 344.842 119.413 344.657 119.3L194.09 115.583ZM194.09 115.583C194.444 115.44 194.805 115.322 195.171 115.228L194.09 115.583ZM344.121 119.028C344.305 119.103 344.484 119.194 344.656 119.299L344.121 119.028Z" stroke="#4A5568"/>
<path d="M344.309 161.366C344.517 161.429 344.721 161.511 344.917 161.611L344.309 161.366ZM344.309 161.366C343.9 161.241 343.474 161.194 343.051 161.228L344.309 161.366ZM195.218 173.858L195.218 173.858C194.847 173.992 194.484 174.149 194.13 174.329C193.764 174.516 193.407 174.725 193.062 174.955L193.062 174.956C192.718 175.185 192.384 175.433 192.063 175.7C191.736 175.973 191.419 176.264 191.11 176.574C190.803 176.885 190.503 177.218 190.213 177.571C189.922 177.926 189.642 178.3 189.372 178.694C189.101 179.089 188.845 179.499 188.603 179.923L188.603 179.923C188.361 180.347 188.133 180.784 187.92 181.234C187.708 181.685 187.51 182.148 187.328 182.625C187.146 183.102 186.979 183.59 186.829 184.09L186.829 184.09C186.673 184.607 186.536 185.13 186.419 185.661C186.302 186.191 186.204 186.726 186.125 187.264C186.048 187.804 185.988 188.348 185.947 188.896C185.906 189.443 185.886 189.991 185.886 190.542C185.887 191.095 185.908 191.64 185.947 192.178C185.987 192.716 186.046 193.246 186.124 193.766C186.204 194.288 186.302 194.8 186.419 195.302C186.536 195.803 186.672 196.295 186.827 196.776L186.827 196.776C186.977 197.241 187.142 197.69 187.324 198.124L187.324 198.124C187.505 198.558 187.701 198.975 187.912 199.376C188.123 199.777 188.349 200.161 188.589 200.528L188.589 200.528C188.826 200.892 189.08 201.242 189.35 201.576C189.612 201.9 189.889 202.209 190.181 202.5L190.182 202.5C190.463 202.782 190.759 203.046 191.067 203.291C191.368 203.529 191.681 203.747 192.004 203.944L192.005 203.945C192.324 204.14 192.653 204.314 192.99 204.465L192.991 204.465C193.334 204.62 193.686 204.75 194.044 204.854C194.397 204.956 194.757 205.033 195.119 205.084C195.482 205.135 195.848 205.161 196.215 205.16C196.587 205.159 196.96 205.133 197.329 205.081L197.33 205.081L342.981 184.781C342.981 184.781 342.981 184.781 342.982 184.781C343.167 184.755 343.351 184.712 343.532 184.653C343.719 184.591 343.901 184.514 344.078 184.421C344.267 184.322 344.449 184.209 344.623 184.082L344.623 184.081C344.812 183.944 344.992 183.794 345.164 183.631L345.508 183.995L345.164 183.631C345.342 183.463 345.511 183.285 345.672 183.096C345.836 182.902 345.998 182.693 346.158 182.469C346.314 182.246 346.467 182.007 346.615 181.755L347.046 182.007L346.615 181.755C346.763 181.502 346.906 181.235 347.043 180.954L347.044 180.953C347.181 180.674 347.311 180.383 347.434 180.081C347.557 179.778 347.673 179.466 347.78 179.146C347.888 178.825 347.988 178.496 348.08 178.159C348.172 177.822 348.256 177.477 348.331 177.123L348.332 177.122C348.411 176.756 348.48 176.387 348.538 176.014C348.596 175.639 348.645 175.261 348.686 174.879C348.726 174.499 348.756 174.115 348.775 173.729C348.795 173.343 348.805 172.954 348.805 172.564C348.803 172.174 348.793 171.787 348.775 171.404C348.756 171.023 348.727 170.647 348.686 170.277L348.686 170.275C348.646 169.902 348.597 169.535 348.538 169.175C348.48 168.815 348.411 168.461 348.333 168.114L348.333 168.114C348.257 167.778 348.174 167.452 348.082 167.137L348.082 167.136C347.992 166.822 347.893 166.518 347.785 166.225C347.677 165.93 347.562 165.647 347.442 165.375C347.319 165.106 347.189 164.847 347.053 164.597L347.491 164.357L347.053 164.597C346.916 164.348 346.775 164.116 346.63 163.9L346.629 163.899C346.489 163.689 346.339 163.488 346.18 163.296C346.031 163.116 345.873 162.947 345.706 162.788C345.55 162.639 345.385 162.502 345.213 162.377L345.213 162.377L195.218 173.858ZM195.218 173.858C195.58 173.727 195.948 173.621 196.321 173.54C196.69 173.459 197.063 173.404 197.437 173.374L343.09 161.726L195.218 173.858ZM186.351 196.929C186.505 197.407 186.676 197.87 186.862 198.317L185.932 195.415C186.052 195.93 186.192 196.435 186.351 196.929Z" stroke="#4A5568"/>
<path d="M263.662 163.362C264.584 165.039 266.038 166.288 267.747 166.87C269.456 167.453 271.301 167.329 272.932 166.522C274.563 165.716 275.867 164.282 276.595 162.494C277.323 160.706 277.425 158.688 276.882 156.823L305.111 93.4094L291.599 84.4526L267.22 151.81C267.127 151.85 267.035 151.891 266.945 151.935C266.854 151.978 266.764 152.024 266.675 152.071C266.585 152.118 266.496 152.168 266.408 152.22C266.319 152.272 266.232 152.327 266.144 152.384C264.484 153.48 263.29 155.252 262.824 157.311C262.358 159.369 262.66 161.546 263.661 163.361L263.662 163.362Z" fill="#E2E8F0"/>
<path d="M299.723 117.862L279.668 112.241C279.668 112.241 280.323 110.623 281.387 107.942C282.451 105.261 283.938 101.522 285.611 97.2769C287.283 93.032 289.139 88.289 290.952 83.6007C292.764 78.9123 294.527 74.2801 296.011 70.265C297.496 66.2499 299.183 63.8453 300.878 62.4976C302.281 61.3317 304.048 60.8181 305.795 61.0683C307.153 61.2895 308.451 61.8297 309.6 62.6519C310.144 63.0219 310.655 63.4463 311.127 63.9195L315.777 73.1652L299.723 117.862Z" fill="#4A5568"/>
<mask id="path-6-inside-1_291_2239" fill="white">
<path d="M139.23 112.84C138.744 112.879 138.261 112.948 137.782 113.046C137.301 113.145 136.824 113.273 136.356 113.429C135.88 113.588 135.412 113.775 134.955 113.989C134.487 114.208 134.029 114.454 133.585 114.725C133.15 114.993 132.724 115.284 132.309 115.598C131.894 115.912 131.49 116.25 131.099 116.611C130.708 116.971 130.328 117.355 129.96 117.763C129.592 118.171 129.238 118.601 128.897 119.053C128.556 119.505 128.232 119.974 127.927 120.459C127.621 120.944 127.335 121.444 127.067 121.958C126.802 122.473 126.554 123.002 126.323 123.545C126.092 124.089 125.883 124.644 125.694 125.213C125.497 125.802 125.325 126.398 125.177 127C125.029 127.602 124.906 128.209 124.808 128.821C124.709 129.433 124.634 130.049 124.585 130.669C124.535 131.289 124.511 131.912 124.511 132.537C124.511 133.163 124.535 133.78 124.585 134.389C124.634 134.998 124.709 135.598 124.808 136.189C124.906 136.779 125.029 137.359 125.177 137.928C125.325 138.498 125.496 139.055 125.692 139.601C125.882 140.128 126.092 140.638 126.321 141.131C126.548 141.619 126.796 142.094 127.066 142.554C127.332 143.006 127.619 143.442 127.926 143.862C128.23 144.278 128.554 144.677 128.897 145.057C129.233 145.43 129.588 145.783 129.96 146.114C130.324 146.438 130.704 146.74 131.099 147.018C131.878 147.566 132.713 148.015 133.585 148.355C134.48 148.705 135.41 148.936 136.354 149.043C136.828 149.097 137.305 149.12 137.781 149.112C138.265 149.105 138.748 149.067 139.229 149C139.713 148.933 140.194 148.836 140.669 148.71C141.145 148.584 141.614 148.43 142.075 148.249C142.541 148.065 142.998 147.854 143.444 147.618C143.898 147.377 144.341 147.111 144.771 146.821C145.189 146.535 145.596 146.229 145.993 145.903C146.389 145.576 146.773 145.228 147.145 144.858C147.517 144.488 147.876 144.098 148.222 143.688C148.568 143.278 148.901 142.848 149.22 142.397C149.542 141.947 149.844 141.484 150.128 141.007C150.411 140.529 150.677 140.04 150.924 139.537C151.172 139.035 151.401 138.521 151.612 137.995C151.822 137.469 152.014 136.933 152.188 136.385C152.367 135.818 152.524 135.246 152.659 134.669C152.794 134.093 152.906 133.512 152.996 132.927C153.086 132.342 153.154 131.753 153.199 131.162C153.244 130.57 153.267 129.977 153.267 129.38C153.267 128.784 153.244 128.195 153.199 127.613C153.154 127.031 153.087 126.458 152.996 125.893C152.907 125.328 152.794 124.772 152.659 124.225C152.524 123.677 152.367 123.139 152.188 122.612C152.013 122.102 151.822 121.607 151.612 121.128C151.399 120.65 151.169 120.186 150.921 119.736C150.431 118.848 149.861 118.015 149.22 117.25C148.906 116.874 148.573 116.516 148.225 116.177C147.881 115.845 147.522 115.533 147.148 115.244C146.777 114.956 146.393 114.692 145.995 114.451C145.599 114.211 145.19 113.995 144.771 113.805C143.906 113.411 143.001 113.13 142.076 112.968C141.61 112.887 141.14 112.836 140.669 112.815C140.189 112.794 139.708 112.803 139.229 112.841"/>
</mask>
<path d="M137.782 113.046L137.983 114.026L137.984 114.026L137.782 113.046ZM136.356 113.429L136.039 112.48L136.039 112.48L136.356 113.429ZM134.955 113.989L135.379 114.895L135.379 114.895L134.955 113.989ZM133.585 114.725L133.064 113.872L133.061 113.873L133.585 114.725ZM131.099 116.611L131.776 117.346L131.777 117.346L131.099 116.611ZM128.897 119.053L128.098 118.451L128.098 118.451L128.897 119.053ZM127.067 121.958L126.18 121.496L126.178 121.5L127.067 121.958ZM125.694 125.213L126.642 125.529L126.643 125.528L125.694 125.213ZM124.808 128.821L125.795 128.98L125.795 128.98L124.808 128.821ZM124.511 132.537H125.511V132.537L124.511 132.537ZM124.808 136.189L125.794 136.024L125.794 136.023L124.808 136.189ZM125.692 139.601L124.751 139.938L124.751 139.941L125.692 139.601ZM126.321 141.131L127.228 140.71L127.228 140.709L126.321 141.131ZM127.066 142.554L126.204 143.06L126.205 143.061L127.066 142.554ZM127.926 143.862L128.734 143.272L128.733 143.271L127.926 143.862ZM128.897 145.057L128.154 145.727L128.154 145.727L128.897 145.057ZM129.96 146.114L129.295 146.861L129.295 146.861L129.96 146.114ZM131.099 147.018L131.675 146.2L131.675 146.2L131.099 147.018ZM133.585 148.355L133.949 147.424L133.949 147.424L133.585 148.355ZM136.354 149.043L136.241 150.037L136.242 150.037L136.354 149.043ZM137.781 149.112L137.766 148.112L137.765 148.112L137.781 149.112ZM139.229 149L139.091 148.01L139.09 148.01L139.229 149ZM140.669 148.71L140.924 149.677L140.924 149.677L140.669 148.71ZM142.075 148.249L142.442 149.179L142.442 149.179L142.075 148.249ZM143.444 147.618L142.975 146.734L142.975 146.734L143.444 147.618ZM144.771 146.821L145.33 147.65L145.334 147.647L144.771 146.821ZM147.145 144.858L147.85 145.567L147.85 145.567L147.145 144.858ZM149.22 142.397L148.406 141.816L148.404 141.819L149.22 142.397ZM150.924 139.537L151.821 139.979L151.822 139.979L150.924 139.537ZM152.188 136.385L151.234 136.083L151.234 136.083L152.188 136.385ZM152.996 132.927L153.985 133.079L153.985 133.079L152.996 132.927ZM153.267 129.38L154.267 129.38V129.38L153.267 129.38ZM152.996 125.893L152.009 126.05L152.009 126.05L152.996 125.893ZM152.188 122.612L153.134 122.29L153.134 122.289L152.188 122.612ZM151.612 121.128L152.528 120.727L152.525 120.721L151.612 121.128ZM150.921 119.736L151.797 119.254L151.797 119.254L150.921 119.736ZM149.22 117.25L148.453 117.892L148.454 117.893L149.22 117.25ZM148.225 116.177L148.921 115.46L148.92 115.459L148.225 116.177ZM147.148 115.244L147.76 114.453L147.76 114.453L147.148 115.244ZM145.995 114.451L146.514 113.596L146.514 113.596L145.995 114.451ZM144.771 113.805L144.356 114.715L144.357 114.715L144.771 113.805ZM142.076 112.968L142.248 111.983L142.248 111.983L142.076 112.968ZM140.669 112.815L140.714 111.816L140.713 111.816L140.669 112.815ZM139.149 111.843C138.623 111.886 138.1 111.96 137.581 112.067L137.984 114.026C138.422 113.936 138.865 113.872 139.31 113.837L139.149 111.843ZM137.582 112.067C137.061 112.173 136.546 112.311 136.039 112.48L136.672 114.378C137.103 114.234 137.541 114.116 137.983 114.026L137.582 112.067ZM136.039 112.48C135.526 112.652 135.023 112.853 134.531 113.083L135.379 114.895C135.802 114.697 136.233 114.524 136.672 114.377L136.039 112.48ZM134.531 113.083C134.029 113.318 133.539 113.581 133.064 113.872L134.106 115.579C134.519 115.327 134.944 115.098 135.379 114.895L134.531 113.083ZM133.061 113.873C132.598 114.158 132.146 114.467 131.706 114.8L132.912 116.395C133.303 116.1 133.701 115.828 134.108 115.577L133.061 113.873ZM131.706 114.8C131.264 115.135 130.835 115.493 130.421 115.876L131.777 117.346C132.145 117.006 132.523 116.69 132.912 116.395L131.706 114.8ZM130.421 115.875C130.007 116.257 129.606 116.663 129.218 117.093L130.703 118.433C131.051 118.047 131.409 117.685 131.776 117.346L130.421 115.875ZM129.218 117.093C128.83 117.523 128.456 117.976 128.098 118.451L129.695 119.655C130.019 119.226 130.355 118.818 130.703 118.433L129.218 117.093ZM128.098 118.451C127.74 118.926 127.401 119.418 127.081 119.926L128.773 120.992C129.064 120.531 129.371 120.085 129.695 119.655L128.098 118.451ZM127.081 119.926C126.76 120.434 126.46 120.958 126.18 121.496L127.954 122.42C128.209 121.929 128.482 121.453 128.773 120.992L127.081 119.926ZM126.178 121.5C125.901 122.038 125.643 122.589 125.403 123.154L127.244 123.936C127.465 123.415 127.702 122.908 127.956 122.415L126.178 121.5ZM125.403 123.154C125.161 123.723 124.942 124.304 124.745 124.898L126.643 125.528C126.823 124.985 127.024 124.454 127.244 123.936L125.403 123.154ZM124.745 124.896C124.54 125.511 124.36 126.133 124.206 126.762L126.148 127.238C126.29 126.663 126.454 126.093 126.642 125.529L124.745 124.896ZM124.206 126.762C124.052 127.39 123.923 128.023 123.82 128.662L125.795 128.98C125.889 128.394 126.007 127.814 126.148 127.238L124.206 126.762ZM123.821 128.661C123.717 129.3 123.64 129.943 123.588 130.59L125.582 130.749C125.629 130.155 125.7 129.566 125.795 128.98L123.821 128.661ZM123.588 130.59C123.536 131.236 123.511 131.886 123.511 132.537L125.511 132.537C125.511 131.939 125.534 131.342 125.582 130.749L123.588 130.59ZM123.511 132.537C123.511 133.189 123.536 133.833 123.588 134.47L125.582 134.308C125.534 133.727 125.511 133.136 125.511 132.537H123.511ZM123.588 134.47C123.64 135.107 123.718 135.735 123.821 136.354L125.794 136.023C125.7 135.461 125.629 134.89 125.582 134.308L123.588 134.47ZM123.821 136.353C123.925 136.972 124.054 137.581 124.209 138.18L126.145 137.677C126.005 137.137 125.888 136.586 125.794 136.024L123.821 136.353ZM124.209 138.18C124.364 138.777 124.545 139.364 124.751 139.938L126.633 139.264C126.448 138.747 126.285 138.218 126.145 137.677L124.209 138.18ZM124.751 139.941C124.952 140.495 125.173 141.032 125.415 141.553L127.228 140.709C127.012 140.244 126.813 139.762 126.632 139.261L124.751 139.941ZM125.414 141.552C125.654 142.069 125.918 142.572 126.204 143.06L127.929 142.048C127.675 141.616 127.441 141.169 127.228 140.71L125.414 141.552ZM126.205 143.061C126.487 143.542 126.792 144.006 127.119 144.452L128.733 143.271C128.446 142.879 128.177 142.47 127.928 142.047L126.205 143.061ZM127.118 144.451C127.442 144.895 127.788 145.321 128.154 145.727L129.639 144.387C129.32 144.033 129.018 143.661 128.734 143.272L127.118 144.451ZM128.154 145.727C128.515 146.127 128.896 146.505 129.295 146.861L130.625 145.367C130.281 145.061 129.952 144.733 129.639 144.387L128.154 145.727ZM129.295 146.861C129.687 147.21 130.098 147.536 130.524 147.835L131.675 146.2C131.311 145.944 130.961 145.666 130.625 145.367L129.295 146.861ZM130.524 147.835C131.368 148.429 132.273 148.917 133.222 149.287L133.949 147.424C133.152 147.113 132.389 146.703 131.675 146.2L130.524 147.835ZM133.221 149.287C134.196 149.667 135.21 149.92 136.241 150.037L136.468 148.05C135.609 147.952 134.764 147.742 133.949 147.424L133.221 149.287ZM136.242 150.037C136.759 150.095 137.278 150.12 137.797 150.112L137.765 148.112C137.332 148.119 136.898 148.098 136.466 148.05L136.242 150.037ZM137.796 150.112C138.322 150.104 138.846 150.063 139.367 149.99L139.09 148.01C138.651 148.071 138.208 148.106 137.766 148.112L137.796 150.112ZM139.367 149.991C139.891 149.917 140.411 149.813 140.924 149.677L140.413 147.744C139.977 147.859 139.535 147.948 139.091 148.01L139.367 149.991ZM140.924 149.677C141.438 149.541 141.945 149.375 142.442 149.179L141.708 147.318C141.284 147.486 140.851 147.628 140.413 147.744L140.924 149.677ZM142.442 149.179C142.943 148.981 143.434 148.755 143.913 148.501L142.975 146.734C142.562 146.953 142.139 147.148 141.708 147.318L142.442 149.179ZM143.913 148.501C144.398 148.243 144.871 147.959 145.33 147.65L144.211 145.992C143.811 146.262 143.398 146.51 142.975 146.734L143.913 148.501ZM145.334 147.647C145.778 147.344 146.209 147.02 146.629 146.675L145.357 145.131C144.983 145.439 144.6 145.727 144.207 145.995L145.334 147.647ZM146.629 146.675C147.05 146.328 147.457 145.958 147.85 145.567L146.44 144.149C146.09 144.497 145.729 144.825 145.357 145.131L146.629 146.675ZM147.85 145.567C148.243 145.176 148.622 144.765 148.986 144.333L147.458 143.043C147.13 143.432 146.791 143.8 146.44 144.149L147.85 145.567ZM148.986 144.333C149.351 143.901 149.701 143.448 150.036 142.976L148.404 141.819C148.101 142.247 147.785 142.655 147.458 143.043L148.986 144.333ZM150.034 142.978C150.372 142.506 150.689 142.019 150.987 141.518L149.268 140.496C148.999 140.949 148.711 141.389 148.406 141.816L150.034 142.978ZM150.987 141.518C151.284 141.018 151.562 140.505 151.821 139.979L150.028 139.095C149.791 139.574 149.538 140.041 149.268 140.496L150.987 141.518ZM151.822 139.979C152.08 139.454 152.32 138.916 152.54 138.367L150.683 137.623C150.482 138.126 150.264 138.616 150.027 139.095L151.822 139.979ZM152.54 138.367C152.76 137.818 152.96 137.258 153.141 136.687L151.234 136.083C151.068 136.608 150.885 137.121 150.683 137.623L152.54 138.367ZM153.141 136.687C153.328 136.095 153.492 135.499 153.633 134.897L151.685 134.442C151.556 134.993 151.406 135.54 151.234 136.083L153.141 136.687ZM153.633 134.897C153.773 134.295 153.891 133.689 153.985 133.079L152.008 132.775C151.922 133.334 151.814 133.89 151.685 134.442L153.633 134.897ZM153.985 133.079C154.078 132.468 154.149 131.855 154.196 131.238L152.202 131.085C152.159 131.652 152.094 132.215 152.008 132.775L153.985 133.079ZM154.196 131.238C154.243 130.621 154.267 130.002 154.267 129.38L152.267 129.38C152.267 129.951 152.245 130.52 152.202 131.085L154.196 131.238ZM154.267 129.38C154.267 128.758 154.243 128.144 154.196 127.536L152.202 127.69C152.245 128.246 152.267 128.809 152.267 129.381L154.267 129.38ZM154.196 127.536C154.149 126.928 154.078 126.328 153.984 125.735L152.009 126.05C152.095 126.588 152.159 127.135 152.202 127.69L154.196 127.536ZM153.984 125.736C153.89 125.144 153.772 124.56 153.63 123.985L151.688 124.464C151.816 124.984 151.923 125.513 152.009 126.05L153.984 125.736ZM153.63 123.985C153.488 123.41 153.323 122.845 153.134 122.29L151.241 122.934C151.411 123.434 151.56 123.944 151.688 124.464L153.63 123.985ZM153.134 122.289C152.951 121.754 152.749 121.233 152.528 120.727L150.696 121.529C150.894 121.982 151.076 122.451 151.241 122.935L153.134 122.289ZM152.525 120.721C152.301 120.218 152.059 119.729 151.797 119.254L150.045 120.219C150.279 120.643 150.497 121.082 150.698 121.534L152.525 120.721ZM151.797 119.254C151.276 118.309 150.67 117.423 149.987 116.608L148.454 117.893C149.053 118.607 149.586 119.386 150.046 120.219L151.797 119.254ZM149.987 116.609C149.651 116.206 149.295 115.823 148.921 115.46L147.528 116.895C147.852 117.209 148.16 117.542 148.453 117.892L149.987 116.609ZM148.92 115.459C148.551 115.101 148.164 114.766 147.76 114.453L146.535 116.034C146.88 116.301 147.212 116.589 147.529 116.896L148.92 115.459ZM147.76 114.453C147.36 114.143 146.944 113.857 146.514 113.596L145.477 115.307C145.842 115.527 146.195 115.77 146.535 116.034L147.76 114.453ZM146.514 113.596C146.083 113.335 145.64 113.101 145.185 112.894L144.357 114.715C144.74 114.889 145.114 115.087 145.477 115.307L146.514 113.596ZM145.185 112.895C144.244 112.466 143.258 112.16 142.248 111.983L141.904 113.954C142.744 114.1 143.568 114.355 144.356 114.715L145.185 112.895ZM142.248 111.983C141.74 111.895 141.228 111.839 140.714 111.816L140.625 113.814C141.053 113.833 141.48 113.88 141.904 113.954L142.248 111.983ZM140.713 111.816C140.192 111.793 139.669 111.802 139.149 111.844L139.31 113.838C139.747 113.803 140.187 113.795 140.625 113.814L140.713 111.816Z" fill="#A0AEC0" mask="url(#path-6-inside-1_291_2239)"/>
<mask id="path-8-inside-2_291_2239" fill="white">
<path d="M139.23 177.526C138.744 177.565 138.261 177.634 137.782 177.732C137.301 177.831 136.824 177.959 136.356 178.115C135.88 178.274 135.412 178.461 134.955 178.675C134.487 178.894 134.029 179.14 133.585 179.411C133.15 179.679 132.724 179.97 132.309 180.284C131.894 180.598 131.49 180.936 131.099 181.297C130.708 181.657 130.328 182.041 129.96 182.449C129.592 182.857 129.238 183.287 128.897 183.739C128.556 184.191 128.232 184.66 127.927 185.145C127.621 185.63 127.335 186.13 127.067 186.644C126.802 187.159 126.554 187.688 126.323 188.231C126.092 188.775 125.883 189.33 125.694 189.899C125.497 190.488 125.325 191.084 125.177 191.686C125.029 192.288 124.906 192.895 124.808 193.507C124.709 194.119 124.634 194.735 124.585 195.355C124.535 195.975 124.511 196.598 124.511 197.223C124.511 197.849 124.535 198.466 124.585 199.075C124.634 199.685 124.709 200.284 124.808 200.875C124.906 201.465 125.029 202.045 125.177 202.614C125.325 203.184 125.496 203.741 125.692 204.287C125.882 204.814 126.092 205.324 126.321 205.817C126.548 206.305 126.796 206.78 127.066 207.24C127.332 207.692 127.619 208.128 127.926 208.548C128.23 208.964 128.554 209.363 128.897 209.743C129.233 210.116 129.588 210.469 129.96 210.8C130.324 211.124 130.704 211.426 131.099 211.704C131.878 212.252 132.713 212.701 133.585 213.041C134.48 213.391 135.41 213.622 136.354 213.729C136.828 213.783 137.305 213.806 137.781 213.798C138.265 213.791 138.748 213.753 139.229 213.686C139.713 213.619 140.194 213.522 140.669 213.396C141.145 213.27 141.614 213.116 142.075 212.935C142.541 212.751 142.998 212.54 143.444 212.304C143.898 212.063 144.341 211.797 144.771 211.507C145.189 211.221 145.596 210.915 145.993 210.589C146.389 210.262 146.773 209.914 147.145 209.544C147.517 209.174 147.876 208.784 148.222 208.374C148.568 207.964 148.901 207.534 149.22 207.083C149.542 206.633 149.844 206.17 150.128 205.693C150.411 205.215 150.677 204.726 150.924 204.223C151.172 203.721 151.401 203.207 151.612 202.681C151.822 202.155 152.014 201.619 152.188 201.071C152.367 200.504 152.524 199.932 152.659 199.355C152.794 198.779 152.906 198.198 152.996 197.613C153.086 197.028 153.154 196.439 153.199 195.848C153.244 195.257 153.267 194.663 153.267 194.066C153.267 193.47 153.244 192.881 153.199 192.299C153.154 191.717 153.087 191.144 152.996 190.579C152.907 190.014 152.794 189.458 152.659 188.911C152.524 188.363 152.367 187.825 152.188 187.298C152.013 186.788 151.822 186.293 151.612 185.814C151.399 185.336 151.169 184.872 150.921 184.422C150.431 183.534 149.861 182.701 149.22 181.936C148.906 181.56 148.573 181.202 148.225 180.863C147.881 180.531 147.522 180.219 147.148 179.93C146.777 179.642 146.393 179.378 145.995 179.137C145.599 178.897 145.19 178.681 144.771 178.491C143.906 178.097 143.001 177.816 142.076 177.655C141.61 177.573 141.14 177.522 140.669 177.501C140.189 177.48 139.708 177.489 139.229 177.527"/>
</mask>
<path d="M137.782 177.732L137.983 178.712L137.984 178.712L137.782 177.732ZM136.356 178.115L136.039 177.166L136.039 177.166L136.356 178.115ZM134.955 178.675L135.379 179.581L135.379 179.581L134.955 178.675ZM133.585 179.411L133.064 178.558L133.061 178.559L133.585 179.411ZM131.099 181.297L131.776 182.032L131.777 182.032L131.099 181.297ZM128.897 183.739L128.098 183.137L128.098 183.137L128.897 183.739ZM127.067 186.644L126.18 186.182L126.178 186.186L127.067 186.644ZM125.694 189.899L126.642 190.215L126.643 190.214L125.694 189.899ZM124.808 193.507L125.795 193.666L125.795 193.666L124.808 193.507ZM124.511 197.223H125.511V197.223L124.511 197.223ZM124.808 200.875L125.794 200.71L125.794 200.709L124.808 200.875ZM125.692 204.287L124.751 204.624L124.751 204.627L125.692 204.287ZM126.321 205.817L127.228 205.396L127.228 205.396L126.321 205.817ZM127.066 207.24L126.204 207.746L126.205 207.747L127.066 207.24ZM127.926 208.548L128.734 207.958L128.733 207.957L127.926 208.548ZM128.897 209.743L128.154 210.413L128.154 210.413L128.897 209.743ZM129.96 210.8L129.295 211.547L129.295 211.547L129.96 210.8ZM131.099 211.704L131.675 210.886L131.675 210.886L131.099 211.704ZM133.585 213.041L133.949 212.11L133.949 212.11L133.585 213.041ZM136.354 213.729L136.241 214.723L136.242 214.723L136.354 213.729ZM137.781 213.798L137.766 212.798L137.765 212.798L137.781 213.798ZM139.229 213.686L139.091 212.696L139.09 212.696L139.229 213.686ZM140.669 213.396L140.924 214.363L140.924 214.363L140.669 213.396ZM142.075 212.935L142.442 213.865L142.442 213.865L142.075 212.935ZM143.444 212.304L142.975 211.42L142.975 211.42L143.444 212.304ZM144.771 211.507L145.33 212.336L145.334 212.333L144.771 211.507ZM147.145 209.544L147.85 210.253L147.85 210.253L147.145 209.544ZM149.22 207.083L148.406 206.502L148.404 206.505L149.22 207.083ZM150.924 204.223L151.821 204.665L151.822 204.665L150.924 204.223ZM152.188 201.071L151.234 200.769L151.234 200.769L152.188 201.071ZM152.996 197.613L153.985 197.765L153.985 197.765L152.996 197.613ZM153.267 194.066L154.267 194.066V194.066L153.267 194.066ZM152.996 190.579L152.009 190.736L152.009 190.736L152.996 190.579ZM152.188 187.298L153.134 186.976L153.134 186.975L152.188 187.298ZM151.612 185.814L152.528 185.413L152.525 185.407L151.612 185.814ZM150.921 184.422L151.797 183.94L151.797 183.94L150.921 184.422ZM149.22 181.936L148.453 182.578L148.454 182.579L149.22 181.936ZM148.225 180.863L148.921 180.146L148.92 180.145L148.225 180.863ZM147.148 179.93L147.76 179.139L147.76 179.139L147.148 179.93ZM145.995 179.137L146.514 178.282L146.514 178.282L145.995 179.137ZM144.771 178.491L144.356 179.401L144.357 179.401L144.771 178.491ZM142.076 177.655L142.248 176.669L142.248 176.669L142.076 177.655ZM140.669 177.501L140.714 176.502L140.713 176.502L140.669 177.501ZM139.149 176.529C138.623 176.572 138.1 176.646 137.581 176.753L137.984 178.712C138.422 178.622 138.865 178.559 139.31 178.523L139.149 176.529ZM137.582 176.753C137.061 176.859 136.546 176.997 136.039 177.166L136.672 179.064C137.103 178.92 137.541 178.803 137.983 178.712L137.582 176.753ZM136.039 177.166C135.526 177.338 135.023 177.539 134.531 177.769L135.379 179.581C135.802 179.383 136.233 179.21 136.672 179.063L136.039 177.166ZM134.531 177.769C134.029 178.004 133.539 178.267 133.064 178.558L134.106 180.265C134.519 180.013 134.944 179.784 135.379 179.581L134.531 177.769ZM133.061 178.559C132.598 178.844 132.146 179.153 131.706 179.486L132.912 181.081C133.303 180.786 133.701 180.514 134.108 180.263L133.061 178.559ZM131.706 179.486C131.264 179.821 130.835 180.179 130.421 180.562L131.777 182.032C132.145 181.692 132.523 181.376 132.912 181.081L131.706 179.486ZM130.421 180.561C130.007 180.943 129.606 181.349 129.218 181.779L130.703 183.119C131.051 182.733 131.409 182.371 131.776 182.032L130.421 180.561ZM129.218 181.779C128.83 182.209 128.456 182.662 128.098 183.137L129.695 184.341C130.019 183.912 130.355 183.504 130.703 183.119L129.218 181.779ZM128.098 183.137C127.74 183.612 127.401 184.104 127.081 184.612L128.773 185.678C129.064 185.217 129.371 184.771 129.695 184.341L128.098 183.137ZM127.081 184.612C126.76 185.12 126.46 185.644 126.18 186.182L127.954 187.106C128.209 186.615 128.482 186.139 128.773 185.678L127.081 184.612ZM126.178 186.186C125.901 186.724 125.643 187.275 125.403 187.84L127.244 188.622C127.465 188.101 127.702 187.594 127.956 187.101L126.178 186.186ZM125.403 187.84C125.161 188.409 124.942 188.99 124.745 189.584L126.643 190.214C126.823 189.671 127.024 189.14 127.244 188.622L125.403 187.84ZM124.745 189.582C124.54 190.197 124.36 190.819 124.206 191.448L126.148 191.924C126.29 191.349 126.454 190.779 126.642 190.215L124.745 189.582ZM124.206 191.448C124.052 192.076 123.923 192.709 123.82 193.348L125.795 193.666C125.889 193.08 126.007 192.5 126.148 191.924L124.206 191.448ZM123.821 193.347C123.717 193.986 123.64 194.629 123.588 195.276L125.582 195.435C125.629 194.841 125.7 194.252 125.795 193.666L123.821 193.347ZM123.588 195.276C123.536 195.922 123.511 196.572 123.511 197.223L125.511 197.223C125.511 196.625 125.534 196.028 125.582 195.435L123.588 195.276ZM123.511 197.223C123.511 197.875 123.536 198.519 123.588 199.156L125.582 198.994C125.534 198.413 125.511 197.822 125.511 197.223H123.511ZM123.588 199.156C123.64 199.793 123.718 200.421 123.821 201.04L125.794 200.709C125.7 200.147 125.629 199.576 125.582 198.994L123.588 199.156ZM123.821 201.039C123.925 201.658 124.054 202.267 124.209 202.866L126.145 202.363C126.005 201.823 125.888 201.272 125.794 200.71L123.821 201.039ZM124.209 202.866C124.364 203.464 124.545 204.05 124.751 204.624L126.633 203.95C126.448 203.433 126.285 202.904 126.145 202.363L124.209 202.866ZM124.751 204.627C124.952 205.181 125.173 205.718 125.415 206.239L127.228 205.396C127.012 204.93 126.813 204.448 126.632 203.947L124.751 204.627ZM125.414 206.238C125.654 206.755 125.918 207.258 126.204 207.746L127.929 206.734C127.675 206.302 127.441 205.855 127.228 205.396L125.414 206.238ZM126.205 207.747C126.487 208.228 126.792 208.692 127.119 209.138L128.733 207.957C128.446 207.565 128.177 207.156 127.928 206.733L126.205 207.747ZM127.118 209.137C127.442 209.582 127.788 210.007 128.154 210.413L129.639 209.073C129.32 208.72 129.018 208.347 128.734 207.958L127.118 209.137ZM128.154 210.413C128.515 210.813 128.896 211.191 129.295 211.547L130.625 210.053C130.281 209.747 129.952 209.419 129.639 209.073L128.154 210.413ZM129.295 211.547C129.687 211.896 130.098 212.222 130.524 212.521L131.675 210.886C131.311 210.63 130.961 210.352 130.625 210.053L129.295 211.547ZM130.524 212.521C131.368 213.115 132.273 213.603 133.222 213.973L133.949 212.11C133.152 211.799 132.389 211.389 131.675 210.886L130.524 212.521ZM133.221 213.973C134.196 214.353 135.21 214.606 136.241 214.723L136.468 212.736C135.609 212.638 134.764 212.428 133.949 212.11L133.221 213.973ZM136.242 214.723C136.759 214.781 137.278 214.806 137.797 214.798L137.765 212.798C137.332 212.805 136.898 212.784 136.466 212.736L136.242 214.723ZM137.796 214.798C138.322 214.79 138.846 214.749 139.367 214.676L139.09 212.696C138.651 212.757 138.208 212.792 137.766 212.798L137.796 214.798ZM139.367 214.677C139.891 214.604 140.411 214.499 140.924 214.363L140.413 212.43C139.977 212.545 139.535 212.634 139.091 212.696L139.367 214.677ZM140.924 214.363C141.438 214.227 141.945 214.061 142.442 213.865L141.708 212.004C141.284 212.172 140.851 212.314 140.413 212.43L140.924 214.363ZM142.442 213.865C142.943 213.667 143.434 213.441 143.913 213.187L142.975 211.42C142.562 211.639 142.139 211.834 141.708 212.004L142.442 213.865ZM143.913 213.187C144.398 212.929 144.871 212.645 145.33 212.336L144.211 210.678C143.811 210.948 143.398 211.196 142.975 211.42L143.913 213.187ZM145.334 212.333C145.778 212.03 146.209 211.706 146.629 211.361L145.357 209.817C144.983 210.125 144.6 210.413 144.207 210.681L145.334 212.333ZM146.629 211.361C147.05 211.014 147.457 210.644 147.85 210.253L146.44 208.835C146.09 209.183 145.729 209.511 145.357 209.817L146.629 211.361ZM147.85 210.253C148.243 209.862 148.622 209.451 148.986 209.019L147.458 207.729C147.13 208.118 146.791 208.486 146.44 208.835L147.85 210.253ZM148.986 209.019C149.351 208.587 149.701 208.134 150.036 207.662L148.404 206.505C148.101 206.933 147.785 207.341 147.458 207.729L148.986 209.019ZM150.034 207.664C150.372 207.192 150.689 206.705 150.987 206.204L149.268 205.182C148.999 205.635 148.711 206.075 148.406 206.502L150.034 207.664ZM150.987 206.204C151.284 205.704 151.562 205.191 151.821 204.665L150.028 203.781C149.791 204.26 149.538 204.727 149.268 205.182L150.987 206.204ZM151.822 204.665C152.081 204.14 152.32 203.602 152.54 203.053L150.683 202.309C150.482 202.812 150.264 203.302 150.027 203.781L151.822 204.665ZM152.54 203.053C152.76 202.504 152.96 201.944 153.141 201.373L151.234 200.769C151.068 201.294 150.885 201.807 150.683 202.309L152.54 203.053ZM153.141 201.373C153.328 200.781 153.492 200.185 153.633 199.583L151.685 199.128C151.556 199.679 151.406 200.226 151.234 200.769L153.141 201.373ZM153.633 199.583C153.773 198.981 153.891 198.376 153.985 197.765L152.008 197.461C151.922 198.02 151.814 198.576 151.685 199.128L153.633 199.583ZM153.985 197.765C154.078 197.154 154.149 196.541 154.196 195.924L152.202 195.771C152.159 196.338 152.094 196.901 152.008 197.461L153.985 197.765ZM154.196 195.924C154.243 195.307 154.267 194.688 154.267 194.066L152.267 194.066C152.267 194.637 152.245 195.206 152.202 195.771L154.196 195.924ZM154.267 194.066C154.267 193.444 154.243 192.83 154.196 192.222L152.202 192.376C152.245 192.932 152.267 193.495 152.267 194.067L154.267 194.066ZM154.196 192.222C154.149 191.614 154.078 191.014 153.984 190.421L152.009 190.736C152.095 191.274 152.159 191.821 152.202 192.376L154.196 192.222ZM153.984 190.422C153.89 189.83 153.772 189.246 153.63 188.671L151.688 189.15C151.816 189.67 151.923 190.199 152.009 190.736L153.984 190.422ZM153.63 188.671C153.488 188.096 153.323 187.531 153.134 186.976L151.241 187.62C151.411 188.12 151.56 188.63 151.688 189.15L153.63 188.671ZM153.134 186.975C152.951 186.44 152.749 185.919 152.528 185.413L150.696 186.215C150.894 186.668 151.076 187.137 151.241 187.621L153.134 186.975ZM152.525 185.407C152.301 184.904 152.059 184.415 151.797 183.94L150.045 184.905C150.279 185.329 150.497 185.768 150.698 186.22L152.525 185.407ZM151.797 183.94C151.276 182.995 150.67 182.109 149.987 181.294L148.454 182.579C149.053 183.293 149.586 184.073 150.046 184.905L151.797 183.94ZM149.987 181.295C149.651 180.892 149.295 180.509 148.921 180.146L147.528 181.581C147.852 181.895 148.16 182.228 148.453 182.578L149.987 181.295ZM148.92 180.145C148.551 179.787 148.164 179.452 147.76 179.139L146.535 180.72C146.88 180.987 147.212 181.275 147.529 181.582L148.92 180.145ZM147.76 179.139C147.36 178.829 146.944 178.543 146.514 178.282L145.477 179.993C145.842 180.213 146.195 180.456 146.535 180.72L147.76 179.139ZM146.514 178.282C146.083 178.022 145.64 177.787 145.185 177.58L144.357 179.401C144.74 179.575 145.114 179.773 145.477 179.993L146.514 178.282ZM145.185 177.581C144.244 177.152 143.258 176.846 142.248 176.669L141.904 178.64C142.744 178.786 143.568 179.042 144.356 179.401L145.185 177.581ZM142.248 176.669C141.74 176.581 141.228 176.525 140.714 176.502L140.625 178.5C141.053 178.519 141.48 178.566 141.904 178.64L142.248 176.669ZM140.713 176.502C140.192 176.479 139.669 176.488 139.149 176.53L139.31 178.524C139.747 178.489 140.187 178.481 140.625 178.5L140.713 176.502Z" fill="#A0AEC0" mask="url(#path-8-inside-2_291_2239)"/>
<path d="M139.232 42.7638C138.749 42.7509 138.266 42.7681 137.785 42.8154C137.306 42.8625 136.829 42.9397 136.358 43.0466C135.884 43.1549 135.417 43.2927 134.957 43.4595C134.491 43.6283 134.033 43.8257 133.587 44.0506C133.15 44.2706 132.725 44.5157 132.312 44.7849C131.894 45.0567 131.49 45.3521 131.101 45.6698C130.706 45.9926 130.326 46.3372 129.962 46.702C129.593 47.0732 129.237 47.4666 128.897 47.8822C128.556 48.2983 128.232 48.7328 127.927 49.1856C127.621 49.6384 127.335 50.1077 127.067 50.5935C126.801 51.0858 126.552 51.5902 126.321 52.1067C126.091 52.6233 125.881 53.1569 125.692 53.7074C125.497 54.2749 125.325 54.8518 125.177 55.4381C125.03 56.0244 124.906 56.6183 124.808 57.2197C124.709 57.823 124.634 58.4313 124.585 59.0447C124.535 59.6581 124.511 60.2774 124.511 60.9027C124.511 61.5271 124.535 62.1464 124.585 62.7607C124.634 63.375 124.709 63.9826 124.808 64.5836C124.906 65.1846 125.03 65.7776 125.177 66.3625C125.325 66.9474 125.496 67.5232 125.692 68.0898C125.882 68.6371 126.092 69.1692 126.321 69.6863C126.552 70.2015 126.801 70.7013 127.069 71.1858C127.337 71.6702 127.623 72.1375 127.929 72.5875C128.234 73.0389 128.557 73.4711 128.899 73.884C129.24 74.2969 129.595 74.6868 129.962 75.0539C130.324 75.4173 130.702 75.7605 131.096 76.0819C131.485 76.3968 131.889 76.6892 132.306 76.958C132.719 77.2243 133.145 77.4664 133.582 77.6833C134.028 77.9051 134.485 78.0992 134.952 78.2648C135.869 78.5894 136.818 78.7972 137.779 78.8841C138.742 78.9714 139.71 78.9393 140.666 78.7884C141.14 78.7135 141.61 78.6092 142.073 78.476C142.537 78.3423 142.994 78.18 143.442 77.9902C143.894 77.7982 144.337 77.5793 144.768 77.3344C145.188 77.0957 145.597 76.8336 145.993 76.5492C146.391 76.2629 146.776 75.9549 147.145 75.6264C147.517 75.2961 147.876 74.9442 148.222 74.5708C148.568 74.1973 148.901 73.8023 149.22 73.3858C149.542 72.9692 149.844 72.5375 150.128 72.0907C150.411 71.6438 150.677 71.1823 150.925 70.7061C151.173 70.2299 151.402 69.7402 151.612 69.2369C151.822 68.7336 152.014 68.2182 152.188 67.6906C152.367 67.1429 152.524 66.5878 152.659 66.0253C152.794 65.4629 152.906 64.894 152.996 64.3187C153.086 63.7411 153.154 63.1589 153.199 62.5722C153.244 61.9854 153.267 61.3938 153.267 60.7974C153.267 60.2015 153.244 59.6101 153.199 59.0234C153.154 58.4366 153.087 57.856 152.996 57.2816C152.907 56.7068 152.794 56.1384 152.659 55.5764C152.524 55.0144 152.367 54.4602 152.188 53.9138C152.014 53.3858 151.822 52.8708 151.612 52.3689C151.402 51.867 151.172 51.3782 150.921 50.9025C150.674 50.4309 150.408 49.9721 150.125 49.5262C149.841 49.0803 149.54 48.6508 149.22 48.238C148.903 47.8255 148.571 47.4335 148.225 47.0619C147.878 46.6903 147.519 46.341 147.148 46.0139C146.778 45.6873 146.394 45.3814 145.996 45.0972C145.6 44.8154 145.192 44.5561 144.771 44.3203C144.34 44.0783 143.897 43.8623 143.445 43.6735C142.997 43.4867 142.54 43.3277 142.076 43.1973C141.613 43.0672 141.143 42.9661 140.669 42.8945C140.192 42.8225 139.711 42.7802 139.229 42.7679M139.229 41.0461C141.343 41.1094 143.417 41.6962 145.294 42.7624C147.159 43.8287 148.812 45.2889 150.157 47.0585C151.564 48.9026 152.659 51.0056 153.392 53.269C154.962 58.1409 154.962 63.4532 153.392 68.3251C152.658 70.5951 151.563 72.7054 150.157 74.5584C148.812 76.3364 147.159 77.807 145.293 78.8862C143.419 79.9651 141.346 80.5666 139.229 80.6458C137.099 80.7222 134.981 80.2606 133.041 79.297C131.082 78.3159 129.33 76.903 127.893 75.1468C126.368 73.287 125.175 71.1318 124.374 68.7924C122.64 63.6995 122.64 58.0943 124.374 53.0014C125.176 50.6549 126.369 48.4917 127.893 46.6222C129.329 44.8562 131.081 43.4312 133.041 42.4355C134.98 41.4583 137.098 40.9819 139.232 41.0434L139.229 41.0461Z" fill="#ECC94B"/>
<path d="M139.231 65.7131L134.274 54.4205L135.451 53.5823L139.534 62.8593L156.679 40.8247L157.716 42.0338L139.231 65.7131Z" fill="#ECC94B"/>
<path d="M319.651 288.658L307.378 288.606L311.336 323.669L319.651 323.715V288.658Z" fill="#E2E8F0"/>
<path d="M321.771 332.538L294.974 332.383V332.012C294.974 331.26 295.041 330.51 295.175 329.773C295.438 328.317 295.963 326.934 296.72 325.702C297.488 324.454 298.473 323.383 299.618 322.549C300.748 321.727 302.016 321.159 303.348 320.878C304.023 320.736 304.71 320.666 305.398 320.671L321.771 320.759V332.538Z" fill="#2D3748"/>
<path d="M280.356 288.492L268.119 288.439L272.064 323.455L280.356 323.501V288.492Z" fill="#E2E8F0"/>
<path d="M282.471 332.31L255.745 332.156V331.786C255.744 331.035 255.811 330.286 255.945 329.55C256.207 328.097 256.731 326.715 257.485 325.485C258.251 324.238 259.234 323.167 260.377 322.334C261.504 321.515 262.768 320.948 264.097 320.667C264.771 320.525 265.456 320.456 266.142 320.461L282.471 320.548V332.31Z" fill="#2D3748"/>
<path d="M279.836 145.179L259.258 229.148L266.79 309.639L283.468 310.142L279.837 237.463L300.642 201.194L305.155 310.637L320.283 309.467L328.699 215.368C331.557 208.021 333.653 200.346 334.948 192.488C335.966 186.32 336.461 180.062 336.427 173.794C336.409 169.575 336.113 165.362 335.539 161.189C335.334 159.634 335.057 158.092 334.708 156.568L328.572 149.767L279.836 145.179Z" fill="#2D3748"/>
<path d="M307.1 159.223C303.64 159.223 300.392 159.101 297.448 158.861C294.44 158.636 291.448 158.205 288.49 157.572C285.971 157.058 283.518 156.213 281.183 155.057C279.304 154.169 277.67 152.759 276.444 150.967L276.304 150.744L281.928 110.719L287.994 65.7163C288.393 62.7382 289.78 60.0246 291.89 58.0921C294.001 56.1595 296.687 55.1429 299.439 55.2358L318.434 55.8723C319.859 55.92 321.26 56.28 322.555 56.9309C323.85 57.5818 325.012 58.5103 325.973 59.6615C326.933 60.8126 327.673 62.1629 328.147 63.6323C328.622 65.1017 328.822 66.6603 328.735 68.2157L326.241 112.972L335.439 157.119L334.788 157.218C334.526 157.256 333.516 157.402 331.935 157.596C329.868 157.85 327.758 158.079 325.663 158.277C322.698 158.556 319.797 158.776 317.041 158.93C313.545 159.125 310.194 159.219 307.1 159.223Z" fill="#4A5568"/>
<path d="M296.559 47.283C296.554 47.283 296.549 47.283 296.544 47.283C296.146 47.2827 295.751 47.1966 295.383 47.0296C295.015 46.8626 294.68 46.6179 294.399 46.3096C294.117 46.0013 293.894 45.6353 293.742 45.2326C293.589 44.8299 293.511 44.3984 293.511 43.9626V25.4445C293.508 22.1268 294.115 18.8423 295.297 15.7863C297.61 9.82264 301.938 5.06504 307.38 2.50496C310.822 0.89078 314.576 0.235135 318.307 0.596736C322.037 0.958337 325.627 2.32589 328.756 4.57695C331.884 6.82801 334.453 9.89229 336.233 13.4954C338.012 17.0985 338.947 21.128 338.953 25.2229V43.7693C338.953 44.2156 338.872 44.6575 338.712 45.0685C338.401 45.8703 337.817 46.5094 337.085 46.8522C336.709 47.0276 336.305 47.1187 335.896 47.1199L296.557 47.283H296.559Z" fill="#2D3748"/>
<path d="M326.491 19.0934C328.076 22.258 328.767 25.8652 328.478 29.4592C328.189 33.0533 326.932 36.4731 324.866 39.2866C322.801 42.1002 320.019 44.1813 316.872 45.2672C313.726 46.3531 310.355 46.395 307.187 45.3877C305.089 44.7284 303.131 43.6205 301.428 42.1281C299.724 40.6357 298.308 38.7885 297.262 36.6935C295.681 33.5303 294.992 29.926 295.282 26.3352C295.572 22.7445 296.828 19.3279 298.891 16.5164C300.954 13.7049 303.733 11.6243 306.876 10.5369C310.019 9.44946 313.386 9.40398 316.553 10.4062C318.653 11.063 320.613 12.1691 322.319 13.6605C324.025 15.1519 325.443 16.9988 326.491 19.0941V19.0934Z" fill="#E2E8F0"/>
<path d="M288.14 26.9518C288.138 24.3279 288.618 21.7302 289.552 19.3133C291.381 14.5976 294.804 10.8357 299.107 8.81211C301.315 7.77768 303.691 7.23942 306.093 7.22936L309.483 7.21078C309.521 7.21054 309.559 7.21043 309.597 7.21045C311.944 7.21203 314.268 7.7191 316.436 8.70271C318.604 9.68633 320.574 11.1272 322.232 12.9431C323.891 14.759 325.206 16.9144 326.103 19.2861C327 21.6578 327.461 24.1995 327.46 26.766V27.1369L320.289 27.1686L317.844 19.6993L317.355 27.183L313.651 27.2009L312.418 23.4326L312.171 27.2057L288.143 27.3234L288.14 26.9518Z" fill="#2D3748"/>
<path d="M259.271 65.9077C258.168 66.2028 257.136 66.7558 256.247 67.5285C255.552 68.1297 254.958 68.8584 254.49 69.6819C253.569 71.3116 253.163 73.2273 253.335 75.134C253.422 76.0972 253.661 77.0366 254.041 77.9105C254.51 78.9996 255.185 79.9676 256.022 80.7504C256.858 81.5333 257.837 82.1132 258.893 82.452C259.95 82.7908 261.06 82.8807 262.15 82.7158C263.241 82.5509 264.287 82.1349 265.22 81.4954C265.289 81.4469 265.357 81.3976 265.424 81.3476C265.492 81.2977 265.558 81.2467 265.623 81.1947C265.688 81.1426 265.753 81.0896 265.816 81.0359C265.879 80.9822 265.942 80.9277 266.004 80.8724L305.573 96.271C306.79 96.7445 308.115 96.7727 309.349 96.3515C310.582 95.9302 311.657 95.0823 312.412 93.9353L321.793 79.7333L310.451 71.3823L304.499 78.7753L268.287 70.8987C268.248 70.7962 268.207 70.6941 268.164 70.5925C268.122 70.4909 268.078 70.3898 268.032 70.2891C267.985 70.1887 267.937 70.0888 267.887 69.9895C267.838 69.8901 267.785 69.7915 267.73 69.6938C266.866 68.1674 265.582 66.9791 264.063 66.299C262.543 65.6189 260.866 65.4819 259.271 65.9077Z" fill="#E2E8F0"/>
<path d="M305.138 74.113C306.321 72.4978 307.976 70.4006 309.658 68.3206C311.339 66.2406 313.045 64.179 314.333 62.6367C315.62 61.0945 316.486 60.0724 316.486 60.0724C317.674 58.1082 319.447 56.6542 321.504 55.9575C323.562 55.2607 325.776 55.3641 327.771 56.2501C329.767 57.1361 331.42 58.7501 332.451 60.8179C333.481 62.8857 333.825 65.2798 333.425 67.5936C333.196 68.9256 332.723 70.1932 332.034 71.3201C332.034 71.3201 330.743 73.1672 328.794 75.9242C326.846 78.6812 324.239 82.3512 321.609 85.9999C318.979 89.6485 316.324 93.2783 314.276 95.9577C312.229 98.637 310.788 100.368 310.585 100.22L303.443 77.0068C303.24 76.8585 303.954 75.7282 305.138 74.113Z" fill="#4A5568"/>
<path d="M309.377 46.6995C309.264 47.2982 309.308 47.9193 309.502 48.4921C309.6 48.7854 309.735 49.0622 309.903 49.3145C310.046 49.5295 310.213 49.7251 310.399 49.8973C310.949 50.4058 311.647 50.6832 312.367 50.6798C312.412 50.6793 312.457 50.6779 312.502 50.6756C312.547 50.6734 312.592 50.6699 312.637 50.6653C312.682 50.6612 312.727 50.6557 312.772 50.6488C312.817 50.6419 312.862 50.6341 312.907 50.6254L315.452 50.1196L318.958 41.9306V49.4315L330.529 47.1537V15.3232L311.131 15.4251L311.61 16.0341C313.202 18.0776 314.247 20.5617 314.631 23.2129C315.007 25.8982 314.96 28.6342 314.491 31.3021C314.036 34.0017 313.344 36.6471 312.426 39.2021C311.623 41.4655 310.702 43.6766 309.667 45.8242C309.533 46.0997 309.435 46.3943 309.377 46.6995Z" fill="#2D3748"/>
</g>
<defs>
<clipPath id="clip0_291_2239">
<rect width="472" height="333" fill="white" transform="translate(0.5 0.5)"/>
</clipPath>
</defs>
</svg>
