<svg width="472" height="334" viewBox="0 0 472 334" fill="none" xmlns="http://www.w3.org/2000/svg">
<g clip-path="url(#clip0_291_1514)">
<path d="M337.937 316.9H329.083L324.869 282.707H337.937V316.9Z" fill="#F7FAFC"/>
<path d="M342.611 332.26H336.261L335.128 326.258L332.225 332.26H315.384C314.577 332.26 313.79 332.002 313.14 331.523C312.49 331.044 312.01 330.369 311.769 329.598C311.529 328.826 311.542 327.998 311.805 327.234C312.068 326.469 312.568 325.81 313.233 325.35L326.681 316.051V309.983L340.827 310.828L342.611 332.26Z" fill="#2D3748"/>
<path d="M390.541 305.712L383.435 311.002L359.675 286.081L370.162 278.273L390.541 305.712Z" fill="#F7FAFC"/>
<path d="M403.445 315.246L398.35 319.04L393.863 314.9L395.111 321.451L381.597 331.513C380.949 331.995 380.164 332.257 379.357 332.261C378.55 332.266 377.762 332.011 377.11 331.536C376.457 331.06 375.973 330.388 375.729 329.617C375.485 328.847 375.493 328.019 375.753 327.253L381.002 311.756L377.386 306.887L389.241 299.114L403.445 315.246Z" fill="#2D3748"/>
<path d="M348.246 140.479C348.246 140.479 365.046 155.011 357.294 196.437L347.831 237.028L378.693 288.289L368.853 300.275L328.732 244.791L314.194 210.646L310.114 149.876L348.246 140.479Z" fill="#2D3748"/>
<path d="M322.207 220.377L321.197 236.045L324.289 302.812L338.84 300.275L341.62 252.738L322.207 220.377Z" fill="#2D3748"/>
<path d="M135.479 324.94L143.397 324.939L147.164 294.361L135.478 294.361L135.479 324.94Z" fill="#F7FAFC"/>
<path d="M133.459 322.352L135.688 322.352L144.39 318.809L149.053 322.351H149.054C151.689 322.351 154.217 323.399 156.08 325.265C157.944 327.131 158.991 329.662 158.991 332.3V332.624L133.46 332.625L133.459 322.352Z" fill="#2D3748"/>
<path d="M166.164 319.944L173.887 321.69L184.289 292.693L172.89 290.116L166.164 319.944Z" fill="#F7FAFC"/>
<path d="M164.763 316.974L166.937 317.465L176.204 315.928L179.973 320.412L179.974 320.412C182.545 320.994 184.78 322.574 186.187 324.805C187.594 327.036 188.059 329.735 187.478 332.309L187.407 332.624L162.503 326.995L164.763 316.974Z" fill="#2D3748"/>
<path d="M125.451 137.998C121.738 149.208 122.131 161.376 126.343 174.436L128.144 247.968C128.144 247.968 125.461 296.188 134.118 313.156H146.673L152.889 243.564L153.67 196.853L180.586 236.261L163.442 312.018L178.895 313.402L206.715 231.187L172.39 151.425L125.451 137.998Z" fill="#2D3748"/>
<path d="M308.279 135.079C308.114 135.776 308.125 136.504 308.31 137.196C308.495 137.889 308.849 138.524 309.341 139.046C309.594 139.313 309.148 139.668 308.897 139.404C308.357 138.825 307.966 138.122 307.76 137.358C307.554 136.593 307.537 135.79 307.713 135.017C307.723 134.943 307.761 134.876 307.82 134.829C307.878 134.782 307.952 134.759 308.026 134.764C308.101 134.773 308.17 134.811 308.217 134.869C308.265 134.928 308.287 135.003 308.279 135.079Z" fill="#E2E8F0"/>
<path d="M248.411 89.913C247.882 90.6102 247.206 91.1827 246.432 91.5902C245.658 91.9977 244.804 92.2302 243.93 92.2714C243.056 92.3127 242.184 92.1616 241.375 91.8289C240.566 91.4961 239.84 90.9898 239.247 90.3456L219.749 98.8361L221.648 87.9381L239.873 81.5462C241.02 80.6213 242.466 80.1497 243.937 80.2209C245.407 80.2921 246.801 80.901 247.854 81.9323C248.906 82.9636 249.544 84.3457 249.647 85.8166C249.75 87.2875 249.31 88.745 248.411 89.913Z" fill="#F7FAFC"/>
<path d="M235.4 93.3155L190.112 113.513L190.015 113.478L138.398 95.0621C134.553 93.0503 131.622 89.6431 130.205 85.538C128.787 81.433 128.991 76.9407 130.773 72.9809C131.762 70.7931 133.201 68.8397 134.998 67.2492C136.794 65.6587 138.907 64.4671 141.197 63.753C143.486 63.0389 145.901 62.8185 148.282 63.1061C150.663 63.3937 152.956 64.183 155.01 65.4219L193.423 88.5894L230.671 83.756L235.4 93.3155Z" fill="#718096"/>
<path d="M458 332.886C458 332.966 457.984 333.046 457.954 333.121C457.923 333.196 457.878 333.264 457.821 333.321C457.764 333.378 457.696 333.423 457.621 333.454C457.547 333.485 457.467 333.5 457.386 333.5H13.6309C13.4681 333.5 13.312 333.435 13.1969 333.32C13.0818 333.205 13.0171 333.049 13.0171 332.886C13.0171 332.723 13.0818 332.566 13.1969 332.451C13.312 332.336 13.4681 332.271 13.6309 332.271H457.386C457.467 332.271 457.547 332.287 457.621 332.317C457.696 332.348 457.764 332.393 457.821 332.45C457.878 332.508 457.923 332.575 457.954 332.65C457.984 332.725 458 332.805 458 332.886Z" fill="#4A5568"/>
<path d="M174.629 153.781L128.976 146.469C127.779 146.085 126.678 145.447 125.751 144.597C124.823 143.747 124.091 142.706 123.603 141.546C123.115 140.386 122.884 139.134 122.925 137.876C122.966 136.617 123.278 135.383 123.841 134.257L125.911 130.111L125.107 86.5502C125.01 80.884 126.405 75.2921 129.152 70.3372C131.899 65.3822 135.901 61.239 140.755 58.3242L145.207 55.659L147.457 49.9385L168.203 50.4451L168.264 57.9478L175.693 69.8097L175.693 69.8589L175.227 134.422L173.179 141.085L176.275 148.835L174.629 153.781Z" fill="#4A5568"/>
<path d="M159.73 42.8253C170.141 42.8253 178.58 34.3755 178.58 23.9521C178.58 13.5287 170.141 5.07886 159.73 5.07886C149.319 5.07886 140.88 13.5287 140.88 23.9521C140.88 34.3755 149.319 42.8253 159.73 42.8253Z" fill="#F7FAFC"/>
<path d="M140.101 28.0663C139.539 25.6949 139.797 22.3578 140.115 19.9699C140.948 13.7099 144.42 7.75862 149.695 4.23346C150.695 3.47282 151.884 2.99989 153.133 2.86566C154.381 2.8135 155.734 3.4824 156.117 4.67272C156.431 3.8871 156.903 3.17433 157.503 2.5784C158.103 1.98247 158.819 1.51602 159.606 1.20785C161.188 0.601209 162.889 0.371791 164.574 0.537784C167.841 0.807391 170.974 1.95749 173.641 3.86601C176.307 5.77454 178.408 8.37029 179.72 11.3778C180.224 12.5754 181.63 8.15195 182.268 9.28345C182.854 10.4596 183.877 11.3593 185.117 11.79C186.367 12.1392 186.875 17.2955 187.367 16.0932C187.749 16.9818 187.899 17.9526 187.805 18.9153C187.711 19.8779 187.376 20.8011 186.829 21.5989C186.283 22.3966 185.544 23.043 184.681 23.4778C183.818 23.9125 182.859 24.1215 181.894 24.0854C180.622 24.0377 179.405 23.5692 178.148 23.3675C173.652 22.6463 168.884 25.9101 167.923 30.3657C167.579 29.0772 167.029 27.8528 166.295 26.7397C165.922 26.1861 165.423 25.7296 164.839 25.4081C164.254 25.0867 163.602 24.9096 162.935 24.8915C161.656 24.9394 160.532 25.7767 159.702 26.7523C158.872 27.7279 158.249 28.8661 157.413 29.8364C154.96 32.6836 151.642 39.3235 148.147 38.8392C145.388 38.4571 140.869 31.3043 140.101 28.0663Z" fill="#2D3748"/>
<path d="M273.677 111.299C273.809 110.439 273.632 109.56 273.179 108.817C272.725 108.075 272.023 107.517 271.197 107.243L220.434 90.3157C219.947 90.1527 219.432 90.0935 218.921 90.1418L206.197 91.3465L198.897 92.0399L185.424 93.3146C184.611 93.3926 183.846 93.7385 183.25 94.2984C182.654 94.8582 182.261 95.6002 182.131 96.408L175.291 139.19C175.161 140.024 175.32 140.878 175.74 141.61C176.161 142.342 176.818 142.908 177.604 143.216L228.897 163.039C229.138 163.133 229.388 163.2 229.643 163.24C230.015 163.3 230.393 163.303 230.766 163.248L263.91 158.33C264.692 158.217 265.416 157.854 265.976 157.296C266.535 156.738 266.9 156.014 267.017 155.232L273.677 111.299Z" fill="#ECC94B"/>
<path d="M178.767 140.201L230.06 160.024C230.135 160.054 230.216 160.063 230.296 160.052L263.436 155.134C263.534 155.12 263.625 155.075 263.695 155.005C263.765 154.935 263.811 154.844 263.825 154.746L270.489 110.813C270.504 110.706 270.482 110.597 270.425 110.504C270.369 110.412 270.282 110.342 270.18 110.306L269.839 110.19L219.413 93.3821C219.39 93.374 219.367 93.3682 219.342 93.365C219.303 93.3578 219.263 93.3557 219.224 93.3588L188.19 96.2991L185.727 96.5304C185.626 96.5412 185.531 96.5848 185.457 96.6545C185.383 96.7243 185.334 96.8163 185.317 96.9166L178.478 139.696C178.461 139.801 178.481 139.908 178.533 140C178.586 140.092 178.668 140.163 178.767 140.201Z" fill="#ECC94B"/>
<path d="M188.19 96.2991L219.224 93.3588C219.264 93.3557 219.303 93.3578 219.343 93.365C219.367 93.3682 219.39 93.374 219.413 93.3821L269.839 110.19L256.538 111.6L251.56 112.125L237.395 113.624C237.354 113.626 237.312 113.625 237.271 113.622C237.246 113.614 237.22 113.607 237.19 113.599L188.19 96.2991Z" fill="#2D3748"/>
<path d="M177.603 143.218L228.896 163.041C229.138 163.134 229.389 163.2 229.645 163.237C230.016 163.299 230.395 163.303 230.768 163.251L263.908 158.333C264.69 158.219 265.414 157.856 265.974 157.298C266.534 156.739 266.9 156.015 267.017 155.233L273.676 111.299C273.775 110.652 273.7 109.99 273.46 109.38C273.427 109.299 273.393 109.218 273.354 109.142C273.09 108.585 272.688 108.105 272.186 107.748C271.884 107.531 271.551 107.361 271.198 107.244L271.138 107.223L220.437 90.3153C220.23 90.2492 220.018 90.1977 219.804 90.1614C219.511 90.1199 219.214 90.1141 218.919 90.1442L206.198 91.3448L198.897 92.042L185.423 93.3158C184.871 93.3674 184.339 93.5435 183.866 93.831C183.829 93.8487 183.794 93.8696 183.761 93.8936C183.738 93.9089 183.715 93.9259 183.694 93.9443C183.281 94.2268 182.929 94.5906 182.661 95.0136C182.392 95.4365 182.213 95.9098 182.133 96.4045L175.288 139.189C175.159 140.024 175.318 140.878 175.738 141.611C176.159 142.344 176.817 142.911 177.603 143.218ZM183.041 96.5536C183.124 96.0408 183.351 95.5623 183.696 95.174C183.8 95.0491 183.917 94.9351 184.045 94.8338C184.392 94.5521 184.804 94.3599 185.243 94.274C185.33 94.2561 185.418 94.2437 185.506 94.2369L208.194 92.0909L219.008 91.0606C219.081 91.052 219.149 91.0533 219.216 91.0494C219.38 91.046 219.544 91.0582 219.705 91.0858C219.854 91.1051 220 91.1399 220.141 91.1897L270.902 108.118C270.942 108.133 270.977 108.146 271.017 108.16C271.479 108.332 271.884 108.628 272.19 109.015C272.431 109.311 272.607 109.654 272.707 110.023C272.806 110.392 272.827 110.778 272.768 111.155L266.103 155.093C266.015 155.679 265.742 156.222 265.323 156.64C264.905 157.059 264.363 157.332 263.777 157.418L230.632 162.335C230.158 162.404 229.674 162.348 229.228 162.175L177.934 142.358C177.346 142.126 176.854 141.701 176.539 141.152C176.225 140.603 176.105 139.964 176.201 139.339L183.041 96.5536Z" fill="#4A5568"/>
<path d="M183.584 94.1775C183.611 94.0997 183.659 94.0307 183.722 93.9781C183.743 93.9613 183.765 93.946 183.789 93.9325C183.81 93.9242 183.832 93.9108 183.854 93.9024C183.957 93.861 184.071 93.859 184.175 93.8969L185.243 94.274L237.401 112.696L249.608 111.404L256.439 110.683L270.897 109.15L272.19 109.015L272.441 108.987C272.549 108.977 272.658 109.005 272.747 109.067C272.837 109.128 272.902 109.22 272.932 109.324C272.939 109.348 272.944 109.373 272.946 109.398C272.956 109.498 272.934 109.598 272.883 109.684C272.832 109.77 272.754 109.836 272.662 109.874C272.621 109.891 272.578 109.903 272.534 109.909L270.776 110.093L256.538 111.6L251.56 112.125L237.395 113.624C237.354 113.626 237.312 113.625 237.271 113.622C237.246 113.615 237.22 113.607 237.19 113.599L184.045 94.8338L183.864 94.7699C183.823 94.7563 183.784 94.735 183.751 94.7071C183.67 94.6481 183.611 94.5649 183.581 94.4697C183.551 94.3745 183.552 94.2721 183.584 94.1775Z" fill="#4A5568"/>
<path d="M229.784 163.372C229.664 163.353 229.557 163.287 229.485 163.188C229.413 163.09 229.383 162.968 229.401 162.847L236.889 113.095C236.908 112.974 236.973 112.866 237.071 112.793C237.17 112.72 237.293 112.69 237.414 112.708L237.418 112.708C237.538 112.728 237.646 112.794 237.717 112.892C237.789 112.99 237.819 113.113 237.801 113.233L230.313 162.985C230.295 163.106 230.229 163.215 230.131 163.287C230.032 163.36 229.909 163.391 229.788 163.372L229.784 163.372Z" fill="#4A5568"/>
<path d="M248.765 160.216L243.785 160.742L249.61 111.403C249.61 111.403 256.261 110.197 256.439 110.681C256.549 110.969 248.812 159.899 248.765 160.216Z" fill="#4A5568"/>
<path d="M183.866 94.7693L183.731 117.269L223.515 132.447L237.801 113.233L183.866 94.7693Z" fill="#4A5568"/>
<path d="M272.191 109.015C271.858 108.597 271.411 108.285 270.903 108.118L220.143 91.1904C220.001 91.1424 219.855 91.1067 219.706 91.0836C219.544 91.0558 219.38 91.0435 219.216 91.0469L219.298 90.5318L219.806 90.1635L231.86 81.4258L272.115 93.7777L272.185 107.749L272.191 109.015Z" fill="#4A5568"/>
<path d="M230.001 140.004C229.199 140.353 228.33 140.522 227.456 140.498C226.581 140.475 225.723 140.259 224.941 139.868C224.158 139.476 223.471 138.917 222.928 138.231C222.385 137.544 221.998 136.747 221.796 135.895L200.641 133.755L207.621 125.179L226.639 128.526C228.092 128.28 229.583 128.577 230.832 129.359C232.08 130.141 232.998 131.355 233.413 132.77C233.827 134.185 233.709 135.703 233.08 137.036C232.451 138.369 231.356 139.426 230.001 140.004Z" fill="#F7FAFC"/>
<path d="M216.99 136.602L167.621 132.048L167.554 131.97L131.523 90.635C129.152 86.9977 128.259 82.5906 129.028 78.3158C129.796 74.041 132.168 70.222 135.657 67.6408C137.587 66.2162 139.797 65.2171 142.141 64.7093C144.485 64.2015 146.91 64.1965 149.256 64.6946C151.602 65.1927 153.816 66.1826 155.752 67.5991C157.688 69.0157 159.303 70.8268 160.49 72.9132L182.682 111.928L217.534 125.948L216.99 136.602Z" fill="#718096"/>
<path d="M340.902 57.1117C339.676 48.1079 338.138 38.4411 331.796 31.9415C329.783 29.8792 327.374 28.2462 324.714 27.1412C322.055 26.0361 319.199 25.4818 316.319 25.5116C313.439 25.5415 310.596 26.1549 307.959 27.3148C305.323 28.4748 302.948 30.1572 300.979 32.2608C296.362 37.1923 294.323 44.1168 294.136 50.8736C293.949 57.6304 295.452 64.3121 297.12 70.862C305.943 71.0385 314.702 69.3125 322.8 65.8012C324.826 64.9211 326.818 63.9261 328.958 63.3809C331.097 62.8357 332.622 64.2077 334.613 65.1644L335.705 63.0699C336.599 64.7363 339.369 64.2424 340.373 62.6401C341.377 61.0379 341.157 58.986 340.902 57.1117Z" fill="#2D3748"/>
<path d="M305.926 107.367L269.883 108.139C269.329 107.181 268.51 106.404 267.523 105.904C266.537 105.404 265.427 105.202 264.329 105.322C263.23 105.442 262.189 105.879 261.334 106.58C260.479 107.281 259.846 108.216 259.511 109.271C259.177 110.326 259.157 111.456 259.452 112.522C259.747 113.589 260.345 114.546 261.174 115.278C262.003 116.011 263.027 116.486 264.12 116.646C265.214 116.806 266.331 116.645 267.335 116.182C272.115 116.454 309.514 121.768 311.745 118.343C314.01 114.867 326.098 102.599 326.098 102.599L316.806 89.355L305.926 107.367Z" fill="#F7FAFC"/>
<path d="M314.709 66.0196C324.062 66.0196 331.644 58.4286 331.644 49.0645C331.644 39.7004 324.062 32.1094 314.709 32.1094C305.356 32.1094 297.775 39.7004 297.775 49.0645C297.775 58.4286 305.356 66.0196 314.709 66.0196Z" fill="#F7FAFC"/>
<path d="M341.832 81.688C339.837 77.7114 338.867 72.7989 334.613 71.5097C331.74 70.6391 320.12 71.9437 317.501 73.4133C313.146 75.8577 317.093 80.4382 314.523 84.7246C311.73 89.3844 304.139 98.7358 301.345 103.396C299.425 106.599 305.893 116.002 304.855 119.59C303.817 123.179 303.767 127.207 305.536 130.496C307.119 133.441 304.828 136.046 306.42 138.985C308.076 142.043 310.108 153.473 308.567 156.59L307.535 159.689C317.773 160.291 326.38 148.046 336.554 146.756C339.081 146.435 341.705 146.017 343.787 144.548C346.855 142.385 348.067 138.46 348.825 134.781C352.472 116.798 350.011 98.1098 341.832 81.688Z" fill="#4A5568"/>
<path d="M357.181 123.676C355.755 119.779 353.174 102.741 353.174 102.741L337.016 102.267L344.915 121.774L323.359 151.988C323.359 151.988 323.399 152.054 323.472 152.173C322.338 151.991 321.176 152.155 320.138 152.645C319.1 153.135 318.233 153.928 317.652 154.919C317.071 155.91 316.802 157.053 316.881 158.2C316.96 159.347 317.382 160.443 318.093 161.345C318.805 162.247 319.771 162.913 320.867 163.256C321.962 163.599 323.136 163.603 324.233 163.267C325.331 162.932 326.302 162.272 327.019 161.375C327.737 160.478 328.167 159.384 328.253 158.238C328.332 158.284 328.425 158.3 328.515 158.285C328.606 158.269 328.688 158.223 328.747 158.153C331.146 155.14 358.607 127.573 357.181 123.676Z" fill="#F7FAFC"/>
<path d="M358.824 112.916C357.341 106.649 355.847 100.348 353.346 94.4137C350.846 88.4796 347.267 82.8747 342.232 78.8658C340.622 77.584 338.823 76.4527 336.805 76.0543C334.788 75.6558 332.514 76.1017 331.097 77.594C328.829 79.9818 329.512 83.8147 330.343 87.0026C332.796 96.4022 335.248 105.802 337.7 115.201C344.782 114.45 351.864 113.698 358.946 112.947L358.824 112.916Z" fill="#718096"/>
<path d="M335.459 51.4163C334.836 47.3147 334.184 43.1787 332.719 39.3166C331.254 35.4545 328.892 31.8371 325.505 29.6493C320.141 26.1854 313.196 26.8535 307.182 28.846C302.532 30.3869 297.992 32.729 294.712 36.4942C291.432 40.2596 289.59 45.6322 290.81 50.5555C297.225 49.038 303.64 47.5205 310.055 46.003L309.353 46.4999C311.459 47.5514 313.298 49.0696 314.731 50.9392C316.164 52.8088 317.152 54.9807 317.622 57.2899C318.08 59.6272 318.015 62.0374 317.429 64.346C316.843 66.6547 315.752 68.8042 314.235 70.639C318.61 69.0851 322.985 67.5312 327.36 65.9773C330.061 65.0182 332.951 63.9131 334.552 61.453C336.409 58.6007 335.977 54.8202 335.459 51.4163Z" fill="#2D3748"/>
</g>
<defs>
<clipPath id="clip0_291_1514">
<rect width="472" height="333" fill="white" transform="translate(0 0.5)"/>
</clipPath>
</defs>
</svg>
