<?xml version="1.0" encoding="utf-8"?>
<svg viewBox="-36.176 -7.306 238.255 44.282" fill="none" xmlns="http://www.w3.org/2000/svg">
  <path d="M 18.551 27.334 C 17.057 27.334 16.178 26.42 16.178 24.856 L 16.178 4.711 C 16.178 2.566 17.444 1.283 19.606 1.283 C 21.452 1.283 22.471 2.057 23.245 4.025 L 29.538 19.617 L 29.678 19.617 L 35.954 4.025 C 36.727 2.074 37.764 1.283 39.628 1.283 C 41.772 1.283 43.038 2.549 43.038 4.711 L 43.038 24.856 C 43.038 26.42 42.159 27.334 40.665 27.334 C 39.171 27.334 38.309 26.42 38.309 24.856 L 38.309 9.879 L 38.169 9.879 L 31.893 25.225 C 31.436 26.35 30.733 26.842 29.626 26.842 C 28.501 26.842 27.762 26.332 27.323 25.242 L 21.048 9.879 L 20.907 9.879 L 20.907 24.856 C 20.907 26.42 20.046 27.334 18.551 27.334 Z M 53.791 5.818 C 52.245 5.818 51.049 4.641 51.049 3.164 C 51.049 1.67 52.245 0.51 53.791 0.51 C 55.338 0.51 56.534 1.67 56.534 3.164 C 56.534 4.641 55.338 5.818 53.791 5.818 Z M 53.791 27.369 C 52.192 27.369 51.225 26.367 51.225 24.697 L 51.225 10.459 C 51.225 8.789 52.192 7.77 53.791 7.77 C 55.373 7.77 56.358 8.789 56.358 10.459 L 56.358 24.697 C 56.358 26.367 55.373 27.369 53.791 27.369 Z M 66.795 27.369 C 65.301 27.369 64.229 26.455 64.229 24.697 L 64.229 3.938 C 64.229 2.18 65.301 1.248 66.795 1.248 C 68.307 1.248 69.361 2.18 69.361 3.938 L 69.361 24.697 C 69.361 26.455 68.307 27.369 66.795 27.369 Z M 79.834 27.369 C 78.34 27.369 77.267 26.455 77.267 24.697 L 77.267 3.938 C 77.267 2.18 78.34 1.248 79.834 1.248 C 81.345 1.248 82.4 2.18 82.4 3.938 L 82.4 15.627 L 82.47 15.627 L 89.291 8.789 C 89.976 8.068 90.556 7.77 91.33 7.77 C 92.648 7.77 93.615 8.736 93.615 10.002 C 93.615 10.775 93.386 11.25 92.648 11.936 L 87.849 16.471 L 93.105 23.168 C 93.668 23.924 93.826 24.381 93.826 25.049 C 93.826 26.42 92.824 27.369 91.383 27.369 C 90.293 27.369 89.677 26.982 88.869 25.77 L 84.035 19.371 L 82.4 20.883 L 82.4 24.697 C 82.4 26.455 81.345 27.369 79.834 27.369 Z M 103.402 27.369 C 101.872 27.369 100.835 26.438 100.835 24.697 L 100.835 10.389 C 100.835 8.666 101.855 7.77 103.314 7.77 C 104.773 7.77 105.792 8.666 105.792 10.389 L 105.792 11.566 L 105.898 11.566 C 106.689 9.299 108.71 7.805 111.277 7.805 C 114.001 7.805 115.9 9.211 116.533 11.672 L 116.638 11.672 C 117.482 9.299 119.732 7.805 122.492 7.805 C 126.183 7.805 128.661 10.336 128.661 14.133 L 128.661 24.697 C 128.661 26.438 127.607 27.369 126.078 27.369 C 124.566 27.369 123.529 26.438 123.529 24.697 L 123.529 15.416 C 123.529 13.236 122.439 12.041 120.453 12.041 C 118.501 12.041 117.218 13.465 117.218 15.557 L 117.218 24.697 C 117.218 26.438 116.269 27.369 114.74 27.369 C 113.228 27.369 112.279 26.438 112.279 24.697 L 112.279 15.258 C 112.279 13.236 111.136 12.041 109.238 12.041 C 107.287 12.041 105.968 13.518 105.968 15.627 L 105.968 24.697 C 105.968 26.438 104.914 27.369 103.402 27.369 Z M 135.829 27.264 C 135.407 27.264 135.126 27 135.126 26.631 C 135.126 26.508 135.161 26.385 135.231 26.174 L 144.442 2.039 C 144.618 1.582 144.882 1.371 145.304 1.371 C 145.726 1.371 145.972 1.564 146.148 2.021 L 155.376 26.174 C 155.429 26.35 155.464 26.508 155.464 26.613 C 155.464 27 155.183 27.264 154.761 27.264 C 154.409 27.264 154.198 27.088 154.058 26.684 L 150.981 18.545 L 139.608 18.545 L 136.55 26.684 C 136.392 27.106 136.198 27.264 135.829 27.264 Z M 140.065 17.297 L 150.542 17.297 L 145.339 3.445 L 145.251 3.445 L 140.065 17.297 Z M 163.071 33.275 C 162.667 33.275 162.385 32.994 162.385 32.537 L 162.385 9.141 C 162.385 8.719 162.649 8.438 163.018 8.438 C 163.405 8.438 163.669 8.719 163.669 9.141 L 163.669 13.623 L 163.721 13.623 C 164.565 10.688 167.149 8.438 170.542 8.438 C 175.13 8.438 178.294 12.234 178.294 17.859 C 178.294 23.484 175.147 27.281 170.559 27.281 C 167.184 27.281 164.6 25.049 163.792 22.201 L 163.757 22.201 L 163.757 32.537 C 163.757 32.994 163.475 33.275 163.071 33.275 Z M 170.384 26.051 C 174.268 26.051 176.905 22.746 176.905 17.877 C 176.905 12.99 174.268 9.668 170.384 9.668 C 166.464 9.668 163.739 13.008 163.739 17.859 C 163.739 22.711 166.464 26.051 170.384 26.051 Z M 186.446 33.275 C 186.041 33.275 185.76 32.994 185.76 32.537 L 185.76 9.141 C 185.76 8.719 186.024 8.438 186.393 8.438 C 186.78 8.438 187.043 8.719 187.043 9.141 L 187.043 13.623 L 187.096 13.623 C 187.94 10.688 190.524 8.438 193.916 8.438 C 198.504 8.438 201.668 12.234 201.668 17.859 C 201.668 23.484 198.522 27.281 193.934 27.281 C 190.559 27.281 187.975 25.049 187.166 22.201 L 187.131 22.201 L 187.131 32.537 C 187.131 32.994 186.85 33.275 186.446 33.275 Z M 193.758 26.051 C 197.643 26.051 200.28 22.746 200.28 17.877 C 200.28 12.99 197.643 9.668 193.758 9.668 C 189.838 9.668 187.114 13.008 187.114 17.859 C 187.114 22.711 189.838 26.051 193.758 26.051 Z" fill="#E2E8F0" transform="matrix(1, 0, 0, 1, 0, 1.4210854715202004e-14)"/>
  <g stroke-width="2.00" fill="none" stroke-linecap="butt" transform="matrix(0.13655397295951843, 0, 0, 0.13655397295951843, -38.70799255371094, -7.402493000030518)" style="">
    <path stroke="#ab9b89" vector-effect="non-scaling-stroke" d=" M 263.28 73.53 Q 260.59 72.16 258.35 70.86 Q 248.06 64.90 238.54 59.35 C 234.64 57.08 231.08 54.47 226.94 52.48 Q 222.17 50.17 217.93 47.59 Q 207.53 41.26 196.92 35.05 Q 191.65 31.96 186.09 28.85 Q 177.99 24.31 168.80 18.64 C 161.06 13.86 154.15 18.19 147.58 22.50 Q 142.50 25.82 136.56 28.99 C 124.56 35.39 113.15 42.47 101.07 49.71 C 98.96 50.97 95.42 52.52 92.63 54.20 Q 79.86 61.86 67.62 69.04 C 62.23 72.20 56.73 74.95 51.19 78.10 C 43.12 82.68 37.25 86.71 37.25 96.13 Q 37.26 159.03 37.22 227.88 Q 37.22 231.64 38.02 235.01 C 39.10 239.49 44.48 243.13 48.51 245.46 Q 55.18 249.33 61.92 253.40 Q 68.56 257.41 76.20 261.35 C 83.31 265.02 90.07 269.69 97.06 273.67 Q 109.48 280.74 122.81 288.41 C 130.30 292.72 137.47 297.63 145.00 301.35 C 149.62 303.64 153.45 307.05 158.24 308.74 C 165.22 311.19 171.12 305.05 177.04 302.10 Q 183.99 298.63 193.81 292.51 Q 204.95 285.57 225.04 274.36 C 231.75 270.62 238.43 266.02 245.50 262.28 Q 253.08 258.27 259.53 254.43 Q 266.10 250.52 273.41 246.40 C 279.09 243.22 284.73 238.41 284.75 231.73 Q 284.88 165.61 284.90 98.37 C 284.91 91.60 283.99 86.87 278.67 82.85 Q 272.66 78.32 263.28 73.53"/>
    <path stroke="#9ddee3" vector-effect="non-scaling-stroke" d=" M 52.85 111.39 L 53.04 229.24 Q 53.04 229.73 53.48 229.98 L 67.35 237.69"/>
    <path stroke="#ab9b89" vector-effect="non-scaling-stroke" d=" M 67.35 237.69 L 77.16 243.22 A 0.35 0.35 0.0 0 0 77.66 243.06 Q 83.54 229.80 88.24 216.09 Q 91.52 206.49 95.43 196.73 C 98.43 189.24 104.98 183.07 113.74 183.68 Q 116.99 183.91 120.16 183.97 Q 120.72 183.98 120.72 184.54 L 120.78 200.92"/>
    <path stroke="#b0f0f2" vector-effect="non-scaling-stroke" d=" M 120.78 200.92 C 117.10 199.85 110.77 198.67 107.74 201.63 Q 104.85 204.45 103.19 208.17 Q 98.23 219.25 93.69 230.82 Q 92.03 235.04 90.04 239.18 Q 88.14 243.16 87.07 247.90 Q 86.97 248.32 87.23 248.66 Q 88.43 250.25 90.44 250.76"/>
    <path stroke="#97d5da" vector-effect="non-scaling-stroke" d=" M 90.44 250.76 L 99.21 255.94"/>
    <path stroke="#ab9b89" vector-effect="non-scaling-stroke" d=" M 99.21 255.94 L 160.38 291.35 A 1.39 1.38 45.2 0 0 161.76 291.36 L 223.25 256.20"/>
    <path stroke="#97d5da" vector-effect="non-scaling-stroke" d=" M 223.25 256.20 L 231.90 251.18"/>
    <path stroke="#b0f0f2" vector-effect="non-scaling-stroke" d=" M 231.90 251.18 Q 233.84 250.53 235.66 248.61 Q 236.06 248.19 235.81 247.66 C 234.20 244.21 233.24 240.58 231.71 237.11 Q 225.30 222.56 219.05 207.55 C 218.48 206.18 217.17 205.20 216.35 203.94 Q 213.30 199.24 206.75 200.07 Q 203.68 200.45 201.57 201.31"/>
    <path stroke="#ab9b89" vector-effect="non-scaling-stroke" d=" M 201.57 201.31 L 201.59 184.19 A 0.47 0.47 0.0 0 1 202.06 183.72 Q 205.51 183.70 208.97 183.64 C 218.43 183.48 224.17 189.63 227.33 197.98 Q 230.75 207.05 234.02 215.98 Q 238.34 227.78 244.91 242.86 A 0.72 0.72 0.0 0 0 245.92 243.19 L 255.11 237.92"/>
    <path stroke="#9ddee3" vector-effect="non-scaling-stroke" d=" M 255.11 237.92 L 268.62 230.21 A 1.28 1.28 0.0 0 0 269.26 229.10 L 269.26 96.47 Q 269.26 96.02 268.93 95.73 Q 267.85 94.73 266.23 94.30"/>
    <path stroke="#b0f0f2" vector-effect="non-scaling-stroke" d=" M 266.23 94.30 L 162.23 33.61 A 2.25 2.24 44.3 0 0 159.91 33.63 C 151.90 38.57 144.11 43.51 135.96 47.99 Q 126.20 53.38 116.65 58.78 C 110.38 62.32 104.42 66.57 98.18 69.88 Q 91.25 73.55 84.36 77.82 C 77.88 81.82 71.45 85.08 64.78 89.34 Q 59.91 92.45 54.04 94.95 A 2.18 2.18 0.0 0 0 52.72 96.97 L 52.85 111.39"/>
    <path stroke="#51d0df" vector-effect="non-scaling-stroke" d=" M 266.23 94.30 C 265.06 94.58 263.66 93.79 262.53 94.61 Q 262.16 94.88 261.70 94.98 L 258.15 95.82 Q 257.69 95.93 257.26 95.74 L 254.73 94.66 Q 254.01 94.35 253.73 95.10 Q 253.34 96.16 253.50 97.39 A 0.16 0.16 0.0 0 0 253.57 97.50 Q 253.89 97.73 254.25 97.56 Q 255.11 97.17 254.67 98.01 Q 254.60 98.15 254.63 98.29 Q 254.74 98.79 255.24 98.92 Q 256.11 99.16 256.01 100.05"/>
    <path stroke="#97f1f6" vector-effect="non-scaling-stroke" d=" M 256.01 100.05 C 249.31 95.87 241.89 92.20 235.60 88.28 Q 220.09 78.61 202.41 68.64 C 196.68 65.41 191.19 61.48 185.26 58.21 Q 174.60 52.32 164.42 46.49 C 162.87 45.60 161.37 44.41 159.62 45.49 Q 150.39 51.17 140.94 56.40 Q 134.17 60.14 128.67 63.47 C 121.24 67.98 113.58 72.00 106.49 76.45 C 100.05 80.49 93.42 84.29 87.10 88.21 C 80.04 92.60 72.22 96.10 65.30 100.67 A 0.77 0.76 52.7 0 0 65.15 101.81 Q 70.65 108.20 76.98 113.84 C 81.75 118.09 85.91 122.72 90.17 127.39 C 94.55 132.21 99.52 136.31 104.07 141.09 Q 117.49 155.17 131.71 168.71"/>
    <path stroke="#5f8d85" vector-effect="non-scaling-stroke" d=" M 131.71 168.71 Q 129.08 170.58 126.77 171.79 Q 124.70 172.87 122.55 172.72 Q 112.75 172.04 107.65 172.84 Q 97.30 174.45 90.13 182.32 C 88.73 183.85 87.83 186.02 86.69 187.88"/>
    <path stroke="#51d0df" vector-effect="non-scaling-stroke" d=" M 86.69 187.88 Q 83.00 187.13 79.40 186.14 Q 77.25 185.55 72.67 186.19 C 70.37 186.51 68.29 185.98 66.03 185.92 A 1.20 1.20 0.0 0 1 64.87 184.72 L 64.80 112.35 Q 64.79 111.60 64.21 112.07 L 63.55 112.62 Q 63.12 112.97 62.71 112.61 Q 61.98 111.99 61.19 112.60 Q 60.78 112.92 60.38 112.59 Q 56.18 109.10 52.85 111.39"/>
    <path stroke="#51d0df" vector-effect="non-scaling-stroke" d=" M 243.75 208.52 L 243.76 207.00 Q 243.76 206.54 244.22 206.51 Q 244.69 206.47 245.13 206.25 Q 250.59 203.54 255.95 201.30 Q 256.04 201.26 256.07 201.17 Q 256.12 201.04 256.17 200.92 Q 256.23 200.76 256.36 200.67 Q 256.54 200.54 256.69 200.70 Q 257.08 201.11 257.08 200.55 Q 257.24 162.40 257.37 128.76 Q 257.39 122.84 257.36 116.09 Q 257.36 114.89 257.63 113.43 Q 257.97 111.64 257.90 110.75 Q 257.71 108.36 256.28 103.40"/>
    <path stroke="#5f8d85" vector-effect="non-scaling-stroke" d=" M 191.13 169.29 Q 193.24 170.95 195.26 171.97 Q 197.27 172.98 199.36 172.83 Q 207.34 172.25 213.45 172.73 C 220.06 173.25 229.30 177.23 233.07 183.47 C 237.78 191.28 240.60 199.98 243.75 208.52"/>
    <path stroke="#4c7b76" vector-effect="non-scaling-stroke" d=" M 243.75 208.52 L 255.11 237.92"/>
    <path stroke="#5f8d85" vector-effect="non-scaling-stroke" d=" M 201.57 201.31 L 201.50 255.09 Q 201.50 256.10 202.38 255.60 L 208.15 252.32 Q 209.05 251.81 209.09 250.78 Q 209.41 242.74 210.03 235.00 Q 210.17 233.21 210.81 230.60"/>
    <path stroke="#46726e" vector-effect="non-scaling-stroke" d=" M 210.81 230.60 L 223.25 256.20"/>
    <path stroke="#46726e" vector-effect="non-scaling-stroke" d=" M 99.21 255.94 L 111.47 231.38"/>
    <path stroke="#5f8d85" vector-effect="non-scaling-stroke" d=" M 111.47 231.38 L 113.83 250.95 A 1.60 1.58 -78.2 0 0 114.60 252.14 L 120.40 255.59 A 0.18 0.18 0.0 0 0 120.67 255.44 L 120.78 200.92"/>
    <path stroke="#4c7b76" vector-effect="non-scaling-stroke" d=" M 67.35 237.69 L 86.69 187.88"/>
    <path stroke="#83dfe7" vector-effect="non-scaling-stroke" d=" M 256.01 100.05 Q 257.00 100.48 257.37 101.24 Q 257.59 101.70 257.35 102.16 Q 256.96 102.88 256.28 103.40"/>
    <path stroke="#97f1f6" vector-effect="non-scaling-stroke" d=" M 256.28 103.40 Q 248.08 111.55 239.76 119.42 Q 237.18 121.85 235.00 124.34 C 230.28 129.72 225.02 134.46 219.89 139.45 Q 219.08 140.24 210.96 148.85 Q 206.64 153.43 201.62 157.87 Q 196.20 162.67 191.13 169.29"/>
    <path stroke="#929b8d" vector-effect="non-scaling-stroke" d=" M 191.13 169.29 L 187.54 167.29 Q 187.01 166.99 187.31 166.46 C 188.75 163.92 190.34 161.39 191.13 158.58 Q 192.88 152.41 191.53 145.45 C 190.99 142.63 192.60 138.97 193.22 136.29 A 0.82 0.80 11.3 0 1 194.15 135.68 Q 201.13 136.91 208.22 135.05 C 216.17 132.95 222.47 125.85 225.60 118.40 Q 228.29 111.99 230.27 105.58 A 1.64 1.63 24.9 0 0 229.59 103.73 Q 220.28 97.72 210.29 96.56 Q 208.45 96.35 206.55 96.05 Q 205.85 95.94 206.10 95.28 C 208.24 89.65 202.84 80.82 199.42 76.41 C 197.82 74.34 195.47 74.82 193.53 76.03 Q 189.90 78.31 186.03 79.67 Q 185.35 79.90 185.20 79.20 C 184.27 75.00 181.46 66.76 177.40 64.37 Q 169.49 59.71 161.34 63.24 Q 160.85 63.46 160.35 63.24 C 153.47 60.23 144.60 61.90 140.90 68.99 Q 138.17 74.21 136.97 79.59 A 0.33 0.32 -71.6 0 1 136.52 79.82 Q 132.10 77.85 127.13 75.29 C 125.78 74.59 124.29 75.01 123.32 76.09 C 119.85 79.94 113.56 89.84 116.03 95.22 Q 116.42 96.09 115.47 96.14 C 108.30 96.55 98.87 99.17 92.67 103.87 A 1.80 1.80 0.0 0 0 92.05 105.85 Q 94.52 113.54 97.42 120.09 C 100.20 126.37 106.67 132.95 113.61 134.82 C 118.79 136.22 123.02 136.43 128.01 135.69 Q 128.74 135.58 128.87 136.30 Q 129.39 139.06 130.55 141.84 Q 131.16 143.31 130.86 144.72 C 129.19 152.50 130.35 159.64 134.95 166.24 Q 135.35 166.82 134.73 167.15 L 131.71 168.71"/>
    <path stroke="#4bc7d7" vector-effect="non-scaling-stroke" d=" M 111.47 231.38 L 107.85 217.37 A 0.57 0.56 55.4 0 0 106.84 217.18 C 105.81 218.63 104.85 220.05 104.17 221.71 Q 98.06 236.50 90.44 250.76"/>
    <path stroke="#4bc7d7" vector-effect="non-scaling-stroke" d=" M 231.90 251.18 L 215.07 216.35 A 0.42 0.42 0.0 0 0 214.28 216.44 L 210.81 230.60"/>
    <path stroke="#5f8d85" vector-effect="non-scaling-stroke" d=" M 89.46 159.56 C 85.21 158.54 82.14 155.86 81.54 151.51 Q 81.49 151.12 81.10 151.05 A 0.56 0.56 0.0 0 0 80.46 151.49 Q 79.10 157.87 72.31 159.49 Q 71.43 159.70 71.29 160.57 A 0.73 0.73 0.0 0 0 71.86 161.41 C 77.11 162.51 79.01 164.98 80.34 169.96 A 0.58 0.58 0.0 0 0 81.20 170.31 Q 81.63 170.05 81.71 169.56 C 82.50 164.86 85.55 162.66 89.58 160.89 A 0.71 0.70 39.9 0 0 89.46 159.56"/>
    <path stroke="#5f8d85" vector-effect="non-scaling-stroke" d=" M 149.81 72.44 L 147.85 79.73 Q 147.66 80.45 148.38 80.64 Q 161.01 83.91 174.18 80.72 Q 174.57 80.63 174.48 80.24 L 172.76 72.89"/>
    <path stroke="#ab9b89" vector-effect="non-scaling-stroke" d=" M 172.76 72.89 Q 171.89 71.43 170.26 70.96 Q 161.35 68.41 151.52 71.03 Q 150.39 71.33 149.81 72.44"/>
    <path stroke="#b0f0f2" vector-effect="non-scaling-stroke" d=" M 172.76 72.89 Q 170.34 73.71 167.98 74.65 Q 164.81 75.90 163.15 76.12 Q 156.40 77.01 149.81 72.44"/>
    <path stroke="#5f8d85" vector-effect="non-scaling-stroke" d=" M 125.91 89.37 Q 124.06 91.52 126.47 93.58 Q 128.39 95.22 130.48 96.80 Q 132.75 98.52 140.83 100.34 Q 161.67 105.05 183.25 100.07 Q 190.89 98.31 196.49 92.59 A 1.90 1.90 0.0 0 0 196.68 90.15 L 195.50 88.48"/>
    <path stroke="#ab9b89" vector-effect="non-scaling-stroke" d=" M 195.50 88.48 Q 194.65 86.87 193.68 86.10 Q 193.27 85.78 192.84 86.06 Q 189.86 87.98 186.60 88.95 Q 167.27 94.71 144.31 91.12 Q 135.33 89.71 129.20 86.15 Q 128.75 85.89 128.35 86.23 Q 126.89 87.46 125.91 89.37"/>
    <path stroke="#b0f0f2" vector-effect="non-scaling-stroke" d=" M 195.50 88.48 Q 194.12 91.22 191.44 92.45 Q 182.03 96.76 169.94 97.85 Q 153.27 99.34 137.22 94.94 C 134.22 94.12 131.91 93.30 129.31 91.45 Q 127.67 90.28 125.91 89.37"/>
    <path stroke="#5e847e" vector-effect="non-scaling-stroke" d=" M 190.45 115.72 L 190.05 108.32 Q 190.03 107.95 189.68 108.08 Q 176.87 112.87 162.09 112.92"/>
    <path stroke="#ab9b89" vector-effect="non-scaling-stroke" d=" M 162.09 112.92 L 159.73 113.05"/>
    <path stroke="#5f8d85" vector-effect="non-scaling-stroke" d=" M 159.73 113.05 Q 147.45 112.33 141.75 111.00 Q 136.96 109.88 132.65 107.86 A 0.39 0.38 11.5 0 0 132.10 108.22 L 132.34 116.42"/>
    <path stroke="#ab9b89" vector-effect="non-scaling-stroke" d=" M 132.34 116.42 Q 126.57 105.19 113.98 106.35 Q 109.43 106.78 104.99 108.43 Q 104.51 108.60 104.60 109.11 Q 104.94 110.96 106.23 112.54"/>
    <path stroke="#5f8d85" vector-effect="non-scaling-stroke" d=" M 106.23 112.54 Q 106.33 113.32 106.73 113.81"/>
    <path stroke="#46726e" vector-effect="non-scaling-stroke" d=" M 106.73 113.81 Q 110.80 125.17 123.27 125.56 Q 128.80 125.74 134.44 124.12"/>
    <path stroke="#5f8d85" vector-effect="non-scaling-stroke" d=" M 134.44 124.12 L 140.21 137.48"/>
    <path stroke="#ab9b89" vector-effect="non-scaling-stroke" d=" M 140.21 137.48 L 142.60 143.80 Q 142.78 144.27 142.62 144.75 Q 142.13 146.18 141.72 147.55 Q 140.52 151.48 141.48 155.45"/>
    <path stroke="#5e847e" vector-effect="non-scaling-stroke" d=" M 141.48 155.45 Q 146.00 168.26 158.98 169.25 Q 175.15 170.49 181.01 155.28"/>
    <path stroke="#ab9b89" vector-effect="non-scaling-stroke" d=" M 181.01 155.28 Q 182.37 149.87 179.93 145.28 A 1.82 1.82 0.0 0 1 179.82 143.79 L 181.89 138.11"/>
    <path stroke="#5e847e" vector-effect="non-scaling-stroke" d=" M 181.89 138.11 L 188.09 124.77"/>
    <path stroke="#4c7b76" vector-effect="non-scaling-stroke" d=" M 188.09 124.77 C 197.42 126.06 206.13 127.01 212.72 119.22 Q 214.73 116.85 216.68 111.52"/>
    <path stroke="#ab9b89" vector-effect="non-scaling-stroke" d=" M 216.68 111.52 L 217.85 108.88 A 0.51 0.51 0.0 0 0 217.53 108.18 C 206.73 104.94 196.60 104.32 190.45 115.72"/>
    <path stroke="#9ddee3" vector-effect="non-scaling-stroke" d=" M 216.68 111.52 Q 215.16 112.74 213.72 113.21 Q 213.20 113.38 212.68 113.21 Q 207.86 111.62 201.56 112.36 Q 198.09 112.77 195.44 113.76 C 191.51 115.23 190.09 119.62 187.86 123.01"/>
    <path stroke="#afe8ea" vector-effect="non-scaling-stroke" d=" M 187.86 123.01 Q 188.30 119.20 190.45 115.72"/>
    <path stroke="#4fc8d8" vector-effect="non-scaling-stroke" d=" M 187.86 123.01 L 188.09 124.77"/>
    <path stroke="#afe8ea" vector-effect="non-scaling-stroke" d=" M 181.89 138.11 C 179.45 137.37 178.31 135.34 175.75 134.58 Q 171.17 133.20 166.41 132.34 A 2.57 2.56 1.6 0 1 164.33 130.15 L 162.09 112.92"/>
    <path stroke="#afe8ea" vector-effect="non-scaling-stroke" d=" M 181.01 155.28 Q 174.47 154.70 171.49 160.14 Q 171.25 160.59 170.76 160.73 Q 169.58 161.06 168.30 161.08 Q 160.19 161.18 152.33 161.00 A 1.90 1.89 -13.4 0 1 150.72 160.02 Q 148.02 155.05 141.48 155.45"/>
    <path stroke="#b0f0f2" vector-effect="non-scaling-stroke" d=" M 159.73 113.05 Q 159.55 122.23 157.49 131.36 A 1.13 1.12 -86.4 0 1 156.51 132.23 Q 151.55 132.72 145.85 135.16 Q 144.21 135.87 142.88 137.03 A 1.30 1.30 0.0 0 1 142.11 137.35 L 140.21 137.48"/>
    <path stroke="#4bc7d7" vector-effect="non-scaling-stroke" d=" M 134.44 124.12 L 133.53 122.22"/>
    <path stroke="#b0f0f2" vector-effect="non-scaling-stroke" d=" M 132.34 116.42 Q 135.92 119.98 133.53 122.22"/>
    <path stroke="#97d5da" vector-effect="non-scaling-stroke" d=" M 133.53 122.22 Q 131.33 116.96 127.72 114.18"/>
    <path stroke="#b0f0f2" vector-effect="non-scaling-stroke" d=" M 127.72 114.18 Q 121.49 111.83 115.60 112.40 C 112.56 112.69 109.15 113.71 106.23 112.54"/>
    <path stroke="#4bc7d7" vector-effect="non-scaling-stroke" d=" M 127.72 114.18 Q 126.19 114.08 126.25 116.01 Q 126.30 118.00 126.18 119.95 Q 126.15 120.47 125.65 120.59 C 121.62 121.55 117.84 120.60 114.39 117.99 Q 111.49 115.80 107.51 113.42 Q 107.41 113.36 107.30 113.40 Q 107.07 113.50 106.73 113.81"/>
    <path stroke="#ab9b89" vector-effect="non-scaling-stroke" d=" M 133.11 178.94 L 133.05 204.55"/>
    <path stroke="#5f8d85" vector-effect="non-scaling-stroke" d=" M 133.05 204.55 L 133.05 208.48"/>
    <path stroke="#5e847e" vector-effect="non-scaling-stroke" d=" M 133.05 208.48 L 132.99 261.77 Q 132.99 262.30 133.45 262.54 Q 147.59 269.89 160.85 278.24 Q 161.33 278.54 161.81 278.24 Q 174.49 270.37 188.39 262.95 A 1.74 1.73 -14.1 0 0 189.31 261.42 L 189.41 206.68"/>
    <path stroke="#5f8d85" vector-effect="non-scaling-stroke" d=" M 189.41 206.68 L 189.42 204.49"/>
    <path stroke="#ab9b89" vector-effect="non-scaling-stroke" d=" M 189.42 204.49 L 189.39 180.07 Q 189.39 179.55 188.91 179.34 L 188.07 178.98"/>
    <path stroke="#5e847e" vector-effect="non-scaling-stroke" d=" M 188.07 178.98 L 180.19 174.87 Q 179.70 174.61 179.22 174.91 Q 172.62 178.98 165.28 180.02 Q 164.65 180.11 164.92 180.68 L 174.59 200.94"/>
    <path stroke="#ab9b89" vector-effect="non-scaling-stroke" d=" M 174.59 200.94 Q 174.32 201.46 174.01 201.61 Q 173.73 201.75 173.32 201.41 Q 169.84 198.46 165.90 196.69 C 164.36 196.00 162.97 194.83 161.50 193.96 Q 161.03 193.68 160.58 194.00 Q 157.30 196.35 153.68 198.07 C 151.81 198.97 150.30 200.33 148.71 201.63 A 0.64 0.64 0.0 0 1 147.68 201.30 Q 147.65 201.18 147.63 201.01"/>
    <path stroke="#5e847e" vector-effect="non-scaling-stroke" d=" M 147.63 201.01 L 157.46 180.82 Q 157.72 180.29 157.14 180.21 Q 150.19 179.15 143.21 174.66 Q 142.75 174.36 142.26 174.59 L 133.11 178.94"/>
    <path stroke="#afe8ea" vector-effect="non-scaling-stroke" d=" M 147.63 201.01 Q 142.82 193.95 141.68 191.80 Q 138.24 185.33 133.11 178.94"/>
    <path stroke="#b0f0f2" vector-effect="non-scaling-stroke" d=" M 189.42 204.49 L 168.08 209.10"/>
    <path stroke="#ab9b89" vector-effect="non-scaling-stroke" d=" M 168.08 209.10 Q 161.52 199.48 153.90 208.82"/>
    <path stroke="#b0f0f2" vector-effect="non-scaling-stroke" d=" M 153.90 208.82 L 133.05 204.55"/>
    <path stroke="#afe8ea" vector-effect="non-scaling-stroke" d=" M 188.07 178.98 Q 188.21 179.38 188.21 179.60 Q 188.21 179.70 187.94 180.10 Q 181.10 190.18 174.59 200.94"/>
    <path stroke="#63dae7" vector-effect="non-scaling-stroke" d=" M 189.41 206.68 Q 187.34 208.19 185.99 210.60 Q 184.04 214.09 183.25 214.87 Q 180.49 217.63 176.76 219.71 Q 170.97 222.94 166.15 223.54 C 159.94 224.32 153.95 224.06 148.39 221.35 C 144.56 219.48 140.66 217.46 138.67 214.58 Q 135.73 210.32 133.05 208.48"/>
    <path stroke="#5f8d85" vector-effect="non-scaling-stroke" d=" M 168.08 209.10 Q 169.26 217.76 162.00 218.43 Q 152.64 219.29 153.90 208.82"/>
    <path stroke="#5f8d85" vector-effect="non-scaling-stroke" d=" M 240.49 151.76 C 239.78 153.66 239.22 155.21 237.79 156.75 C 236.41 158.24 234.62 158.72 232.86 159.57 Q 230.47 160.72 233.00 161.49 Q 239.05 163.33 240.32 169.97 A 0.58 0.57 78.4 0 0 241.01 170.43 Q 241.57 170.31 241.71 169.75 C 242.42 166.90 244.22 163.69 246.99 162.48 Q 248.23 161.94 249.43 161.27 Q 251.76 159.98 249.15 159.46 Q 243.02 158.22 241.61 151.84 Q 241.18 149.89 240.49 151.76"/>
    <path stroke="#5f8d85" vector-effect="non-scaling-stroke" d=" M 148.0188 127.6098 A 4.53 4.37 79.2 0 0 151.4626 122.3411 A 4.53 4.37 79.2 0 0 146.3212 118.7102 A 4.53 4.37 79.2 0 0 142.8774 123.9789 A 4.53 4.37 79.2 0 0 148.0188 127.6098"/>
    <path stroke="#5e847e" vector-effect="non-scaling-stroke" d=" M 174.2932 127.6623 A 4.55 4.35 98.3 0 0 179.2544 123.7879 A 4.55 4.35 98.3 0 0 175.6068 118.6577 A 4.55 4.35 98.3 0 0 170.6456 122.5321 A 4.55 4.35 98.3 0 0 174.2932 127.6623"/>
    <path stroke="#ab9b89" vector-effect="non-scaling-stroke" d=" M 156.01 152.78 A 2.98 2.98 0.0 0 0 153.03 149.80 A 2.98 2.98 0.0 0 0 150.05 152.78 A 2.98 2.98 0.0 0 0 153.03 155.76 A 2.98 2.98 0.0 0 0 156.01 152.78"/>
    <path stroke="#ab9b89" vector-effect="non-scaling-stroke" d=" M 172.19 152.83 A 3.01 3.01 0.0 0 0 169.18 149.82 A 3.01 3.01 0.0 0 0 166.17 152.83 A 3.01 3.01 0.0 0 0 169.18 155.84 A 3.01 3.01 0.0 0 0 172.19 152.83"/>
    <path stroke="#5e847e" vector-effect="non-scaling-stroke" d=" M 168.4286 236.4291 A 7.34 6.95 -1.1 0 0 160.9566 229.6213 A 7.34 6.95 -1.1 0 0 153.7514 236.7109 A 7.34 6.95 -1.1 0 0 161.2234 243.5187 A 7.34 6.95 -1.1 0 0 168.4286 236.4291"/>
    <path stroke="#5e847e" vector-effect="non-scaling-stroke" d=" M 168.4168 259.7886 A 7.37 7.01 1.7 0 0 161.2580 252.5631 A 7.37 7.01 1.7 0 0 153.6832 259.3514 A 7.37 7.01 1.7 0 0 160.8420 266.5769 A 7.37 7.01 1.7 0 0 168.4168 259.7886"/>
  </g>
  <path fill="#5a371c" d="M -15.985 36.705 L -17.312 36.705 C -17.586 36.61 -17.851 36.567 -18.101 36.416 C -19.336 35.671 -20.572 34.929 -21.809 34.187 C -22.395 33.837 -23.013 33.552 -23.6 33.199 C -24.383 32.72 -25.168 32.259 -25.951 31.811 C -26.247 31.64 -26.537 31.462 -26.816 31.277 C -27.215 31.006 -27.65 30.85 -28.046 30.616 C -29.947 29.499 -31.84 28.41 -33.724 27.349 C -34.041 27.169 -34.373 26.862 -34.722 26.426 C -35.307 25.695 -35.461 24.768 -35.461 23.831 C -35.46 17.644 -35.453 11.503 -35.447 5.413 C -35.444 4.965 -35.323 4.536 -35.221 4.093 C -35.092 3.532 -34.571 2.907 -34.14 2.633 C -32.938 1.869 -31.689 1.122 -30.393 0.387 C -29.937 0.132 -29.526 -0.157 -29.07 -0.376 C -28.881 -0.469 -28.694 -0.57 -28.512 -0.681 C -25.743 -2.342 -22.685 -4.051 -20.029 -5.652 C -19.701 -5.85 -19.367 -6.033 -19.025 -6.207 C -18.559 -6.442 -18.125 -6.777 -17.625 -6.933 C -16.644 -7.239 -15.691 -7.077 -14.835 -6.522 C -14.386 -6.228 -13.874 -6.033 -13.421 -5.757 C -12.346 -5.098 -11.293 -4.471 -10.261 -3.878 C -10.037 -3.748 -9.821 -3.615 -9.609 -3.48 C -9.277 -3.269 -8.927 -3.121 -8.588 -2.92 C -7.047 -2.003 -5.639 -1.181 -4.36 -0.453 C -3.07 0.284 -1.76 1.042 -0.429 1.834 C -0.217 1.96 -0.015 2.075 0.171 2.182 C 0.826 2.554 1.312 3.017 1.622 3.571 C 1.92 4.104 2.078 4.888 2.08 5.531 C 2.089 11.793 2.09 17.96 2.084 24.035 C 2.083 24.487 1.994 24.978 1.818 25.512 C 1.697 25.883 1.539 26.192 1.346 26.434 C 0.742 27.188 -0.026 27.688 -0.905 28.072 C -1.029 28.123 -1.104 28.216 -1.215 28.283 C -2.469 29.014 -3.735 29.759 -5.015 30.511 C -5.315 30.69 -5.653 30.867 -6.025 31.048 C -6.469 31.261 -6.876 31.569 -7.307 31.819 C -8.302 32.396 -9.259 32.965 -10.169 33.526 C -10.426 33.684 -10.776 33.818 -11.069 33.988 C -12.166 34.641 -13.251 35.288 -14.328 35.936 C -14.639 36.124 -14.953 36.302 -15.269 36.471 C -15.487 36.585 -15.746 36.616 -15.985 36.705 Z M -2.755 2.638 C -3.001 2.515 -3.226 2.392 -3.429 2.274 C -4.367 1.732 -5.269 1.208 -6.135 0.703 C -6.668 0.393 -7.153 0.036 -7.72 -0.237 C -8.153 -0.444 -8.564 -0.669 -8.949 -0.905 C -9.896 -1.478 -10.853 -2.052 -11.82 -2.616 C -12.299 -2.897 -12.79 -3.178 -13.299 -3.462 C -14.034 -3.876 -14.822 -4.34 -15.66 -4.857 C -16.714 -5.51 -17.658 -4.917 -18.554 -4.33 C -19.018 -4.026 -19.521 -3.732 -20.062 -3.441 C -21.7 -2.569 -23.257 -1.602 -24.906 -0.614 C -25.195 -0.44 -25.678 -0.23 -26.059 0.001 C -27.222 0.697 -28.36 1.372 -29.476 2.026 C -30.21 2.457 -30.961 2.833 -31.719 3.264 C -32.822 3.889 -33.623 4.44 -33.623 5.727 C -33.62 11.451 -33.623 17.448 -33.624 23.716 C -33.624 24.058 -33.588 24.383 -33.518 24.689 C -33.37 25.301 -32.636 25.799 -32.084 26.118 C -31.476 26.468 -30.868 26.83 -30.253 27.202 C -29.649 27.567 -28.998 27.927 -28.304 28.287 C -27.333 28.787 -26.409 29.426 -25.454 29.97 C -24.324 30.614 -23.152 31.285 -21.938 31.982 C -20.917 32.571 -19.936 33.241 -18.909 33.748 C -18.277 34.062 -17.753 34.528 -17.1 34.758 C -16.147 35.091 -15.342 34.253 -14.533 33.852 C -13.901 33.534 -13.139 33.099 -12.244 32.544 C -11.229 31.909 -9.808 31.083 -7.978 30.064 C -7.062 29.552 -6.152 28.925 -5.186 28.412 C -4.495 28.049 -3.855 27.691 -3.269 27.342 C -2.671 26.987 -2.041 26.621 -1.373 26.244 C -0.597 25.81 0.171 25.155 0.173 24.242 C 0.185 18.224 0.194 12.153 0.196 6.033 C 0.197 5.105 0.072 4.461 -0.654 3.912 C -1.202 3.499 -1.902 3.075 -2.755 2.638 Z" style="" transform="matrix(1, 0, 0, 1, 0, 1.4210854715202004e-14)"/>
  <path fill="#fcfef5" d="M -2.755 2.638 C -1.902 3.075 -1.202 3.499 -0.654 3.912 C 0.072 4.461 0.197 5.105 0.196 6.033 C 0.194 12.153 0.185 18.224 0.173 24.242 C 0.171 25.155 -0.597 25.81 -1.373 26.244 C -2.041 26.621 -2.671 26.987 -3.269 27.342 C -3.855 27.691 -4.495 28.049 -5.186 28.412 C -6.152 28.925 -7.062 29.552 -7.978 30.064 C -9.808 31.083 -11.229 31.909 -12.244 32.544 C -13.139 33.099 -13.901 33.534 -14.533 33.852 C -15.342 34.253 -16.147 35.091 -17.1 34.758 C -17.753 34.528 -18.277 34.062 -18.909 33.748 C -19.936 33.241 -20.917 32.571 -21.938 31.982 C -23.152 31.285 -24.324 30.614 -25.454 29.97 C -26.409 29.426 -27.333 28.787 -28.304 28.287 C -28.998 27.927 -29.649 27.567 -30.253 27.202 C -30.868 26.83 -31.476 26.468 -32.084 26.118 C -32.636 25.799 -33.37 25.301 -33.518 24.689 C -33.588 24.383 -33.624 24.058 -33.624 23.716 C -33.623 17.448 -33.62 11.451 -33.623 5.727 C -33.623 4.44 -32.822 3.889 -31.719 3.264 C -30.961 2.833 -30.21 2.457 -29.476 2.026 C -28.36 1.372 -27.222 0.697 -26.059 0.001 C -25.678 -0.23 -25.195 -0.44 -24.906 -0.614 C -23.257 -1.602 -21.7 -2.569 -20.062 -3.441 C -19.521 -3.732 -19.018 -4.026 -18.554 -4.33 C -17.658 -4.917 -16.714 -5.51 -15.66 -4.857 C -14.822 -4.34 -14.034 -3.876 -13.299 -3.462 C -12.79 -3.178 -12.299 -2.897 -11.82 -2.616 C -10.853 -2.052 -9.896 -1.478 -8.949 -0.905 C -8.564 -0.669 -8.153 -0.444 -7.72 -0.237 C -7.153 0.036 -6.668 0.393 -6.135 0.703 C -5.269 1.208 -4.367 1.732 -3.429 2.274 C -3.226 2.392 -3.001 2.515 -2.755 2.638 Z M -31.491 7.809 L -31.465 23.9 C -31.465 23.945 -31.446 23.98 -31.405 24.004 L -29.512 25.057 L -28.171 25.81 C -28.147 25.824 -28.116 25.814 -28.105 25.79 C -27.569 24.581 -27.087 23.356 -26.659 22.107 C -26.361 21.233 -26.033 20.35 -25.676 19.463 C -25.267 18.44 -24.374 17.598 -23.177 17.681 C -22.881 17.701 -22.589 17.713 -22.3 17.719 C -22.249 17.722 -22.223 17.746 -22.223 17.798 L -22.216 20.035 C -22.718 19.888 -23.582 19.727 -23.996 20.134 C -24.26 20.387 -24.467 20.687 -24.618 21.024 C -25.069 22.034 -25.502 23.065 -25.915 24.118 C -26.066 24.502 -26.233 24.883 -26.413 25.26 C -26.587 25.62 -26.721 26.018 -26.819 26.45 C -26.829 26.488 -26.821 26.522 -26.797 26.553 C -26.687 26.698 -26.542 26.794 -26.36 26.843 L -25.161 27.547 L -16.809 32.383 C -16.75 32.417 -16.678 32.418 -16.619 32.385 L -8.225 27.583 L -7.042 26.898 C -6.864 26.837 -6.694 26.721 -6.528 26.548 C -6.492 26.507 -6.486 26.465 -6.507 26.416 C -6.729 25.946 -6.858 25.45 -7.066 24.977 C -7.651 23.653 -8.227 22.305 -8.796 20.939 C -8.875 20.754 -9.054 20.62 -9.165 20.447 C -9.442 20.019 -9.88 19.845 -10.476 19.919 C -10.756 19.954 -10.993 20.01 -11.184 20.088 L -11.183 17.749 C -11.183 17.713 -11.152 17.686 -11.116 17.686 C -10.803 17.683 -10.489 17.681 -10.174 17.676 C -8.881 17.653 -8.098 18.494 -7.666 19.635 C -7.355 20.459 -7.05 21.278 -6.754 22.091 C -6.359 23.167 -5.864 24.387 -5.264 25.764 C -5.243 25.813 -5.177 25.834 -5.125 25.807 L -3.873 25.088 L -2.028 24.035 C -1.973 24.004 -1.94 23.945 -1.94 23.882 L -1.94 5.773 C -1.94 5.731 -1.954 5.698 -1.985 5.67 C -2.084 5.581 -2.206 5.513 -2.354 5.475 L -16.557 -2.812 C -16.652 -2.869 -16.776 -2.868 -16.872 -2.81 C -17.967 -2.134 -19.029 -1.46 -20.142 -0.847 C -21.03 -0.358 -21.91 0.133 -22.781 0.627 C -23.636 1.11 -24.45 1.689 -25.301 2.141 C -25.933 2.475 -26.561 2.835 -27.188 3.226 C -28.076 3.772 -28.952 4.216 -29.862 4.798 C -30.306 5.079 -30.793 5.337 -31.329 5.565 C -31.441 5.612 -31.51 5.72 -31.51 5.841 L -31.491 7.809 Z" style="" transform="matrix(1, 0, 0, 1, 0, 1.4210854715202004e-14)"/>
  <path fill="#64e2ee" d="M -2.354 5.475 C -2.513 5.512 -2.705 5.404 -2.86 5.518 C -2.892 5.542 -2.93 5.559 -2.973 5.57 L -3.46 5.684 C -3.501 5.693 -3.539 5.689 -3.579 5.671 L -3.925 5.523 C -3.989 5.497 -4.035 5.517 -4.06 5.584 C -4.097 5.682 -4.108 5.784 -4.093 5.898 C -4.092 5.903 -4.087 5.909 -4.083 5.911 C -4.054 5.932 -4.022 5.935 -3.989 5.921 C -3.912 5.885 -3.893 5.906 -3.933 5.983 C -3.938 5.996 -3.941 6.009 -3.938 6.022 C -3.927 6.066 -3.902 6.094 -3.854 6.107 C -3.776 6.128 -3.741 6.179 -3.749 6.261 C -4.664 5.689 -5.677 5.19 -6.536 4.653 C -7.95 3.773 -9.461 2.878 -11.069 1.971 C -11.853 1.531 -12.602 0.994 -13.41 0.546 C -14.381 0.011 -15.33 -0.522 -16.257 -1.053 C -16.468 -1.176 -16.674 -1.337 -16.912 -1.19 C -17.751 -0.674 -18.603 -0.176 -19.462 0.3 C -20.08 0.641 -20.637 0.962 -21.139 1.265 C -22.154 1.881 -23.2 2.431 -24.166 3.038 C -25.048 3.589 -25.952 4.109 -26.814 4.642 C -27.778 5.242 -28.846 5.721 -29.793 6.345 C -29.846 6.379 -29.854 6.454 -29.814 6.501 C -29.311 7.084 -28.773 7.631 -28.195 8.144 C -27.546 8.724 -26.977 9.356 -26.396 9.994 C -25.799 10.652 -25.119 11.212 -24.499 11.864 C -23.275 13.147 -22.017 14.404 -20.722 15.637 C -20.962 15.806 -21.188 15.947 -21.398 16.058 C -21.586 16.154 -21.777 16.197 -21.974 16.183 C -22.866 16.122 -23.543 16.129 -24.008 16.199 C -24.952 16.347 -25.748 16.778 -26.401 17.493 C -26.592 17.705 -26.715 18 -26.87 18.255 C -27.206 18.187 -27.538 18.107 -27.866 18.015 C -28.062 17.96 -28.367 17.965 -28.786 18.022 C -29.099 18.067 -29.384 17.997 -29.692 17.987 C -29.779 17.982 -29.851 17.911 -29.851 17.822 L -29.861 7.94 C -29.861 7.87 -29.887 7.858 -29.941 7.901 L -30.031 7.978 C -30.07 8.009 -30.107 8.009 -30.145 7.975 C -30.212 7.92 -30.281 7.919 -30.354 7.974 C -30.389 8.004 -30.426 8.003 -30.464 7.973 C -30.846 7.655 -31.189 7.6 -31.491 7.809 L -31.51 5.841 C -31.51 5.72 -31.441 5.612 -31.329 5.565 C -30.793 5.337 -30.306 5.079 -29.862 4.798 C -28.952 4.216 -28.076 3.772 -27.188 3.226 C -26.561 2.835 -25.933 2.475 -25.301 2.141 C -24.45 1.689 -23.636 1.11 -22.781 0.627 C -21.91 0.133 -21.03 -0.358 -20.142 -0.847 C -19.029 -1.46 -17.967 -2.134 -16.872 -2.81 C -16.776 -2.868 -16.652 -2.869 -16.557 -2.812 L -2.354 5.475 Z M -26.493 14.388 C -27.074 14.246 -27.492 13.881 -27.575 13.287 C -27.577 13.251 -27.598 13.231 -27.633 13.224 C -27.674 13.217 -27.713 13.245 -27.722 13.287 C -27.843 13.865 -28.215 14.23 -28.834 14.377 C -28.912 14.397 -28.962 14.446 -28.974 14.524 C -28.982 14.577 -28.951 14.629 -28.896 14.639 C -28.179 14.789 -27.92 15.127 -27.739 15.806 C -27.724 15.861 -27.665 15.882 -27.62 15.854 C -27.581 15.831 -27.558 15.796 -27.55 15.752 C -27.443 15.111 -27.028 14.811 -26.475 14.569 C -26.409 14.541 -26.398 14.449 -26.457 14.404 C -26.47 14.396 -26.48 14.392 -26.493 14.388 Z" style="" transform="matrix(1, 0, 0, 1, 0, 1.4210854715202004e-14)"/>
  <path fill="#c9fffe" d="M -3.749 6.261 C -3.66 6.3 -3.598 6.355 -3.565 6.424 C -3.544 6.464 -3.544 6.509 -3.567 6.548 C -3.602 6.614 -3.649 6.671 -3.713 6.718 C -4.458 7.46 -5.212 8.189 -5.968 8.905 C -6.202 9.127 -6.419 9.352 -6.619 9.577 C -7.263 10.313 -7.982 10.961 -8.682 11.641 C -8.755 11.711 -9.162 12.139 -9.902 12.923 C -10.295 13.341 -10.719 13.752 -11.176 14.158 C -11.669 14.593 -12.148 15.113 -12.61 15.716 L -13.101 15.442 C -13.148 15.415 -13.157 15.376 -13.132 15.33 C -12.935 14.984 -12.718 14.637 -12.61 14.252 C -12.451 13.692 -12.431 13.094 -12.556 12.46 C -12.627 12.074 -12.408 11.575 -12.325 11.208 C -12.313 11.154 -12.257 11.117 -12.198 11.127 C -11.561 11.237 -10.921 11.208 -10.276 11.04 C -9.188 10.753 -8.329 9.784 -7.902 8.766 C -7.658 8.182 -7.444 7.6 -7.264 7.016 C -7.236 6.921 -7.273 6.817 -7.358 6.762 C -8.206 6.217 -9.083 5.89 -9.992 5.784 C -10.161 5.765 -10.331 5.741 -10.502 5.713 C -10.567 5.703 -10.587 5.669 -10.566 5.608 C -10.273 4.84 -11.011 3.636 -11.476 3.033 C -11.696 2.75 -12.017 2.816 -12.282 2.981 C -12.613 3.186 -12.953 3.354 -13.307 3.478 C -13.367 3.498 -13.405 3.478 -13.419 3.413 C -13.547 2.841 -13.93 1.716 -14.483 1.389 C -15.204 0.964 -15.935 0.913 -16.675 1.233 C -16.721 1.254 -16.768 1.254 -16.813 1.233 C -17.751 0.823 -18.963 1.05 -19.468 2.02 C -19.716 2.493 -19.895 2.976 -20.004 3.468 C -20.011 3.494 -20.042 3.509 -20.067 3.498 C -20.469 3.319 -20.895 3.112 -21.347 2.878 C -21.533 2.784 -21.737 2.841 -21.87 2.99 C -22.344 3.514 -23.202 4.864 -22.866 5.601 C -22.828 5.681 -22.854 5.721 -22.942 5.727 C -23.92 5.783 -25.208 6.139 -26.054 6.781 C -26.136 6.844 -26.171 6.955 -26.138 7.054 C -25.914 7.753 -25.668 8.401 -25.404 8.997 C -25.026 9.855 -24.142 10.753 -23.195 11.01 C -22.487 11.199 -21.91 11.228 -21.229 11.13 C -21.162 11.119 -21.122 11.145 -21.11 11.212 C -21.064 11.462 -20.987 11.712 -20.881 11.966 C -20.825 12.101 -20.813 12.232 -20.839 12.36 C -21.066 13.424 -20.91 14.397 -20.282 15.299 C -20.244 15.35 -20.254 15.392 -20.311 15.423 L -20.722 15.637 C -22.017 14.404 -23.275 13.147 -24.499 11.864 C -25.119 11.212 -25.799 10.652 -26.396 9.994 C -26.977 9.356 -27.546 8.724 -28.195 8.144 C -28.773 7.631 -29.311 7.084 -29.814 6.501 C -29.854 6.454 -29.846 6.379 -29.793 6.345 C -28.846 5.721 -27.778 5.242 -26.814 4.642 C -25.952 4.109 -25.048 3.589 -24.166 3.038 C -23.2 2.431 -22.154 1.881 -21.139 1.265 C -20.637 0.962 -20.08 0.641 -19.462 0.3 C -18.603 -0.176 -17.751 -0.674 -16.912 -1.19 C -16.674 -1.337 -16.468 -1.176 -16.257 -1.053 C -15.33 -0.522 -14.381 0.011 -13.41 0.546 C -12.602 0.994 -11.853 1.531 -11.069 1.971 C -9.461 2.878 -7.95 3.773 -6.536 4.653 C -5.677 5.19 -4.664 5.689 -3.749 6.261 Z" style="" transform="matrix(1, 0, 0, 1, 0, 1.4210854715202004e-14)"/>
  <path fill="#5a371c" d="M -12.61 15.716 C -12.416 15.868 -12.23 15.989 -12.045 16.081 C -11.862 16.173 -11.675 16.212 -11.485 16.199 C -10.761 16.144 -10.119 16.141 -9.561 16.185 C -8.66 16.258 -7.396 16.798 -6.884 17.652 C -6.239 18.718 -5.854 19.906 -5.425 21.073 L -3.873 25.088 L -5.125 25.807 C -5.177 25.834 -5.243 25.813 -5.264 25.764 C -5.864 24.387 -6.359 23.167 -6.754 22.091 C -7.05 21.278 -7.355 20.459 -7.666 19.635 C -8.098 18.494 -8.881 17.653 -10.174 17.676 C -10.489 17.681 -10.803 17.683 -11.116 17.686 C -11.152 17.686 -11.183 17.713 -11.183 17.749 L -11.184 20.088 L -11.195 27.431 C -11.195 27.523 -11.152 27.547 -11.072 27.501 L -10.286 27.053 C -10.202 27.006 -10.161 26.936 -10.157 26.843 C -10.13 26.112 -10.085 25.393 -10.028 24.689 C -10.015 24.524 -9.98 24.324 -9.921 24.088 L -8.225 27.583 L -16.619 32.385 C -16.678 32.418 -16.75 32.417 -16.809 32.383 L -25.161 27.547 L -23.486 24.195 L -23.166 26.867 C -23.158 26.936 -23.117 26.995 -23.061 27.029 L -22.268 27.499 C -22.25 27.51 -22.23 27.498 -22.229 27.479 L -22.216 20.035 L -22.223 17.798 C -22.223 17.746 -22.249 17.722 -22.3 17.719 C -22.589 17.713 -22.881 17.701 -23.177 17.681 C -24.374 17.598 -25.267 18.44 -25.676 19.463 C -26.033 20.35 -26.361 21.233 -26.659 22.107 C -27.087 23.356 -27.569 24.581 -28.105 25.79 C -28.116 25.814 -28.147 25.824 -28.171 25.81 L -29.512 25.057 L -26.87 18.255 C -26.715 18 -26.592 17.705 -26.401 17.493 C -25.748 16.778 -24.952 16.347 -24.008 16.199 C -23.543 16.129 -22.866 16.122 -21.974 16.183 C -21.777 16.197 -21.586 16.154 -21.398 16.058 C -21.188 15.947 -20.962 15.806 -20.722 15.637 L -20.311 15.423 C -20.254 15.392 -20.244 15.35 -20.282 15.299 C -20.91 14.397 -21.066 13.424 -20.839 12.36 C -20.813 12.232 -20.825 12.101 -20.881 11.966 C -20.987 11.712 -21.064 11.462 -21.11 11.212 C -21.122 11.145 -21.162 11.119 -21.229 11.13 C -21.91 11.228 -22.487 11.199 -23.195 11.01 C -24.142 10.753 -25.026 9.855 -25.404 8.997 C -25.668 8.401 -25.914 7.753 -26.138 7.054 C -26.171 6.955 -26.136 6.844 -26.054 6.781 C -25.208 6.139 -23.92 5.783 -22.942 5.727 C -22.854 5.721 -22.828 5.681 -22.866 5.601 C -23.202 4.864 -22.344 3.514 -21.87 2.99 C -21.737 2.841 -21.533 2.784 -21.347 2.878 C -20.895 3.112 -20.469 3.319 -20.067 3.498 C -20.042 3.509 -20.011 3.494 -20.004 3.468 C -19.895 2.976 -19.716 2.493 -19.468 2.02 C -18.963 1.05 -17.751 0.823 -16.813 1.233 C -16.768 1.254 -16.721 1.254 -16.675 1.233 C -15.935 0.913 -15.204 0.964 -14.483 1.389 C -13.93 1.716 -13.547 2.841 -13.419 3.413 C -13.405 3.478 -13.367 3.498 -13.307 3.478 C -12.953 3.354 -12.613 3.186 -12.282 2.981 C -12.017 2.816 -11.696 2.75 -11.476 3.033 C -11.011 3.636 -10.273 4.84 -10.566 5.608 C -10.587 5.669 -10.567 5.703 -10.502 5.713 C -10.331 5.741 -10.161 5.765 -9.992 5.784 C -9.083 5.89 -8.206 6.217 -7.358 6.762 C -7.273 6.817 -7.236 6.921 -7.264 7.016 C -7.444 7.6 -7.658 8.182 -7.902 8.766 C -8.329 9.784 -9.188 10.753 -10.276 11.04 C -10.921 11.208 -11.561 11.237 -12.198 11.127 C -12.257 11.117 -12.313 11.154 -12.325 11.208 C -12.408 11.575 -12.627 12.074 -12.556 12.46 C -12.431 13.094 -12.451 13.692 -12.61 14.252 C -12.718 14.637 -12.935 14.984 -13.132 15.33 C -13.157 15.376 -13.148 15.415 -13.101 15.442 L -12.61 15.716 Z M -18.252 2.49 L -18.519 3.488 C -18.535 3.552 -18.512 3.593 -18.447 3.609 C -17.297 3.909 -16.123 3.912 -14.924 3.623 C -14.889 3.613 -14.874 3.59 -14.883 3.555 L -15.118 2.551 C -15.198 2.419 -15.309 2.331 -15.458 2.289 C -16.269 2.055 -17.124 2.059 -18.018 2.297 C -18.121 2.324 -18.199 2.39 -18.252 2.49 Z M -21.516 4.801 C -21.682 4.998 -21.658 5.191 -21.44 5.378 C -21.266 5.527 -21.081 5.675 -20.89 5.817 C -20.686 5.973 -20.213 6.135 -19.476 6.3 C -17.579 6.727 -15.649 6.717 -13.685 6.265 C -12.989 6.103 -12.387 5.764 -11.877 5.242 C -11.788 5.152 -11.776 5.012 -11.853 4.909 L -12.014 4.681 C -12.092 4.536 -12.172 4.427 -12.262 4.357 C -12.299 4.326 -12.336 4.326 -12.376 4.35 C -12.647 4.525 -12.93 4.656 -13.227 4.746 C -14.987 5.269 -16.912 5.369 -19.001 5.041 C -19.82 4.914 -20.507 4.685 -21.066 4.364 C -21.107 4.34 -21.144 4.342 -21.182 4.374 C -21.314 4.486 -21.425 4.629 -21.516 4.801 Z M -12.702 8.401 L -12.759 7.39 C -12.759 7.357 -12.774 7.346 -12.805 7.357 C -13.976 7.793 -15.231 8.014 -16.575 8.018 L -16.896 8.036 C -18.015 7.971 -18.834 7.876 -19.353 7.757 C -19.789 7.654 -20.201 7.512 -20.596 7.328 C -20.632 7.312 -20.673 7.337 -20.668 7.375 L -20.637 8.495 C -21.162 7.474 -21.998 7.016 -23.143 7.122 C -23.559 7.159 -23.966 7.254 -24.371 7.404 C -24.415 7.421 -24.432 7.45 -24.425 7.499 C -24.394 7.664 -24.319 7.822 -24.202 7.967 C -24.193 8.037 -24.171 8.095 -24.134 8.14 C -23.763 9.174 -23.011 9.711 -21.877 9.745 C -21.372 9.761 -20.863 9.694 -20.351 9.546 L -19.563 11.372 L -19.236 12.234 C -19.22 12.278 -19.218 12.321 -19.232 12.365 C -19.278 12.494 -19.318 12.622 -19.356 12.747 C -19.464 13.106 -19.475 13.464 -19.388 13.825 C -18.977 14.992 -18.181 15.621 -16.999 15.71 C -15.528 15.822 -14.525 15.188 -13.991 13.802 C -13.868 13.311 -13.915 12.854 -14.138 12.437 C -14.174 12.374 -14.178 12.302 -14.153 12.234 L -13.871 11.458 L -13.024 9.637 C -11.75 9.812 -10.56 9.94 -9.663 8.88 C -9.477 8.664 -9.297 8.312 -9.122 7.827 L -8.959 7.466 C -8.944 7.429 -8.964 7.381 -9.005 7.371 C -10.479 6.931 -11.862 6.843 -12.702 8.401 Z M -20.533 17.034 L -20.54 20.53 L -20.54 21.067 L -20.548 28.345 C -20.548 28.392 -20.528 28.426 -20.485 28.449 C -19.197 29.12 -17.95 29.834 -16.744 30.594 C -16.7 30.62 -16.657 30.62 -16.614 30.594 C -15.458 29.877 -14.249 29.182 -12.983 28.505 C -12.907 28.464 -12.857 28.382 -12.857 28.296 L -12.844 20.821 L -12.843 20.521 L -12.847 17.188 C -12.847 17.14 -12.868 17.106 -12.915 17.088 L -13.026 17.038 L -14.102 16.478 C -14.147 16.454 -14.192 16.454 -14.236 16.484 C -14.835 16.854 -15.471 17.084 -16.14 17.182 C -16.196 17.188 -16.214 17.219 -16.188 17.271 L -14.867 20.038 C -14.892 20.083 -14.919 20.116 -14.947 20.128 C -14.972 20.142 -15.003 20.134 -15.043 20.102 C -15.358 19.831 -15.697 19.617 -16.055 19.457 C -16.265 19.363 -16.454 19.202 -16.657 19.087 C -16.697 19.058 -16.741 19.063 -16.783 19.089 C -17.08 19.304 -17.394 19.49 -17.724 19.644 C -17.978 19.768 -18.184 19.954 -18.401 20.134 C -18.45 20.174 -18.528 20.149 -18.543 20.086 C -18.546 20.076 -18.548 20.064 -18.549 20.048 L -17.206 17.289 C -17.186 17.241 -17.197 17.215 -17.251 17.207 C -17.883 17.11 -18.517 16.858 -19.154 16.448 C -19.195 16.422 -19.238 16.419 -19.281 16.438 L -20.533 17.034 Z" style="" transform="matrix(1, 0, 0, 1, 0, 1.4210854715202004e-14)"/>
  <path fill="#fcfef5" d="M -15.118 2.551 C -15.338 2.626 -15.554 2.707 -15.77 2.792 C -16.058 2.907 -16.278 2.971 -16.43 2.993 C -17.043 3.075 -17.652 2.907 -18.252 2.49 C -18.199 2.39 -18.121 2.324 -18.018 2.297 C -17.124 2.059 -16.269 2.055 -15.458 2.289 C -15.309 2.331 -15.198 2.419 -15.118 2.551 Z" style="" transform="matrix(1, 0, 0, 1, 0, 1.4210854715202004e-14)"/>
  <path fill="#64e2ee" d="M -18.252 2.49 C -17.652 2.907 -17.043 3.075 -16.43 2.993 C -16.278 2.971 -16.058 2.907 -15.77 2.792 C -15.554 2.707 -15.338 2.626 -15.118 2.551 L -14.883 3.555 C -14.874 3.59 -14.889 3.613 -14.924 3.623 C -16.123 3.912 -17.297 3.909 -18.447 3.609 C -18.512 3.593 -18.535 3.552 -18.519 3.488 L -18.252 2.49 Z" style="" transform="matrix(1, 0, 0, 1, 0, 1.4210854715202004e-14)"/>
  <path fill="#fcfef5" d="M -12.014 4.681 C -12.138 4.931 -12.324 5.109 -12.565 5.223 C -13.424 5.614 -14.401 5.861 -15.502 5.96 C -17.02 6.094 -18.509 5.962 -19.972 5.564 C -20.38 5.45 -20.697 5.341 -21.051 5.086 C -21.201 4.98 -21.355 4.884 -21.516 4.801 C -21.425 4.629 -21.314 4.486 -21.182 4.374 C -21.144 4.342 -21.107 4.34 -21.066 4.364 C -20.507 4.685 -19.82 4.914 -19.001 5.041 C -16.912 5.369 -14.987 5.269 -13.227 4.746 C -12.93 4.656 -12.647 4.525 -12.376 4.35 C -12.336 4.326 -12.299 4.326 -12.262 4.357 C -12.172 4.427 -12.092 4.536 -12.014 4.681 Z" style="" transform="matrix(1, 0, 0, 1, 0, 1.4210854715202004e-14)"/>
  <path fill="#64e2ee" d="M -12.014 4.681 L -11.853 4.909 C -11.776 5.012 -11.788 5.152 -11.877 5.242 C -12.387 5.764 -12.989 6.103 -13.685 6.265 C -15.649 6.717 -17.579 6.727 -19.476 6.3 C -20.213 6.135 -20.686 5.973 -20.89 5.817 C -21.081 5.675 -21.266 5.527 -21.44 5.378 C -21.658 5.191 -21.682 4.998 -21.516 4.801 C -21.355 4.884 -21.201 4.98 -21.051 5.086 C -20.697 5.341 -20.38 5.45 -19.972 5.564 C -18.509 5.962 -17.02 6.094 -15.502 5.96 C -14.401 5.861 -13.424 5.614 -12.565 5.223 C -12.324 5.109 -12.138 4.931 -12.014 4.681 Z" style="" transform="matrix(1, 0, 0, 1, 0, 1.4210854715202004e-14)"/>
  <path fill="#3dbed0" d="M -2.354 5.475 C -2.206 5.513 -2.084 5.581 -1.985 5.67 C -1.954 5.698 -1.94 5.731 -1.94 5.773 L -1.94 23.882 C -1.94 23.945 -1.973 24.004 -2.028 24.035 L -3.873 25.088 L -5.425 21.073 L -5.421 20.865 C -5.421 20.823 -5.403 20.802 -5.357 20.798 C -5.315 20.796 -5.275 20.782 -5.236 20.765 C -4.739 20.516 -4.245 20.291 -3.757 20.086 C -3.749 20.082 -3.744 20.078 -3.741 20.067 C -3.736 20.057 -3.732 20.046 -3.729 20.035 C -3.723 20.02 -3.714 20.01 -3.702 20.002 C -3.687 19.988 -3.672 19.99 -3.656 20.004 C -3.622 20.041 -3.602 20.035 -3.602 19.984 C -3.588 16.511 -3.575 13.243 -3.565 10.18 C -3.56 9.644 -3.563 9.066 -3.567 8.451 C -3.567 8.342 -3.554 8.22 -3.529 8.088 C -3.499 7.926 -3.485 7.802 -3.492 7.722 C -3.51 7.505 -3.581 7.17 -3.713 6.718 C -3.649 6.671 -3.602 6.614 -3.567 6.548 C -3.544 6.509 -3.544 6.464 -3.565 6.424 C -3.598 6.355 -3.66 6.3 -3.749 6.261 C -3.741 6.179 -3.776 6.128 -3.854 6.107 C -3.902 6.094 -3.927 6.066 -3.938 6.022 C -3.941 6.009 -3.938 5.996 -3.933 5.983 C -3.893 5.906 -3.912 5.885 -3.989 5.921 C -4.022 5.935 -4.054 5.932 -4.083 5.911 C -4.087 5.909 -4.092 5.903 -4.093 5.898 C -4.108 5.784 -4.097 5.682 -4.06 5.584 C -4.035 5.517 -3.989 5.497 -3.925 5.523 L -3.579 5.671 C -3.539 5.689 -3.501 5.693 -3.46 5.684 L -2.973 5.57 C -2.93 5.559 -2.892 5.542 -2.86 5.518 C -2.705 5.404 -2.513 5.512 -2.354 5.475 Z" style="" transform="matrix(1, 0, 0, 1, 0, 1.4210854715202004e-14)"/>
  <path fill="#64e2ee" d="M -3.713 6.718 C -3.581 7.17 -3.51 7.505 -3.492 7.722 C -3.485 7.802 -3.499 7.926 -3.529 8.088 C -3.554 8.22 -3.567 8.342 -3.567 8.451 C -3.563 9.066 -3.56 9.644 -3.565 10.18 C -3.575 13.243 -3.588 16.511 -3.602 19.984 C -3.602 20.035 -3.622 20.041 -3.656 20.004 C -3.672 19.99 -3.687 19.988 -3.702 20.002 C -3.714 20.01 -3.723 20.02 -3.729 20.035 C -3.732 20.046 -3.736 20.057 -3.741 20.067 C -3.744 20.078 -3.749 20.082 -3.757 20.086 C -4.245 20.291 -4.739 20.516 -5.236 20.765 C -5.275 20.782 -5.315 20.796 -5.357 20.798 C -5.403 20.802 -5.421 20.823 -5.421 20.865 L -5.425 21.073 C -5.854 19.906 -6.239 18.718 -6.884 17.652 C -7.396 16.798 -8.66 16.258 -9.561 16.185 C -10.119 16.141 -10.761 16.144 -11.485 16.199 C -11.675 16.212 -11.862 16.173 -12.045 16.081 C -12.23 15.989 -12.416 15.868 -12.61 15.716 C -12.148 15.113 -11.669 14.593 -11.176 14.158 C -10.719 13.752 -10.295 13.341 -9.902 12.923 C -9.162 12.139 -8.755 11.711 -8.682 11.641 C -7.982 10.961 -7.263 10.313 -6.619 9.577 C -6.419 9.352 -6.202 9.127 -5.968 8.905 C -5.212 8.189 -4.458 7.46 -3.713 6.718 Z M -5.869 13.321 C -5.967 13.582 -6.043 13.793 -6.237 14.003 C -6.425 14.207 -6.67 14.27 -6.91 14.388 C -7.128 14.492 -7.121 14.58 -6.893 14.65 C -6.339 14.818 -6.007 15.206 -5.892 15.808 C -5.883 15.853 -5.842 15.882 -5.797 15.873 C -5.747 15.861 -5.715 15.83 -5.703 15.777 C -5.606 15.389 -5.357 14.949 -4.983 14.787 C -4.869 14.736 -4.758 14.682 -4.647 14.62 C -4.436 14.503 -4.449 14.421 -4.686 14.373 C -5.245 14.26 -5.589 13.913 -5.716 13.333 C -5.755 13.154 -5.807 13.152 -5.869 13.321 Z" style="" transform="matrix(1, 0, 0, 1, 0, 1.4210854715202004e-14)"/>
  <path fill="#fcfef5" d="M -9.122 7.827 C -9.26 7.938 -9.392 8.015 -9.525 8.059 C -9.571 8.073 -9.619 8.073 -9.667 8.059 C -10.107 7.914 -10.61 7.874 -11.186 7.942 C -11.5 7.979 -11.778 8.042 -12.022 8.134 C -12.557 8.334 -12.751 8.932 -13.056 9.395 C -13.016 9.05 -12.898 8.717 -12.702 8.401 C -11.862 6.843 -10.479 6.931 -9.005 7.371 C -8.964 7.381 -8.944 7.429 -8.959 7.466 L -9.122 7.827 Z" style="" transform="matrix(1, 0, 0, 1, 0, 1.4210854715202004e-14)"/>
  <path fill="#fcfef5" d="M -20.637 8.495 C -20.311 8.821 -20.257 9.083 -20.476 9.288 C -20.675 8.809 -20.94 8.444 -21.268 8.192 C -21.835 7.978 -22.387 7.894 -22.923 7.947 C -23.339 7.985 -23.803 8.128 -24.202 7.967 C -24.319 7.822 -24.394 7.664 -24.425 7.499 C -24.432 7.45 -24.415 7.421 -24.371 7.404 C -23.966 7.254 -23.559 7.159 -23.143 7.122 C -21.998 7.016 -21.162 7.474 -20.637 8.495 Z" style="" transform="matrix(1, 0, 0, 1, 0, 1.4210854715202004e-14)"/>
  <path fill="#64e2ee" d="M -16.896 8.036 C -16.914 8.871 -17.016 9.706 -17.204 10.537 C -17.219 10.6 -17.272 10.647 -17.337 10.655 C -17.79 10.701 -18.274 10.832 -18.793 11.055 C -18.942 11.12 -19.077 11.205 -19.197 11.309 C -19.227 11.338 -19.262 11.352 -19.304 11.354 L -19.563 11.372 L -20.351 9.546 L -20.476 9.288 C -20.257 9.083 -20.311 8.821 -20.637 8.495 L -20.668 7.375 C -20.673 7.337 -20.632 7.312 -20.596 7.328 C -20.201 7.512 -19.789 7.654 -19.353 7.757 C -18.834 7.876 -18.015 7.971 -16.896 8.036 Z M -18.497 10.024 C -18.172 9.962 -17.961 9.642 -18.025 9.303 C -18.089 8.968 -18.404 8.747 -18.729 8.809 C -19.052 8.871 -19.262 9.194 -19.197 9.527 C -19.135 9.864 -18.819 10.086 -18.497 10.024 Z" style="" transform="matrix(1, 0, 0, 1, 0, 1.4210854715202004e-14)"/>
  <path fill="#61d1df" d="M -12.702 8.401 C -12.898 8.717 -13.016 9.05 -13.056 9.395 L -13.024 9.637 L -13.871 11.458 C -14.205 11.359 -14.359 11.079 -14.708 10.975 C -15.125 10.849 -15.552 10.749 -15.985 10.669 C -16.134 10.641 -16.248 10.521 -16.269 10.372 L -16.575 8.018 C -15.231 8.014 -13.976 7.793 -12.805 7.357 C -12.774 7.346 -12.759 7.357 -12.759 7.39 L -12.702 8.401 Z M -14.908 10.031 C -14.585 10.078 -14.281 9.842 -14.231 9.503 C -14.181 9.161 -14.404 8.849 -14.729 8.802 C -15.055 8.755 -15.357 8.992 -15.406 9.332 C -15.457 9.67 -15.233 9.983 -14.908 10.031 Z" style="" transform="matrix(1, 0, 0, 1, 0, 1.4210854715202004e-14)"/>
  <path fill="#3dbed0" d="M -26.87 18.255 L -29.512 25.057 L -31.405 24.004 C -31.446 23.98 -31.465 23.945 -31.465 23.9 L -31.491 7.809 C -31.189 7.6 -30.846 7.655 -30.464 7.973 C -30.426 8.003 -30.389 8.004 -30.354 7.974 C -30.281 7.919 -30.212 7.92 -30.145 7.975 C -30.107 8.009 -30.07 8.009 -30.031 7.978 L -29.941 7.901 C -29.887 7.858 -29.861 7.87 -29.861 7.94 L -29.851 17.822 C -29.851 17.911 -29.779 17.982 -29.692 17.987 C -29.384 17.997 -29.099 18.067 -28.786 18.022 C -28.367 17.965 -28.062 17.96 -27.866 18.015 C -27.538 18.107 -27.206 18.187 -26.87 18.255 Z" style="" transform="matrix(1, 0, 0, 1, 0, 1.4210854715202004e-14)"/>
  <path fill="#3dbed0" d="M -9.122 7.827 C -9.297 8.312 -9.477 8.664 -9.663 8.88 C -10.56 9.94 -11.75 9.812 -13.024 9.637 L -13.056 9.395 C -12.751 8.932 -12.557 8.334 -12.022 8.134 C -11.778 8.042 -11.5 7.979 -11.186 7.942 C -10.61 7.874 -10.107 7.914 -9.667 8.059 C -9.619 8.073 -9.571 8.073 -9.525 8.059 C -9.392 8.015 -9.26 7.938 -9.122 7.827 Z" style="" transform="matrix(1, 0, 0, 1, 0, 1.4210854715202004e-14)"/>
  <path fill="#64e2ee" d="M -21.268 8.192 C -21.406 8.181 -21.475 8.264 -21.468 8.439 C -21.466 8.622 -21.468 8.802 -21.478 8.979 C -21.48 9.026 -21.505 9.055 -21.551 9.066 C -22.101 9.197 -22.615 9.068 -23.087 8.709 C -23.352 8.512 -23.664 8.302 -24.028 8.085 C -24.037 8.08 -24.047 8.08 -24.057 8.084 C -24.077 8.092 -24.104 8.109 -24.134 8.14 C -24.171 8.095 -24.193 8.037 -24.202 7.967 C -23.803 8.128 -23.339 7.985 -22.923 7.947 C -22.387 7.894 -21.835 7.978 -21.268 8.192 Z" style="" transform="matrix(1, 0, 0, 1, 0, 1.4210854715202004e-14)"/>
  <path fill="#fcfef5" d="M -16.896 8.036 L -16.575 8.018 L -16.269 10.372 C -16.248 10.521 -16.134 10.641 -15.985 10.669 C -15.552 10.749 -15.125 10.849 -14.708 10.975 C -14.359 11.079 -14.205 11.359 -13.871 11.458 L -14.153 12.234 C -14.178 12.302 -14.174 12.374 -14.138 12.437 C -13.915 12.854 -13.868 13.311 -13.991 13.802 C -14.587 13.75 -15.02 13.97 -15.29 14.464 C -15.314 14.505 -15.348 14.534 -15.391 14.548 C -15.497 14.577 -15.611 14.593 -15.728 14.594 C -16.466 14.605 -17.192 14.598 -17.907 14.584 C -17.999 14.582 -18.083 14.53 -18.127 14.449 C -18.373 13.998 -18.794 13.79 -19.388 13.825 C -19.475 13.464 -19.464 13.106 -19.356 12.747 C -19.318 12.622 -19.278 12.494 -19.232 12.365 C -19.218 12.321 -19.22 12.278 -19.236 12.234 L -19.563 11.372 L -19.304 11.354 C -19.262 11.352 -19.227 11.338 -19.197 11.309 C -19.077 11.205 -18.942 11.12 -18.793 11.055 C -18.274 10.832 -17.79 10.701 -17.337 10.655 C -17.272 10.647 -17.219 10.6 -17.204 10.537 C -17.016 9.706 -16.914 8.871 -16.896 8.036 Z M -17.405 13.458 C -17.405 13.235 -17.587 13.054 -17.813 13.054 C -18.038 13.054 -18.219 13.235 -18.219 13.458 C -18.219 13.686 -18.038 13.867 -17.813 13.867 C -17.587 13.867 -17.405 13.686 -17.405 13.458 Z M -15.194 13.468 C -15.194 13.241 -15.379 13.056 -15.605 13.056 C -15.833 13.056 -16.016 13.241 -16.016 13.468 C -16.016 13.695 -15.833 13.879 -15.605 13.879 C -15.379 13.879 -15.194 13.695 -15.194 13.468 Z" style="" transform="matrix(1, 0, 0, 1, 0, 1.4210854715202004e-14)"/>
  <path fill="#32acbf" d="M -21.268 8.192 C -20.94 8.444 -20.675 8.809 -20.476 9.288 L -20.351 9.546 C -20.863 9.694 -21.372 9.761 -21.877 9.745 C -23.011 9.711 -23.763 9.174 -24.134 8.14 C -24.104 8.109 -24.077 8.092 -24.057 8.084 C -24.047 8.08 -24.037 8.08 -24.028 8.085 C -23.664 8.302 -23.352 8.512 -23.087 8.709 C -22.615 9.068 -22.101 9.197 -21.551 9.066 C -21.505 9.055 -21.48 9.026 -21.478 8.979 C -21.468 8.802 -21.466 8.622 -21.468 8.439 C -21.475 8.264 -21.406 8.181 -21.268 8.192 Z" style="" transform="matrix(1, 0, 0, 1, 0, 1.4210854715202004e-14)"/>
  <ellipse fill="#5a371c" transform="matrix(0.18738101422786715, 0.9822869300842286, -0.9822869300842286, 0.18738101422786715, -18.611602783203125, 9.415267944335952)" rx="0.62" ry="0.596" style=""/>
  <ellipse fill="#5a371c" transform="matrix(-0.14435599744319916, 0.9895260930061341, -0.9895260930061341, -0.14435599744319916, -14.818175315856934, 9.415267944335952)" rx="0.622" ry="0.593" style=""/>
  <circle fill="#5a371c" cx="-17.813" cy="13.458" r="0.409" style="" transform="matrix(1, 0, 0, 1, 0, 1.4210854715202004e-14)"/>
  <circle fill="#5a371c" cx="-15.605" cy="13.468" r="0.41" style="" transform="matrix(1, 0, 0, 1, 0, 1.4210854715202004e-14)"/>
  <path fill="#5a371c" d="M -27.575 13.287 C -27.492 13.881 -27.074 14.246 -26.493 14.388 C -26.419 14.405 -26.394 14.493 -26.444 14.548 C -26.454 14.557 -26.463 14.565 -26.475 14.569 C -27.028 14.811 -27.443 15.111 -27.55 15.752 C -27.558 15.796 -27.581 15.831 -27.62 15.854 C -27.665 15.882 -27.724 15.861 -27.739 15.806 C -27.92 15.127 -28.179 14.789 -28.896 14.639 C -28.951 14.629 -28.982 14.577 -28.974 14.524 C -28.962 14.446 -28.912 14.397 -28.834 14.377 C -28.215 14.23 -27.843 13.865 -27.722 13.287 C -27.713 13.245 -27.674 13.217 -27.633 13.224 C -27.598 13.231 -27.577 13.251 -27.575 13.287 Z" style="" transform="matrix(1, 0, 0, 1, 0, 1.4210854715202004e-14)"/>
  <path fill="#5a371c" d="M -6.237 14.003 C -6.043 13.793 -5.967 13.582 -5.869 13.321 C -5.807 13.152 -5.755 13.154 -5.716 13.333 C -5.589 13.913 -5.245 14.26 -4.686 14.373 C -4.449 14.421 -4.436 14.503 -4.647 14.62 C -4.758 14.682 -4.869 14.736 -4.983 14.787 C -5.357 14.949 -5.606 15.389 -5.703 15.777 C -5.715 15.83 -5.747 15.861 -5.797 15.873 C -5.842 15.882 -5.883 15.853 -5.892 15.808 C -6.007 15.206 -6.339 14.818 -6.893 14.65 C -7.121 14.58 -7.128 14.492 -6.91 14.388 C -6.67 14.27 -6.425 14.207 -6.237 14.003 Z" style="" transform="matrix(1, 0, 0, 1, 0, 1.4210854715202004e-14)"/>
  <path fill="#61d1df" d="M -13.991 13.802 C -14.525 15.188 -15.528 15.822 -16.999 15.71 C -18.181 15.621 -18.977 14.992 -19.388 13.825 C -18.794 13.79 -18.373 13.998 -18.127 14.449 C -18.083 14.53 -17.999 14.582 -17.907 14.584 C -17.192 14.598 -16.466 14.605 -15.728 14.594 C -15.611 14.593 -15.497 14.577 -15.391 14.548 C -15.348 14.534 -15.314 14.505 -15.29 14.464 C -15.02 13.97 -14.587 13.75 -13.991 13.802 Z" style="" transform="matrix(1, 0, 0, 1, 0, 1.4210854715202004e-14)"/>
  <path fill="#61d1df" d="M -18.549 20.048 C -18.985 19.404 -19.259 18.984 -19.363 18.789 C -19.675 18.201 -20.066 17.616 -20.533 17.034 L -19.281 16.438 C -19.238 16.419 -19.195 16.422 -19.154 16.448 C -18.517 16.858 -17.883 17.11 -17.251 17.207 C -17.197 17.215 -17.186 17.241 -17.206 17.289 L -18.549 20.048 Z" style="" transform="matrix(1, 0, 0, 1, 0, 1.4210854715202004e-14)"/>
  <path fill="#61d1df" d="M -13.026 17.038 C -13.015 17.077 -13.007 17.102 -13.007 17.124 C -13.007 17.134 -13.019 17.155 -13.044 17.192 C -13.667 18.109 -14.274 19.058 -14.867 20.038 L -16.188 17.271 C -16.214 17.219 -16.196 17.188 -16.14 17.182 C -15.471 17.084 -14.835 16.854 -14.236 16.484 C -14.192 16.454 -14.147 16.454 -14.102 16.478 L -13.026 17.038 Z" style="" transform="matrix(1, 0, 0, 1, 0, 1.4210854715202004e-14)"/>
  <path fill="#fcfef5" d="M -13.026 17.038 L -12.915 17.088 C -12.868 17.106 -12.847 17.14 -12.847 17.188 L -12.843 20.521 L -15.756 21.15 C -16.354 20.275 -16.999 20.263 -17.693 21.113 L -20.54 20.53 L -20.533 17.034 C -20.066 17.616 -19.675 18.201 -19.363 18.789 C -19.259 18.984 -18.985 19.404 -18.549 20.048 C -18.548 20.064 -18.546 20.076 -18.543 20.086 C -18.528 20.149 -18.45 20.174 -18.401 20.134 C -18.184 19.954 -17.978 19.768 -17.724 19.644 C -17.394 19.49 -17.08 19.304 -16.783 19.089 C -16.741 19.063 -16.697 19.058 -16.657 19.087 C -16.454 19.202 -16.265 19.363 -16.055 19.457 C -15.697 19.617 -15.358 19.831 -15.043 20.102 C -15.003 20.134 -14.972 20.142 -14.947 20.128 C -14.919 20.116 -14.892 20.083 -14.867 20.038 C -14.274 19.058 -13.667 18.109 -13.044 17.192 C -13.019 17.155 -13.007 17.134 -13.007 17.124 C -13.007 17.102 -13.015 17.077 -13.026 17.038 Z" style="" transform="matrix(1, 0, 0, 1, 0, 1.4210854715202004e-14)"/>
  <path fill="#64e2ee" d="M -22.216 20.035 L -22.229 27.479 C -22.23 27.498 -22.25 27.51 -22.268 27.499 L -23.061 27.029 C -23.117 26.995 -23.158 26.936 -23.166 26.867 L -23.486 24.195 L -23.982 22.281 C -23.996 22.223 -24.068 22.202 -24.11 22.244 C -24.114 22.246 -24.115 22.254 -24.12 22.256 C -24.26 22.452 -24.39 22.646 -24.484 22.872 C -25.038 24.221 -25.666 25.544 -26.36 26.843 C -26.542 26.794 -26.687 26.698 -26.797 26.553 C -26.821 26.522 -26.829 26.488 -26.819 26.45 C -26.721 26.018 -26.587 25.62 -26.413 25.26 C -26.233 24.883 -26.066 24.502 -25.915 24.118 C -25.502 23.065 -25.069 22.034 -24.618 21.024 C -24.467 20.687 -24.26 20.387 -23.996 20.134 C -23.582 19.727 -22.718 19.888 -22.216 20.035 Z" style="" transform="matrix(1, 0, 0, 1, 0, 1.4210854715202004e-14)"/>
  <path fill="#64e2ee" d="M -7.042 26.898 L -9.341 22.141 C -9.359 22.102 -9.413 22.098 -9.437 22.134 C -9.444 22.14 -9.449 22.146 -9.45 22.153 L -9.921 24.088 C -9.98 24.324 -10.015 24.524 -10.028 24.689 C -10.085 25.393 -10.13 26.112 -10.157 26.843 C -10.161 26.936 -10.202 27.006 -10.286 27.053 L -11.072 27.501 C -11.152 27.547 -11.195 27.523 -11.195 27.431 L -11.184 20.088 C -10.993 20.01 -10.756 19.954 -10.476 19.919 C -9.88 19.845 -9.442 20.019 -9.165 20.447 C -9.054 20.62 -8.875 20.754 -8.796 20.939 C -8.227 22.305 -7.651 23.653 -7.066 24.977 C -6.858 25.45 -6.729 25.946 -6.507 26.416 C -6.486 26.465 -6.492 26.507 -6.528 26.548 C -6.694 26.721 -6.864 26.837 -7.042 26.898 Z" style="" transform="matrix(1, 0, 0, 1, 0, 1.4210854715202004e-14)"/>
  <path fill="#5a371c" d="M -15.756 21.15 C -15.648 21.94 -15.925 22.365 -16.588 22.425 C -17.439 22.504 -17.809 22.069 -17.693 21.113 C -16.999 20.263 -16.354 20.275 -15.756 21.15 Z" style="" transform="matrix(1, 0, 0, 1, 0, 1.4210854715202004e-14)"/>
  <path fill="#64e2ee" d="M -12.843 20.521 L -12.844 20.821 C -13.032 20.958 -13.187 21.137 -13.311 21.357 C -13.488 21.675 -13.613 21.868 -13.685 21.94 C -13.936 22.188 -14.231 22.411 -14.57 22.599 C -15.098 22.896 -15.582 23.068 -16.019 23.124 C -16.868 23.231 -17.687 23.195 -18.447 22.826 C -18.969 22.568 -19.5 22.293 -19.772 21.9 C -20.04 21.511 -20.295 21.234 -20.54 21.067 L -20.54 20.53 L -17.693 21.113 C -17.809 22.069 -17.439 22.504 -16.588 22.425 C -15.925 22.365 -15.648 21.94 -15.756 21.15 L -12.843 20.521 Z" style="" transform="matrix(1, 0, 0, 1, 0, 1.4210854715202004e-14)"/>
  <path fill="#61d1df" d="M -12.844 20.821 L -12.857 28.296 C -12.857 28.382 -12.907 28.464 -12.983 28.505 C -14.249 29.182 -15.458 29.877 -16.614 30.594 C -16.657 30.62 -16.7 30.62 -16.744 30.594 C -17.95 29.834 -19.197 29.12 -20.485 28.449 C -20.528 28.426 -20.548 28.392 -20.548 28.345 L -20.54 21.067 C -20.295 21.234 -20.04 21.511 -19.772 21.9 C -19.5 22.293 -18.969 22.568 -18.447 22.826 C -17.687 23.195 -16.868 23.231 -16.019 23.124 C -15.582 23.068 -15.098 22.896 -14.57 22.599 C -14.231 22.411 -13.936 22.188 -13.685 21.94 C -13.613 21.868 -13.488 21.675 -13.311 21.357 C -13.187 21.137 -13.032 20.958 -12.844 20.821 Z M -15.71 24.883 C -15.72 24.359 -16.176 23.942 -16.731 23.954 C -17.283 23.964 -17.724 24.398 -17.714 24.922 C -17.704 25.446 -17.248 25.862 -16.692 25.852 C -16.14 25.84 -15.7 25.407 -15.71 24.883 Z M -15.711 28.074 C -15.697 27.544 -16.133 27.102 -16.688 27.086 C -17.244 27.07 -17.708 27.486 -17.724 28.014 C -17.737 28.542 -17.299 28.983 -16.745 29 C -16.191 29.018 -15.728 28.601 -15.711 28.074 Z" style="" transform="matrix(1, 0, 0, 1, 0, 1.4210854715202004e-14)"/>
  <path fill="#32acbf" d="M -7.042 26.898 L -8.225 27.583 L -9.921 24.088 L -9.45 22.153 C -9.437 22.11 -9.387 22.096 -9.354 22.122 C -9.349 22.13 -9.344 22.134 -9.341 22.141 L -7.042 26.898 Z" style="" transform="matrix(1, 0, 0, 1, 0, 1.4210854715202004e-14)"/>
  <path fill="#32acbf" d="M -23.486 24.195 L -25.161 27.547 L -26.36 26.843 C -25.666 25.544 -25.038 24.221 -24.484 22.872 C -24.39 22.646 -24.26 22.452 -24.12 22.256 C -24.086 22.205 -24.012 22.215 -23.985 22.268 C -23.984 22.272 -23.983 22.277 -23.982 22.281 L -23.486 24.195 Z" style="" transform="matrix(1, 0, 0, 1, 0, 1.4210854715202004e-14)"/>
  <ellipse fill="#5a371c" transform="matrix(0.9998160600662233, -0.019197000190615654, 0.019197000190615654, 0.9998160600662233, -16.710790634155273, 24.90168380737306)" rx="1.003" ry="0.949" style=""/>
  <ellipse fill="#5a371c" transform="matrix(0.999560058116913, 0.0296660028398037, -0.0296660028398037, 0.999560058116913, -16.716262817382812, 28.042366027832045)" rx="1.008" ry="0.957" style=""/>
</svg>