<svg width="200" height="200" fill="none" xmlns="http://www.w3.org/2000/svg"><path d="m122.53 91.638 14.688-24.923 39.59 61.662.018 11.834-.129-81.43a6.138 6.138 0 0 0-2.837-4.888l-71.276-40.998c-1.667-.82-3.782-.81-5.446.026a6.098 6.098 0 0 0-.638.37l-.248.156-69.186 40.092-.268.123c-.346.157-.694.36-1.023.594a6.112 6.112 0 0 0-2.552 4.613l.108 66.357 36.876-57.154c4.642-7.579 14.758-10.022 24.15-9.888l11.02.29-64.938 104.142 7.655 4.407 65.715-108.442 29.047-.106-65.545 111.179 27.314 15.712 3.264 1.875a6.26 6.26 0 0 0 4.399.086l72.279-41.886-13.819 8.008-38.218-61.81Zm5.603 80.713-27.588-43.301 16.842-28.578 36.231 57.108-25.485 14.771Z" fill="#2D374B"/><path d="m100.551 129.053 27.588 43.3 25.485-14.769-36.231-57.109-16.842 28.578Zm76.284 11.16-.018-11.833-39.59-61.662-14.688 24.923 38.219 61.811 13.819-8.008a6.123 6.123 0 0 0 2.261-4.459l-.003-.772Z" fill="#28A0F0"/><path d="m10.93 151.373 19.514 11.244 64.938-104.14-11.021-.291c-9.39-.133-19.505 2.308-24.149 9.887l-36.876 57.155-12.406 19.061v7.084Zm121.93-92.899-29.047.106-65.715 108.442 22.97 13.224 6.245-10.593L132.86 58.474Z" fill="#fff"/><path d="M189.071 58.325c-.242-6.074-3.532-11.634-8.683-14.872L108.177 1.926c-5.096-2.566-11.462-2.57-16.569-.001-.602.304-70.223 40.681-70.223 40.681a18.397 18.397 0 0 0-2.764 1.637c-4.599 3.297-7.402 8.419-7.691 14.045v86.002l12.406-19.062-.108-66.359a6.112 6.112 0 0 1 2.552-4.612c.328-.234 71.136-41.222 71.362-41.335 1.665-.836 3.779-.846 5.445-.026l71.277 40.998a6.138 6.138 0 0 1 2.837 4.887v82.201c-.087 1.742-.776 3.358-2.131 4.458l-13.819 8.008-7.13 4.133-25.484 14.769-25.845 14.977a6.266 6.266 0 0 1-4.4-.086l-30.578-17.588-6.246 10.594 27.48 15.821c.908.517 1.718.974 2.382 1.349 1.03.577 1.73.962 1.978 1.083 1.953.948 4.763 1.5 7.295 1.5 2.321 0 4.586-.426 6.729-1.265L182 155.262c4.308-3.339 6.843-8.373 7.071-13.826v-83.11Z" fill="#96BEDC"/></svg>