<svg width="200" height="200" fill="none" xmlns="http://www.w3.org/2000/svg"><path d="M59.906 113.471c5.822 0 11.198-1.94 15.528-5.299L39.898 72.65c-3.359 4.254-5.3 9.627-5.3 15.523-.074 13.955 11.273 25.298 25.308 25.298Zm105.711-25.375c0-5.82-1.941-11.193-5.3-15.522l-35.536 35.522c4.256 3.359 9.631 5.299 15.529 5.299 13.96.074 25.307-11.269 25.307-25.299Z" fill="#04795B"/><path d="m183.537 49.515-15.752 15.747c5.226 6.268 8.361 14.178 8.361 22.985 0 19.776-16.05 35.82-35.834 35.82-8.735 0-16.722-3.134-22.993-8.358l-17.246 17.239-17.245-17.239c-6.27 5.224-14.184 8.358-22.993 8.358C40.05 124.067 24 108.023 24 88.247c0-8.732 3.136-16.717 8.362-22.985l-8.063-8.06-7.69-7.687C7.653 64.291 2.5 81.53 2.5 100.038c0 53.88 43.672 97.462 97.499 97.462 53.825 0 97.498-43.657 97.498-97.462.15-18.582-5.002-35.821-13.96-50.523Z" fill="#04795B"/><path d="M170.625 32.724C152.932 14.142 127.848 2.5 100.077 2.5c-27.772 0-52.78 11.642-70.548 30.224a117.324 117.324 0 0 0-6.869 7.985l77.342 77.313 77.342-77.388a66.127 66.127 0 0 0-6.719-7.91Zm-70.548-17.537c22.844 0 44.046 8.806 59.947 24.85l-59.947 59.926-59.948-59.926c15.977-16.044 37.104-24.85 59.948-24.85Z" fill="#04795B"/></svg>