<svg width="200" height="200" fill="none" xmlns="http://www.w3.org/2000/svg"><path d="M100 197.5c53.848 0 97.5-43.652 97.5-97.5S153.848 2.5 100 2.5 2.5 46.152 2.5 100s43.652 97.5 97.5 97.5Z" fill="#FF0420"/><path d="M71.582 125.914c-5.805 0-10.562-1.366-14.27-4.098-3.658-2.781-5.488-6.732-5.488-11.855 0-1.073.122-2.391.366-3.952.635-3.512 1.537-7.732 2.708-12.66 3.317-13.415 11.88-20.123 25.685-20.123 3.757 0 7.123.633 10.1 1.902 2.975 1.22 5.317 3.073 7.024 5.562 1.708 2.439 2.562 5.366 2.562 8.781 0 1.024-.122 2.317-.367 3.879a165.57 165.57 0 0 1-2.634 12.659c-1.707 6.684-4.659 11.684-8.855 15.002-4.195 3.269-9.805 4.903-16.83 4.903Zm1.025-10.538c2.732 0 5.05-.805 6.952-2.415 1.951-1.609 3.342-4.073 4.171-7.391 1.122-4.586 1.976-8.586 2.561-12.001.195-1.025.293-2.073.293-3.147 0-4.44-2.317-6.66-6.952-6.66-2.732 0-5.074.806-7.025 2.415-1.902 1.611-3.269 4.074-4.098 7.392-.878 3.269-1.757 7.269-2.635 12.001-.194.976-.292 2-.292 3.073 0 4.489 2.342 6.733 7.025 6.733Zm31.021 9.806c-.536 0-.951-.171-1.244-.512-.244-.391-.317-.83-.219-1.318l10.098-47.566a2.1 2.1 0 0 1 .805-1.317c.439-.341.903-.512 1.391-.512h19.465c5.416 0 9.757 1.122 13.026 3.366 3.318 2.244 4.976 5.489 4.976 9.733 0 1.22-.146 2.488-.439 3.805-1.219 5.61-3.683 9.757-7.39 12.441-3.66 2.683-8.685 4.024-15.076 4.024h-9.878l-3.367 16.026a2.098 2.098 0 0 1-.805 1.318c-.439.341-.902.512-1.39.512h-9.953Zm25.906-27.954c2.049 0 3.829-.562 5.342-1.683 1.561-1.123 2.585-2.732 3.073-4.83.147-.83.22-1.562.22-2.196 0-1.415-.415-2.488-1.244-3.22-.83-.78-2.244-1.17-4.245-1.17h-8.781l-2.781 13.099h8.416Z" fill="#fff"/></svg>