<svg width="200" height="200" fill="none" xmlns="http://www.w3.org/2000/svg"><g clip-path="url(#a)"><mask id="b" style="mask-type:luminance" maskUnits="userSpaceOnUse" x="0" y="0" width="200" height="200"><path d="M0 0h200v200H0V0Z" fill="#fff"/></mask><g mask="url(#b)" fill="#8247E5"><path d="M175.585 39.416 114.062 3.878a28.95 28.95 0 0 0-28.952 0L23.586 39.415a28.951 28.951 0 0 0-14.477 25.08v71.007a28.95 28.95 0 0 0 14.477 25.079l61.523 35.54a28.963 28.963 0 0 0 28.952 0l61.523-35.54a28.96 28.96 0 0 0 14.477-25.079V64.497a28.957 28.957 0 0 0-14.476-25.081Zm0 96.087a14.457 14.457 0 0 1-7.237 12.539l-61.524 35.503a14.29 14.29 0 0 1-14.476 0l-61.523-35.503a14.479 14.479 0 0 1-7.238-12.539V64.497a14.603 14.603 0 0 1 7.238-12.577l61.523-35.502a14.476 14.476 0 0 1 14.476 0l61.524 35.503a14.6 14.6 0 0 1 7.237 12.576v71.006Z"/><path d="m155.681 92.347-23.524-13.573a10.962 10.962 0 0 0-10.857 0L72.444 107.02 52.538 95.511V72.514l19.906-11.508 19.902 11.508v12.379l14.476-8.416v-6.062a10.857 10.857 0 0 0-5.429-9.41L77.87 47.525a10.965 10.965 0 0 0-10.857 0l-23.522 13.57a10.984 10.984 0 0 0-5.43 9.41v27.142a11.002 11.002 0 0 0 5.43 9.427l23.522 13.571a11.057 11.057 0 0 0 10.859 0l48.856-28.3 19.905 11.526v22.964l-19.905 11.508-19.904-11.508v-12.522l-14.477 8.36v6.279a10.86 10.86 0 0 0 5.43 9.354l23.522 13.608a10.742 10.742 0 0 0 5.429 1.466 10.538 10.538 0 0 0 5.428-1.466l23.524-13.571a10.86 10.86 0 0 0 5.429-9.391v-27.143a10.852 10.852 0 0 0-5.429-9.464v.002Z"/></g></g><defs><clipPath id="a"><path fill="#fff" d="M0 0h200v200H0z"/></clipPath></defs></svg>