<svg width="200" height="200" fill="none" xmlns="http://www.w3.org/2000/svg"><g clip-path="url(#a)"><mask id="b" style="mask-type:luminance" maskUnits="userSpaceOnUse" x="0" y="0" width="200" height="200"><path d="M0 0h200v200H0V0Z" fill="#fff"/></mask><g mask="url(#b)"><path d="m174.337 39.397-61.53-35.543a29.119 29.119 0 0 0-28.957 0L22.32 39.397A28.957 28.957 0 0 0 7.842 64.481v71.231a28.954 28.954 0 0 0 14.478 24.865l61.53 35.544a28.962 28.962 0 0 0 28.957 0l61.53-35.544a28.96 28.96 0 0 0 14.479-25.083v-71.23a28.965 28.965 0 0 0-14.479-24.867ZM22.32 64.481a14.476 14.476 0 0 1 7.24-12.561l61.53-35.507a14.388 14.388 0 0 1 14.479 0L167.1 51.92a14.482 14.482 0 0 1 7.238 12.342v7.239a21.314 21.314 0 0 1-21.282 21.246H43.602a35.362 35.362 0 0 0-21.282 7.059V64.48Zm152.017 71.013a14.464 14.464 0 0 1-7.238 12.56l-61.531 35.506a14.478 14.478 0 0 1-14.479 0l-61.53-35.506a14.482 14.482 0 0 1-7.239-12.342v-7.239a21.323 21.323 0 0 1 21.282-21.247h109.453a35.355 35.355 0 0 0 21.282-7.058v35.326Z" fill="url(#c)"/><path d="M64.67 60.861h14.044V81.89h14.479V60.86a14.474 14.474 0 0 0-14.479-14.477H64.671A14.478 14.478 0 0 0 50.193 60.86v21.03h14.478V60.86Z" fill="url(#d)"/><path d="M78.714 139.113H64.671v-21.03H50.193v21.03a14.48 14.48 0 0 0 8.937 13.377 14.49 14.49 0 0 0 5.54 1.101h14.044a14.473 14.473 0 0 0 14.478-14.478v-21.03H78.715v21.03Z" fill="url(#e)"/><path d="M121.708 60.861h14.08V81.89h14.479V60.86a14.49 14.49 0 0 0-4.241-10.237 14.476 14.476 0 0 0-10.238-4.24h-14.08A14.478 14.478 0 0 0 107.23 60.86v21.03h14.478V60.86Z" fill="url(#f)"/><path d="M135.788 139.114h-14.08v-21.03H107.23v21.03a14.48 14.48 0 0 0 8.937 13.376 14.474 14.474 0 0 0 5.541 1.101h14.08a14.473 14.473 0 0 0 13.376-8.937 14.468 14.468 0 0 0 1.103-5.54v-21.03h-14.479v21.03Z" fill="url(#g)"/></g></g><defs><linearGradient id="c" x1="98.329" y1="0" x2="98.329" y2="200" gradientUnits="userSpaceOnUse"><stop stop-color="#A727C1"/><stop offset="1" stop-color="#7C40E4"/></linearGradient><linearGradient id="d" x1="71.693" y1="46.383" x2="71.693" y2="81.89" gradientUnits="userSpaceOnUse"><stop stop-color="#A727C1"/><stop offset="1" stop-color="#7C40E4"/></linearGradient><linearGradient id="e" x1="71.693" y1="118.083" x2="71.693" y2="153.591" gradientUnits="userSpaceOnUse"><stop stop-color="#A727C1"/><stop offset="1" stop-color="#7C40E4"/></linearGradient><linearGradient id="f" x1="128.748" y1="46.383" x2="128.748" y2="81.89" gradientUnits="userSpaceOnUse"><stop stop-color="#A727C1"/><stop offset="1" stop-color="#7C40E4"/></linearGradient><linearGradient id="g" x1="128.748" y1="118.084" x2="128.748" y2="153.591" gradientUnits="userSpaceOnUse"><stop stop-color="#A727C1"/><stop offset="1" stop-color="#7C40E4"/></linearGradient><clipPath id="a"><path fill="#fff" d="M0 0h200v200H0z"/></clipPath></defs></svg>