<svg width="472" height="334" viewBox="0 0 472 334" fill="none" xmlns="http://www.w3.org/2000/svg">
<g clip-path="url(#clip0_291_1589)">
<path d="M56.4957 145.936C47.5859 153.23 62.1655 217.253 62.1655 217.253C62.1655 217.253 65.4054 314.909 72.2903 319.367C79.1751 323.824 94.5647 318.961 100.639 318.151C106.714 317.34 101.449 256.964 92.5397 234.677C83.6299 212.391 90.5148 179.974 90.5148 179.974L138.708 189.294C138.708 189.294 109.549 214.012 110.764 219.279C111.979 224.547 143.163 242.376 148.833 243.187C154.503 243.997 165.438 210.77 175.158 188.078C184.877 165.386 108.739 150.799 108.739 150.799L98.2096 130.943C98.2096 130.943 65.4055 138.642 56.4957 145.936Z" fill="#2D3748"/>
<path d="M80.6836 321.048C80.6836 321.048 77.7448 331.34 80.6836 331.34C83.6224 331.34 89.0103 334.28 97.3369 333.3C105.664 332.32 103.215 322.028 97.3369 320.558C91.4593 319.088 92.9287 307.326 92.9287 307.326C90.9695 303.405 81.6632 308.306 81.6632 308.306L80.6836 321.048Z" fill="#4A5568"/>
<path d="M122.406 239.209C122.406 239.209 117.365 248.649 120.237 249.269C123.11 249.889 127.757 253.901 136.103 254.699C144.449 255.498 144.224 244.921 138.789 242.244C133.353 239.567 137.268 228.38 137.268 228.38C136.18 224.134 126.05 226.961 126.05 226.961L122.406 239.209Z" fill="#4A5568"/>
<path d="M61.9629 58.2084C62.7728 59.8292 59.1279 80.0898 59.1279 80.0898L62.3679 85.7627C62.3679 85.7627 80.9974 78.469 78.1624 77.2533C75.3275 76.0377 75.7325 61.0449 75.7325 61.0449C75.7325 61.0449 61.1529 56.5875 61.9629 58.2084Z" fill="#E2E8F0"/>
<path d="M68.975 64.4537C82.689 64.4537 93.8064 53.3302 93.8064 39.6087C93.8064 25.8872 82.689 14.7637 68.975 14.7637C55.261 14.7637 44.1436 25.8872 44.1436 39.6087C44.1436 53.3302 55.261 64.4537 68.975 64.4537Z" fill="#2F2E41"/>
<path d="M67.2624 26.6297C72.9371 26.6297 77.5374 22.0269 77.5374 16.349C77.5374 10.6712 72.9371 6.06836 67.2624 6.06836C61.5876 6.06836 56.9873 10.6712 56.9873 16.349C56.9873 22.0269 61.5876 26.6297 67.2624 26.6297Z" fill="#2F2E41"/>
<path d="M71.7578 21.0058C72.1134 21.0428 72.4707 21.0613 72.8281 21.0614C74.1775 21.0614 75.5136 20.7955 76.7602 20.2788C78.0069 19.7622 79.1396 19.0049 80.0937 18.0503C81.0479 17.0956 81.8047 15.9623 82.3211 14.715C82.8375 13.4677 83.1032 12.1308 83.1032 10.7807C83.1032 9.43062 82.8375 8.09376 82.3211 6.84645C81.8047 5.59914 81.0479 4.4658 80.0937 3.51115C79.1396 2.5565 78.0069 1.79923 76.7602 1.28257C75.5136 0.765918 74.1775 0.5 72.8281 0.5C72.4707 0.500092 72.1134 0.518644 71.7578 0.555584C74.2838 0.820387 76.6223 2.01184 78.3221 3.90006C80.0219 5.78829 80.9625 8.23947 80.9625 10.7807C80.9625 13.3219 80.0219 15.7731 78.3221 17.6614C76.6223 19.5496 74.2838 20.741 71.7578 21.0058Z" fill="#2F2E41"/>
<path d="M69.6577 68.7438C79.0518 68.7438 86.6673 61.1242 86.6673 51.7249C86.6673 42.3257 79.0518 34.7061 69.6577 34.7061C60.2636 34.7061 52.6482 42.3257 52.6482 51.7249C52.6482 61.1242 60.2636 68.7438 69.6577 68.7438Z" fill="#E2E8F0"/>
<path d="M45.1558 77.8607C39.891 79.0764 30.9812 92.0431 30.9812 92.0431L45.1558 106.226C45.1558 106.226 55.2806 144.315 56.4955 145.936C64.4552 156.555 100.234 132.969 100.234 132.969C100.234 132.969 98.8169 121.421 99.6269 115.748C100.406 110.292 96.5895 99.3369 96.5895 99.3369C96.5895 99.3369 109.954 93.664 107.119 87.991C104.284 82.3181 86.8697 69.3513 79.58 73.8086C72.2902 78.266 57.7106 73.8086 57.7106 73.8086C57.7106 73.8086 50.4207 76.6451 45.1558 77.8607Z" fill="#4A5568"/>
<path d="M148.631 159.511C148.631 159.511 171.715 179.366 177.385 175.314C183.055 171.262 155.515 157.08 155.515 157.08L148.631 159.511Z" fill="#E2E8F0"/>
<path d="M44.9533 152.622C48.1933 156.269 63.5829 146.949 61.6098 142.81C59.6368 138.671 47.3833 146.949 47.3833 146.949C47.3833 146.949 41.7134 148.975 44.9533 152.622Z" fill="#E2E8F0"/>
<path d="M45.1559 97.7162L28.1464 129.323C28.1464 129.323 47.5858 145.531 50.0158 145.936C52.4457 146.341 45.1559 156.877 45.1559 156.877C45.1559 156.877 23.2865 141.479 14.7817 133.78C6.27695 126.081 30.9813 92.0433 30.9813 92.0433L38.2711 87.5859L45.1559 97.7162Z" fill="#718096"/>
<path d="M94.5646 96.5008L114.409 127.297C114.409 127.297 144.783 161.335 148.833 162.955C152.883 164.576 157.743 156.877 157.743 156.877L121.294 112.709L107.524 87.9914L102.259 85.9653L94.5646 96.5008Z" fill="#718096"/>
<path d="M68.975 41.785C78.4329 41.785 86.1001 37.1822 86.1001 31.5043C86.1001 25.8265 78.4329 21.2236 68.975 21.2236C59.517 21.2236 51.8499 25.8265 51.8499 31.5043C51.8499 37.1822 59.517 41.785 68.975 41.785Z" fill="#2F2E41"/>
<path d="M115.874 254.296C116.177 253.993 116.588 253.822 117.017 253.822C117.017 253.822 117.017 253.822 117.017 253.822L363.222 253.822C363.65 253.822 364.061 253.993 364.365 254.296C364.668 254.6 364.839 255.011 364.839 255.441V327.684C364.838 328.113 364.668 328.524 364.365 328.828C364.061 329.131 363.65 329.302 363.221 329.302H117.017C116.588 329.302 116.177 329.131 115.874 328.828C115.571 328.524 115.4 328.113 115.4 327.684V255.44C115.4 255.011 115.571 254.6 115.874 254.296Z" stroke="#4A5568"/>
<path d="M359.534 259.13V323.994H120.705V259.13H359.534Z" stroke="#4A5568"/>
<path d="M329.761 310.831C329.301 310.83 328.844 310.92 328.418 311.096C327.992 311.273 327.605 311.531 327.279 311.857C326.953 312.183 326.694 312.57 326.518 312.996C326.341 313.422 326.25 313.878 326.25 314.339C326.25 314.8 326.341 315.257 326.518 315.683C326.694 316.109 326.953 316.496 327.279 316.822C327.605 317.148 327.992 317.406 328.418 317.582C328.844 317.758 329.301 317.848 329.761 317.848H343.788C344.718 317.848 345.61 317.478 346.268 316.82C346.926 316.162 347.295 315.27 347.295 314.339C347.295 313.409 346.926 312.516 346.268 311.858C345.61 311.2 344.718 310.831 343.788 310.831H329.761Z" fill="#ECC94B"/>
<path d="M347.295 304.024H185.37V304.948H347.295V304.024Z" fill="#E6E6E6"/>
<path d="M151.523 311.998C162.803 311.998 171.948 302.849 171.948 291.562C171.948 280.276 162.803 271.126 151.523 271.126C140.242 271.126 131.098 280.276 131.098 291.562C131.098 302.849 140.242 311.998 151.523 311.998Z" fill="#ECC94B"/>
<path d="M185.626 298.87L185.115 298.102L201.941 286.878L213.479 292.419L230.076 281.81L263.09 295.901L289.381 282.979L314.911 293.335L346.989 264.907L347.601 265.598L315.094 294.406L289.417 283.99L263.117 296.916L230.162 282.851L213.543 293.474L202.015 287.938L185.626 298.87Z" fill="#3F3D56"/>
<path d="M188.369 311.313C187.975 311.312 187.584 311.39 187.22 311.54C186.856 311.691 186.525 311.912 186.246 312.19C185.967 312.469 185.746 312.8 185.595 313.164C185.444 313.528 185.366 313.919 185.366 314.313C185.366 314.708 185.444 315.098 185.595 315.462C185.746 315.827 185.967 316.157 186.246 316.436C186.525 316.715 186.856 316.936 187.22 317.086C187.584 317.237 187.975 317.314 188.369 317.314H219.739C220.534 317.312 221.295 316.996 221.857 316.433C222.418 315.871 222.734 315.108 222.734 314.313C222.734 313.518 222.418 312.756 221.857 312.193C221.295 311.631 220.534 311.314 219.739 311.313H188.369Z" fill="#E6E6E6"/>
<path d="M147.934 22.8916C148.237 22.5882 148.648 22.4176 149.077 22.417C149.077 22.417 149.077 22.417 149.077 22.417L395.282 22.417C395.711 22.4176 396.122 22.5882 396.425 22.8916C396.728 23.195 396.899 23.6065 396.899 24.0357V96.2788C396.899 96.7081 396.728 97.1196 396.425 97.423C396.121 97.7264 395.71 97.8971 395.282 97.8976H149.077C148.649 97.8971 148.237 97.7264 147.934 97.423C147.631 97.1196 147.46 96.7083 147.46 96.2791V24.0355C147.46 23.6063 147.631 23.195 147.934 22.8916Z" stroke="#4A5568"/>
<path d="M151.765 93.089V93.589H152.265H392.094H392.594V93.089V27.2246V26.7246H392.094H152.265H151.765V27.2246V93.089Z" stroke="#4A5568"/>
<path d="M361.822 79.4253C360.892 79.4253 360 79.795 359.342 80.453C358.684 81.111 358.315 82.0034 358.315 82.934C358.315 83.8645 358.684 84.757 359.342 85.415C360 86.073 360.892 86.4427 361.822 86.4427H375.849C376.779 86.4427 377.671 86.073 378.328 85.415C378.986 84.757 379.355 83.8645 379.355 82.934C379.355 82.0034 378.986 81.111 378.328 80.453C377.671 79.795 376.779 79.4253 375.849 79.4253H361.822Z" fill="#ECC94B"/>
<path d="M379.355 72.6196H217.43V73.5428H379.355V72.6196Z" fill="#E6E6E6"/>
<path d="M183.583 80.5931C194.864 80.5931 204.008 71.4435 204.008 60.1569C204.008 48.8703 194.864 39.7207 183.583 39.7207C172.303 39.7207 163.158 48.8703 163.158 60.1569C163.158 71.4435 172.303 80.5931 183.583 80.5931Z" fill="#ECC94B"/>
<path d="M217.686 67.4647L217.175 66.6965L234.001 55.4729L245.539 61.0146L262.136 50.4055L262.36 50.5008L295.15 64.4962L321.441 51.5743L346.971 61.9299L379.049 33.5015L379.661 34.1926L347.154 63.0004L321.477 52.585L295.177 65.5114L262.222 51.4459L245.603 62.0692L234.075 56.5325L217.686 67.4647Z" fill="#3F3D56"/>
<path d="M220.429 79.9082C219.634 79.9092 218.873 80.2258 218.311 80.7883C217.75 81.3509 217.434 82.1134 217.434 82.9085C217.434 83.7035 217.75 84.4661 218.311 85.0286C218.873 85.5911 219.634 85.9077 220.429 85.9087H251.799C252.594 85.9087 253.357 85.5926 253.919 85.03C254.482 84.4673 254.798 83.7042 254.798 82.9085C254.798 82.1127 254.482 81.3496 253.919 80.787C253.357 80.2243 252.594 79.9082 251.799 79.9082H220.429Z" fill="#E6E6E6"/>
<path d="M244.796 138.594C245.1 138.29 245.511 138.12 245.939 138.119C245.939 138.119 245.94 138.119 245.94 138.119L492.144 138.119C492.573 138.12 492.984 138.29 493.287 138.594C493.59 138.897 493.761 139.309 493.761 139.738V211.981C493.761 212.41 493.59 212.822 493.287 213.125C492.984 213.429 492.573 213.599 492.144 213.6H245.94C245.511 213.599 245.1 213.429 244.796 213.125C244.493 212.822 244.323 212.41 244.322 211.981V139.738C244.323 139.308 244.493 138.897 244.796 138.594Z" stroke="#2D3748"/>
<path d="M488.456 143.427V208.292H249.627V143.427H488.456Z" stroke="#2D3748"/>
<path d="M458.684 195.128C457.754 195.128 456.862 195.498 456.204 196.156C455.547 196.814 455.177 197.706 455.177 198.637C455.177 199.567 455.547 200.46 456.204 201.118C456.862 201.776 457.754 202.145 458.684 202.145H472.711C473.641 202.145 474.533 201.776 475.191 201.118C475.848 200.46 476.218 199.567 476.218 198.637C476.218 197.706 475.848 196.814 475.191 196.156C474.533 195.498 473.641 195.128 472.711 195.128H458.684Z" fill="#ECC94B"/>
<path d="M476.218 188.322H314.293V189.245H476.218V188.322Z" fill="#E6E6E6"/>
<path d="M280.445 196.296C291.726 196.296 300.87 187.146 300.87 175.86C300.87 164.573 291.726 155.423 280.445 155.423C269.165 155.423 260.02 164.573 260.02 175.86C260.02 187.146 269.165 196.296 280.445 196.296Z" fill="#ECC94B"/>
<path d="M314.549 183.167L314.037 182.399L330.863 171.176L342.402 176.717L358.998 166.108L359.223 166.203L392.012 180.199L418.304 167.277L443.833 177.632L475.912 149.204L476.524 149.896L444.017 178.703L418.34 168.288L392.039 181.214L359.085 167.148L342.465 177.772L330.938 172.236L314.549 183.167Z" fill="#3F3D56"/>
<path d="M317.291 195.611C316.496 195.611 315.733 195.927 315.171 196.49C314.609 197.052 314.293 197.815 314.293 198.611C314.293 199.407 314.609 200.17 315.171 200.733C315.733 201.295 316.496 201.611 317.291 201.611H348.662C349.457 201.611 350.219 201.295 350.782 200.733C351.344 200.17 351.66 199.407 351.66 198.611C351.66 197.815 351.344 197.052 350.782 196.49C350.219 195.927 349.457 195.611 348.662 195.611H317.291Z" fill="#E6E6E6"/>
<path d="M280.443 189.329L288.712 177.678L280.443 182.562L272.18 177.678L280.443 189.329H280.443Z" fill="white"/>
<path d="M280.443 180.996H280.443L288.707 176.109L280.443 162.391H280.443L272.18 176.109L280.443 180.996Z" fill="white"/>
<path d="M190.151 56.4098C189.712 56.1595 189.148 56.1595 188.646 56.4098L185.135 58.4743L182.752 59.7881L179.303 61.8526C178.864 62.1028 178.299 62.1028 177.798 61.8526L175.101 60.226C174.662 59.9757 174.349 59.4752 174.349 58.9122V55.7842C174.349 55.2837 174.599 54.7832 175.101 54.4704L177.798 52.9064C178.237 52.6561 178.801 52.6561 179.303 52.9064L181.999 54.5329C182.438 54.7832 182.752 55.2837 182.752 55.8467V57.9112L185.135 56.5349V54.4078C185.135 53.9073 184.884 53.4068 184.382 53.094L179.365 50.1537C178.926 49.9034 178.362 49.9034 177.86 50.1537L172.718 53.1566C172.216 53.4068 171.966 53.9073 171.966 54.4078V60.2885C171.966 60.789 172.216 61.2895 172.718 61.6023L177.798 64.5427C178.237 64.7929 178.801 64.7929 179.303 64.5427L182.752 62.5407L185.135 61.1644L188.584 59.1624C189.023 58.9122 189.587 58.9122 190.089 59.1624L192.785 60.7265C193.224 60.9767 193.538 61.4772 193.538 62.0402V65.1683C193.538 65.6688 193.287 66.1693 192.785 66.4821L190.151 68.0461C189.712 68.2963 189.148 68.2963 188.646 68.0461L185.95 66.4821C185.511 66.2318 185.197 65.7313 185.197 65.1683V63.1663L182.814 64.5427V66.6072C182.814 67.1077 183.065 67.6082 183.567 67.921L188.646 70.8613C189.085 71.1116 189.65 71.1116 190.151 70.8613L195.231 67.921C195.67 67.6707 195.983 67.1702 195.983 66.6072V60.6639C195.983 60.1634 195.733 59.6629 195.231 59.3501L190.151 56.4098Z" fill="white"/>
<path d="M152.312 295.946L156.263 303.074L159.911 300.642L154.724 291.241L152.312 295.946Z" fill="white"/>
<path d="M163.288 297.629L163.286 295.784L157.745 286.17L155.69 290.056L161.038 299.693L162.972 298.444C163.162 298.273 163.277 298.021 163.289 297.749L163.288 297.629Z" fill="white"/>
<path d="M137.959 299.654L141.081 301.383L151.468 285.37L149.705 285.325C148.203 285.305 146.585 285.68 145.842 286.846L139.944 295.634L137.959 298.565V299.654H137.959Z" fill="white"/>
<path d="M156.534 285.325L152.135 285.341L142.181 301.899L145.66 303.919L146.606 302.301L156.534 285.325Z" fill="white"/>
<path d="M165.822 285.147C165.784 284.198 165.269 283.328 164.463 282.822L153.169 276.329C152.372 275.928 151.376 275.927 150.578 276.329C150.484 276.376 139.594 282.69 139.594 282.69C139.444 282.762 139.299 282.848 139.162 282.945C138.443 283.461 138.004 284.262 137.959 285.142V298.588L139.899 295.608L139.883 285.233C139.885 285.195 139.89 285.157 139.896 285.12C139.94 284.876 140.076 284.659 140.282 284.511C140.333 284.475 151.408 278.066 151.443 278.048C151.704 277.918 152.034 277.916 152.295 278.045L163.443 284.455C163.707 284.623 163.872 284.908 163.887 285.219V298.072C163.873 298.344 163.766 298.597 163.554 298.769L161.392 300.021L160.277 300.667L156.291 302.976L152.249 305.318C152.031 305.397 151.777 305.392 151.561 305.304L146.778 302.555L145.801 304.211L150.099 306.685C150.241 306.765 150.368 306.837 150.472 306.895C150.633 306.986 150.742 307.046 150.781 307.065C151.087 307.213 151.526 307.299 151.922 307.299C152.285 307.299 152.639 307.233 152.974 307.102L164.716 300.304C165.389 299.782 165.786 298.995 165.822 298.142V285.147Z" fill="white"/>
</g>
<defs>
<clipPath id="clip0_291_1589">
<rect width="472" height="333" fill="white" transform="translate(0 0.5)"/>
</clipPath>
</defs>
</svg>
