<svg width="340" height="47" viewBox="0 0 340 47" fill="none" xmlns="http://www.w3.org/2000/svg">
<path fill-rule="evenodd" clip-rule="evenodd" d="M26.8407 47C23.4032 47 20.3615 44.7891 19.3221 41.535L13.9788 24.8056H10.6936C7.25604 24.8056 4.21432 22.5947 3.17499 19.3406L0 9.4L11.909 9.4L5.62773 0H35.3854H65.1431L58.8618 9.4L70.7708 9.4L67.5958 19.3406C66.5565 22.5947 63.5148 24.8056 60.0772 24.8056H56.792L51.4487 41.535C50.4094 44.7891 47.3676 47 43.93 47H26.8407ZM22.8039 20.2361C22.8039 22.7597 24.7012 24.8056 27.0415 24.8056C29.3819 24.8056 31.2791 22.7597 31.2791 20.2361C31.2791 17.7125 29.3819 15.6667 27.0415 15.6667C24.7012 15.6667 22.8039 17.7125 22.8039 20.2361ZM47.9669 20.2361C47.9669 22.7597 46.0697 24.8056 43.7293 24.8056C41.389 24.8056 39.4917 22.7597 39.4917 20.2361C39.4917 17.7125 41.389 15.6667 43.7293 15.6667C46.0697 15.6667 47.9669 17.7125 47.9669 20.2361Z" fill="#BCEC79"/>
<path d="M340 41.3989H332.984V14.4493H332.934C332.9 14.6504 332.85 14.8516 332.783 15.0527C332.749 15.2538 332.698 15.4381 332.631 15.6057C332.328 16.8124 331.992 17.9521 331.622 19.0247C331.252 20.0638 330.898 21.0526 330.562 21.9912L323.647 41.3989H316.53L309.616 21.9912C309.347 21.3208 309.094 20.6504 308.859 19.98C308.657 19.2761 308.438 18.5554 308.203 17.818C308.034 17.3152 307.883 16.8124 307.748 16.3096L307.345 14.7007H307.294V41.3989H300.278V5.19797H310.575L316.833 22.5443C317.103 23.3152 317.372 24.1364 317.641 25.0079C317.944 25.8459 318.23 26.6839 318.499 27.5219C318.768 28.3934 319.037 29.2481 319.306 30.0861C319.576 30.9241 319.828 31.7453 320.064 32.5498H320.114C320.383 31.7453 320.636 30.9241 320.871 30.0861L321.679 27.4716C321.948 26.6001 322.217 25.7621 322.486 24.9576C322.755 24.1197 323.025 23.3152 323.294 22.5443L329.603 5.19797H340V41.3989Z" fill="#BCEC79"/>
<path d="M285.815 41.3989H292.83V5.19797H282.433L276.124 22.5443C275.855 23.3152 275.586 24.1197 275.316 24.9576C275.047 25.7621 274.778 26.6001 274.509 27.4716L273.701 30.0861C273.466 30.9241 273.213 31.7453 272.944 32.5498H272.894C272.658 31.7453 272.406 30.9241 272.137 30.0861C271.867 29.2481 271.598 28.3934 271.329 27.5219C271.06 26.6839 270.774 25.8459 270.471 25.0079C270.202 24.1364 269.933 23.3152 269.663 22.5443L263.405 5.19797H253.109V41.3989H260.124V14.7007H260.175L260.579 16.3096C260.713 16.8124 260.865 17.3152 261.033 17.818C261.268 18.5554 261.487 19.2761 261.689 19.98C261.924 20.6504 262.177 21.3208 262.446 21.9912L269.361 41.3989H276.477L283.392 21.9912C283.728 21.0526 284.082 20.0638 284.452 19.0247C284.822 17.9521 285.158 16.8124 285.461 15.6057C285.529 15.4381 285.579 15.2538 285.613 15.0527C285.68 14.8516 285.73 14.6504 285.764 14.4493H285.815V41.3989Z" fill="#BCEC79"/>
<path fill-rule="evenodd" clip-rule="evenodd" d="M220.679 41.3989L224.203 32.2984H237.749L241.272 41.3989H248.843L234.761 5.19797H227.19L213.109 41.3989H220.679ZM234.206 23.1476L235.257 25.8627H226.694L227.746 23.1476C228.183 22.0415 228.587 20.9856 228.957 19.98C229.361 18.9744 229.731 17.9689 230.067 16.9633L230.471 15.656C230.639 15.2203 230.791 14.7845 230.925 14.3488H230.976L231.682 16.4605C231.952 17.1644 232.204 17.8683 232.439 18.5722C232.709 19.3096 232.995 20.0638 233.297 20.8348C233.6 21.5722 233.903 22.3431 234.206 23.1476Z" fill="#BCEC79"/>
<path d="M187.333 41.3989L197.276 5.19797H190.109L185.213 23.8012C184.843 25.2761 184.489 26.818 184.153 28.4269C184.052 28.8291 183.968 29.2146 183.901 29.5833L183.699 30.5889H183.648C183.244 28.8459 182.891 27.371 182.588 26.1643L182.285 24.9576C182.185 24.5554 182.084 24.1699 181.983 23.8012L176.935 5.19797H169.718L164.721 23.8012C164.62 24.237 164.502 24.6895 164.368 25.1588C164.267 25.5945 164.149 26.047 164.015 26.5163C163.846 27.2537 163.678 27.9744 163.51 28.6783C163.342 29.3487 163.19 29.9856 163.056 30.5889H163.005C162.938 30.0526 162.837 29.4995 162.702 28.9297C162.568 28.3599 162.433 27.7733 162.298 27.1699C162.164 26.5666 162.029 25.98 161.895 25.4102C161.76 24.8403 161.626 24.304 161.491 23.8012L156.545 5.19797H149.378L159.321 41.3989H166.538L171.535 22.7956C171.703 22.2258 171.855 21.6392 171.989 21.0359L172.494 19.1253C172.628 18.5219 172.763 17.9353 172.898 17.3655C173.066 16.7622 173.217 16.2091 173.352 15.7063H173.402C173.537 16.2426 173.672 16.8124 173.806 17.4158L174.21 19.2258C174.378 19.8627 174.53 20.4828 174.664 21.0862C174.832 21.6895 174.984 22.2593 175.118 22.7956L180.115 41.3989H187.333Z" fill="#BCEC79"/>
<path fill-rule="evenodd" clip-rule="evenodd" d="M136.902 41.7006C134.546 41.7006 132.376 41.114 130.391 39.9408C128.406 38.7341 126.824 37.1252 125.647 35.1141C124.503 33.0694 123.931 30.8403 123.931 28.4269C123.931 26.0135 124.503 23.8013 125.647 21.7901C126.824 19.7454 128.406 18.1365 130.391 16.9633C132.376 15.7566 134.546 15.1533 136.902 15.1533H136.952C139.308 15.1533 141.461 15.7566 143.413 16.9633C145.398 18.1365 146.963 19.7454 148.107 21.7901C149.284 23.8348 149.873 26.0471 149.873 28.4269C149.873 30.8068 149.284 33.0191 148.107 35.0638C146.963 37.1085 145.398 38.7341 143.413 39.9408C141.461 41.114 139.308 41.7006 136.952 41.7006H136.902ZM136.952 34.7621C138.029 34.7621 139.022 34.4772 139.93 33.9074C140.839 33.3375 141.545 32.5833 142.05 31.6448C142.588 30.6727 142.858 29.6001 142.858 28.4269C142.858 27.2873 142.588 26.2314 142.05 25.2594C141.512 24.2873 140.788 23.5163 139.88 22.9465C138.971 22.3767 137.995 22.0918 136.952 22.0918H136.902C135.791 22.0918 134.782 22.3767 133.874 22.9465C132.965 23.5163 132.242 24.2873 131.703 25.2594C131.165 26.2314 130.896 27.2873 130.896 28.4269C130.896 29.5666 131.165 30.6225 131.703 31.5945C132.242 32.5666 132.965 33.3375 133.874 33.9074C134.782 34.4772 135.791 34.7621 136.902 34.7621H136.952Z" fill="#BCEC79"/>
<path d="M94.7671 39.2369C97.5935 40.8793 100.672 41.7006 104.003 41.7006C106.931 41.7006 109.555 41.0972 111.877 39.8905C114.233 38.6503 116.117 37.0414 117.53 35.0637C118.943 33.0526 119.835 30.8906 120.205 28.5777H112.988C112.382 30.4883 111.255 31.9967 109.606 33.1029C107.957 34.209 106.09 34.7621 104.003 34.7621C101.917 34.7621 99.9994 34.2425 98.2497 33.2034C96.5336 32.1643 95.154 30.7733 94.1109 29.0302C93.0678 27.2872 92.5463 25.3766 92.5463 23.2984C92.5463 21.2202 93.0678 19.3096 94.1109 17.5666C95.154 15.8236 96.5336 14.4326 98.2497 13.3935C99.9994 12.3544 101.917 11.8348 104.003 11.8348C105.316 11.8348 106.594 12.1197 107.839 12.6896C109.084 13.2259 110.161 13.98 111.07 14.9521C111.978 15.9242 112.584 17.0135 112.887 18.2202H120.155C119.784 16.075 118.893 13.98 117.48 11.9354C116.1 9.89068 114.249 8.21471 111.928 6.90746C109.606 5.56668 106.965 4.8963 104.003 4.8963C100.672 4.8963 97.5935 5.73428 94.7671 7.41025C91.9743 9.0527 89.7367 11.2817 88.0543 14.0974C86.4055 16.913 85.5811 19.98 85.5811 23.2984C85.5811 26.6169 86.4055 29.6839 88.0543 32.4995C89.7367 35.3151 91.9743 37.5609 94.7671 39.2369Z" fill="#BCEC79"/>
</svg>
