<svg width="1751" height="202" viewBox="0 0 1751 202" fill="none" xmlns="http://www.w3.org/2000/svg">
<path d="M284.665 161.393C268.82 161.393 255.315 156.023 244.15 145.282C233.091 134.542 227.561 120.293 227.561 102.535C227.561 84.8825 233.197 70.6332 244.469 59.7867C255.741 48.9402 269.086 43.517 284.505 43.517C298.116 43.517 309.282 46.973 318.002 53.8849C326.828 60.7969 332.623 69.5698 335.388 80.2036L317.364 86.2648C315.556 78.9275 311.887 72.9726 306.358 68.4001C300.828 63.8275 293.544 61.5413 284.505 61.5413C274.403 61.5413 265.63 65.1568 258.186 72.3877C250.849 79.5124 247.18 89.5613 247.18 102.535C247.18 115.189 250.849 125.131 258.186 132.362C265.524 139.487 274.35 143.049 284.665 143.049C293.491 143.049 300.775 140.657 306.517 135.871C312.259 131.086 316.194 125.185 318.321 118.166L335.866 123.908C333.102 134.436 327.253 143.315 318.321 150.546C309.494 157.777 298.276 161.393 284.665 161.393ZM369.56 138.264C373.813 142.624 378.971 144.804 385.032 144.804C391.093 144.804 396.197 142.624 400.344 138.264C404.598 133.904 406.725 127.843 406.725 120.08C406.725 112.424 404.598 106.469 400.344 102.216C396.197 97.8557 391.093 95.6758 385.032 95.6758C378.971 95.6758 373.813 97.8557 369.56 102.216C365.412 106.469 363.339 112.424 363.339 120.08C363.339 127.737 365.412 133.798 369.56 138.264ZM385.032 78.9275C396.729 78.9275 406.353 82.8089 413.903 90.5715C421.559 98.3342 425.387 108.17 425.387 120.08C425.387 131.99 421.559 141.88 413.903 149.749C406.353 157.511 396.729 161.393 385.032 161.393C373.441 161.393 363.817 157.511 356.161 149.749C348.611 141.88 344.836 131.99 344.836 120.08C344.836 108.17 348.611 98.3342 356.161 90.5715C363.817 82.8089 373.441 78.9275 385.032 78.9275ZM549.5 129.172L571.671 45.9096H591.45L559.708 159H539.929L512.494 73.5043L485.059 159H465.44L433.379 45.9096H453.476L476.126 128.534L502.605 45.9096H522.543L549.5 129.172ZM723.944 159L713.257 130.608H665.405L654.878 159H634.62L678.644 45.9096H700.816L744.84 159H723.944ZM689.331 66.6455L672.104 112.903H706.558L689.331 66.6455ZM884.398 159H865.417V75.7374L830.166 159H813.577L778.645 76.0564V159H759.983V45.9096H785.504L822.19 132.203L858.398 45.9096H884.398V159ZM1035.96 159H1016.98V75.7374L981.729 159H965.14L930.208 76.0564V159H911.545V45.9096H937.067L973.753 132.203L1009.96 45.9096H1035.96V159ZM1121.81 141.454H1141.91C1152.33 141.454 1160.89 138.158 1167.59 131.565C1174.4 124.866 1177.8 115.242 1177.8 102.694C1177.8 90.0398 1174.45 80.3631 1167.75 73.6638C1161.05 66.8582 1152.49 63.4554 1142.07 63.4554H1121.81V141.454ZM1142.55 159H1102.67V45.9096H1142.71C1158.66 45.9096 1171.79 50.9606 1182.11 61.0628C1192.53 71.1649 1197.74 85.042 1197.74 102.694C1197.74 120.24 1192.53 134.011 1182.11 144.006C1171.69 154.002 1158.5 159 1142.55 159ZM1229.42 111.626H1267.54C1267.33 106.735 1265.58 102.641 1262.28 99.3444C1259.09 96.0479 1254.47 94.3997 1248.4 94.3997C1242.87 94.3997 1238.41 96.1543 1235.01 99.6634C1231.6 103.066 1229.74 107.054 1229.42 111.626ZM1269.62 131.884L1285.25 136.829C1283.02 143.953 1278.82 149.855 1272.65 154.534C1266.59 159.106 1259.09 161.393 1250.16 161.393C1239.1 161.393 1229.69 157.618 1221.93 150.068C1214.27 142.518 1210.44 132.416 1210.44 119.761C1210.44 107.851 1214.16 98.0684 1221.61 90.412C1229.16 82.7557 1238.04 78.9275 1248.24 78.9275C1260.15 78.9275 1269.46 82.5962 1276.16 89.9335C1282.86 97.1645 1286.21 106.948 1286.21 119.283C1286.21 122.579 1286.05 124.547 1285.73 125.185H1228.94C1229.16 131.033 1231.28 135.871 1235.32 139.7C1239.47 143.528 1244.42 145.442 1250.16 145.442C1260.15 145.442 1266.64 140.923 1269.62 131.884ZM1322.23 189.306H1303.89V81.3201H1321.75V91.8476C1323.77 88.3384 1326.96 85.4141 1331.32 83.0747C1335.68 80.7353 1340.73 79.5656 1346.48 79.5656C1357.64 79.5656 1366.42 83.3937 1372.8 91.0501C1379.18 98.6 1382.37 108.277 1382.37 120.08C1382.37 131.884 1379.02 141.667 1372.32 149.43C1365.62 157.086 1356.79 160.914 1345.84 160.914C1340.52 160.914 1335.79 159.904 1331.64 157.883C1327.5 155.863 1324.36 153.311 1322.23 150.227V189.306ZM1363.86 120.08C1363.86 112.849 1361.95 107.054 1358.12 102.694C1354.29 98.2279 1349.24 95.9948 1342.97 95.9948C1336.8 95.9948 1331.75 98.2279 1327.81 102.694C1323.99 107.054 1322.07 112.849 1322.07 120.08C1322.07 127.418 1323.99 133.319 1327.81 137.786C1331.75 142.252 1336.8 144.485 1342.97 144.485C1349.14 144.485 1354.13 142.252 1357.96 137.786C1361.9 133.319 1363.86 127.418 1363.86 120.08ZM1418.66 159H1400.15V43.517H1418.66V159ZM1461.19 138.264C1465.44 142.624 1470.6 144.804 1476.66 144.804C1482.72 144.804 1487.82 142.624 1491.97 138.264C1496.22 133.904 1498.35 127.843 1498.35 120.08C1498.35 112.424 1496.22 106.469 1491.97 102.216C1487.82 97.8557 1482.72 95.6758 1476.66 95.6758C1470.6 95.6758 1465.44 97.8557 1461.19 102.216C1457.04 106.469 1454.96 112.424 1454.96 120.08C1454.96 127.737 1457.04 133.798 1461.19 138.264ZM1476.66 78.9275C1488.35 78.9275 1497.98 82.8089 1505.53 90.5715C1513.18 98.3342 1517.01 108.17 1517.01 120.08C1517.01 131.99 1513.18 141.88 1505.53 149.749C1497.98 157.511 1488.35 161.393 1476.66 161.393C1465.07 161.393 1455.44 157.511 1447.79 149.749C1440.24 141.88 1436.46 131.99 1436.46 120.08C1436.46 108.17 1440.24 98.3342 1447.79 90.5715C1455.44 82.8089 1465.07 78.9275 1476.66 78.9275ZM1554.92 190.423H1535.14L1553.8 149.749L1520.62 81.3201H1541.52L1563.85 130.448L1584.75 81.3201H1604.36L1554.92 190.423ZM1627.26 111.626H1665.38C1665.16 106.735 1663.41 102.641 1660.11 99.3444C1656.92 96.0479 1652.3 94.3997 1646.24 94.3997C1640.71 94.3997 1636.24 96.1543 1632.84 99.6634C1629.44 103.066 1627.57 107.054 1627.26 111.626ZM1667.45 131.884L1683.08 136.829C1680.85 143.953 1676.65 149.855 1670.48 154.534C1664.42 159.106 1656.92 161.393 1647.99 161.393C1636.93 161.393 1627.52 157.618 1619.76 150.068C1612.1 142.518 1608.27 132.416 1608.27 119.761C1608.27 107.851 1612 98.0684 1619.44 90.412C1626.99 82.7557 1635.87 78.9275 1646.08 78.9275C1657.99 78.9275 1667.29 82.5962 1673.99 89.9335C1680.69 97.1645 1684.04 106.948 1684.04 119.283C1684.04 122.579 1683.88 124.547 1683.56 125.185H1626.78C1626.99 131.033 1629.12 135.871 1633.16 139.7C1637.3 143.528 1642.25 145.442 1647.99 145.442C1657.99 145.442 1664.47 140.923 1667.45 131.884ZM1747.18 80.8416V99.6634C1745.05 99.3444 1743.03 99.1849 1741.12 99.1849C1727.19 99.1849 1720.22 106.788 1720.22 121.994V159H1701.72V81.3201H1719.75V93.7617C1721.55 89.6145 1724.48 86.3712 1728.52 84.0317C1732.56 81.586 1737.13 80.3631 1742.24 80.3631C1743.94 80.3631 1745.59 80.5226 1747.18 80.8416Z" fill="#F6F2E7"/>
<path d="M153.727 31.5513H128.268C117.149 31.5513 106.485 35.9684 98.6223 43.8309L69.9271 72.5261C58.1333 84.3199 42.1375 90.9456 25.4585 90.9456H0V127.63H25.4585C36.5778 127.63 47.2417 123.213 55.1042 115.351L83.7994 86.6555C95.5932 74.8617 111.589 68.236 128.268 68.236H153.727V31.5513Z" fill="#F6F2E7"/>
<path d="M153.727 89.1987H128.268C117.149 89.1987 106.485 93.6159 98.6223 101.478L69.9271 130.174C58.1333 141.967 42.1375 148.593 25.4585 148.593H0V185.278H25.4585C36.5778 185.278 47.2417 180.861 55.1042 172.998L83.7994 144.303C95.5932 132.509 111.589 125.883 128.268 125.883H153.727V89.1987Z" fill="#F6F2E7"/>
<path d="M153.727 146.846H128.268C117.149 146.846 106.485 151.263 98.6223 159.126L72.4703 185.278H153.727V146.846Z" fill="#F6F2E7"/>
<path d="M0 69.9829H25.4585C36.5778 69.9829 47.2417 65.5658 55.1042 57.7032L81.2562 31.5513H0V69.9829Z" fill="#F6F2E7"/>
</svg>
