<svg width="1200" height="675" viewBox="0 0 1200 675" fill="none" xmlns="http://www.w3.org/2000/svg">
<g clip-path="url(#clip0_2003_238)">
<rect width="1200" height="675" fill="#211715"/>
<path d="M816 234H807.908V198.504L792.88 234H785.808L770.916 198.64V234H762.96V185.788H773.84L789.48 222.576L804.916 185.788H816V234Z" fill="#F6F2E7"/>
<path d="M751.387 234H743.295V198.504L728.267 234H721.195L706.303 198.64V234H698.347V185.788H709.227L724.867 222.576L740.303 185.788H751.387V234Z" fill="#F6F2E7"/>
<path d="M682.983 234L678.427 221.896H658.027L653.539 234H644.903L663.671 185.788H673.123L691.891 234H682.983ZM668.227 194.628L660.883 214.348H675.571L668.227 194.628Z" fill="#F6F2E7"/>
<path d="M608.615 221.284L618.067 185.788H626.499L612.967 234H604.535L592.839 197.552L581.143 234H572.779L559.111 185.788H567.679L577.335 221.012L588.623 185.788H597.123L608.615 221.284Z" fill="#F6F2E7"/>
<path d="M541.22 227.948C546.116 227.948 550.468 224.344 550.468 217.408C550.468 210.54 546.116 207.004 541.22 207.004C536.392 207.004 531.972 210.54 531.972 217.408C531.972 224.276 536.392 227.948 541.22 227.948ZM541.22 199.864C551.148 199.864 558.424 207.276 558.424 217.408C558.424 227.608 551.148 235.02 541.22 235.02C531.36 235.02 524.084 227.608 524.084 217.408C524.084 207.276 531.36 199.864 541.22 199.864Z" fill="#F6F2E7"/>
<path d="M496.393 235.02C483.405 235.02 472.049 225.636 472.049 209.928C472.049 194.22 483.813 184.768 496.325 184.768C508.565 184.768 515.841 191.976 518.017 200.408L510.333 202.992C508.905 197.144 504.417 192.452 496.325 192.452C488.369 192.452 480.413 198.232 480.413 209.928C480.413 221.216 488.165 227.2 496.393 227.2C504.485 227.2 509.109 222.032 510.741 216.592L518.221 219.04C516.045 227.2 508.701 235.02 496.393 235.02Z" fill="#F6F2E7"/>
<path d="M448 178H436.284C432.041 178 427.971 179.686 424.971 182.686L412.687 194.97C408.186 199.471 402.081 202 395.716 202H384V218H395.716C399.959 218 404.029 216.314 407.029 213.314L419.313 201.03C423.814 196.529 429.919 194 436.284 194H448V178Z" fill="#F6F2E7"/>
<path d="M448 202H436.284C432.041 202 427.971 203.686 424.971 206.686L412.687 218.97C408.186 223.471 402.081 226 395.716 226H384V242H395.716C399.959 242 404.029 240.314 407.029 237.314L419.313 225.03C423.814 220.529 429.919 218 436.284 218H448V202Z" fill="#F6F2E7"/>
<path d="M448 226H436.284C432.041 226 427.971 227.686 424.971 230.686L413.657 242H448V226Z" fill="#F6F2E7"/>
<path d="M384 194H395.716C399.959 194 404.029 192.314 407.029 189.314L418.343 178H384V194Z" fill="#F6F2E7"/>
<path d="M201.97 362.808H200.294L193.075 354.912H184.632V393.971L190.368 395.292V397H171.129V395.292L176.865 393.971V354.912H168.422L161.203 362.808H159.527L161.719 352.108H199.778L201.97 362.808ZM239.771 395.292V397H224.013V395.292L228.202 394.164V376.375C228.202 374.377 227.654 372.895 226.526 371.896C225.398 370.929 223.884 370.445 221.95 370.445C220.693 370.445 219.501 370.639 218.438 370.993C217.374 371.348 216.472 371.799 215.763 372.314V394.164L219.984 395.292V397H204.226V395.292L208.705 394.164V355.557L203.807 353.269V351.689L215.763 349.82V370.542C219.243 367.158 222.853 365.45 226.623 365.45C228.396 365.45 229.942 365.837 231.264 366.578C232.585 367.352 233.584 368.415 234.261 369.769C234.938 371.122 235.292 372.669 235.292 374.377V394.164L239.771 395.292ZM265.456 391.489C266.81 391.103 267.97 390.587 268.904 389.942L269.968 391.328C268.743 393.101 267.1 394.583 265.037 395.808C262.942 397.032 260.364 397.645 257.271 397.645C254.273 397.645 251.695 397.032 249.472 395.775C247.248 394.519 245.54 392.746 244.348 390.458C243.155 388.17 242.543 385.463 242.543 382.369C242.543 379.179 243.188 376.278 244.444 373.7C245.701 371.154 247.441 369.124 249.729 367.642C251.985 366.191 254.563 365.45 257.464 365.45C259.881 365.45 262.04 365.966 263.909 367.029C265.778 368.093 267.261 369.607 268.324 371.605C269.388 373.636 269.936 376.021 269.968 378.824H249.085V379.05C249.085 383.207 250.084 386.397 252.082 388.653C254.08 390.941 257.045 392.069 261.009 392.069C262.62 392.069 264.103 391.876 265.456 391.489ZM251.566 370.252C250.342 371.702 249.568 373.7 249.246 376.311H262.427C262.266 373.636 261.686 371.573 260.654 370.188C259.623 368.802 258.173 368.093 256.271 368.093C254.338 368.093 252.759 368.802 251.566 370.252ZM298.359 356.233L299.004 366.095H307.641V369.543H299.101V394.164L304.45 395.292V397H287.563V395.292L292.043 394.164V369.543H287.435V366.095H292.043V363.839C292.043 362.131 292.462 360.455 293.332 358.812C294.202 357.2 295.362 355.718 296.877 354.332C299.842 351.625 303.226 350.271 307.028 350.271H310.928V356.233H298.359ZM321.305 358.973H313.86V352.076H321.305V358.973ZM309.574 395.292L314.054 394.164V370.478L309.8 367.899V366.095H321.111V394.164L325.591 395.292V397H309.574V395.292ZM339.352 374.345V394.164L344.701 395.292V397H327.814V395.292L332.294 394.164V370.478L328.04 367.899V366.095H339.223V372.959C342.026 368.254 345.217 365.901 348.794 365.901H350.438V373.281H344.153C342.091 373.281 340.479 373.636 339.352 374.345ZM355.4 388.202L357.398 390.845C358.462 392.263 359.622 393.326 360.814 394.035C362.007 394.744 363.425 395.099 365.133 395.099C366.776 395.099 368.13 394.68 369.129 393.842C370.128 393.036 370.611 391.876 370.611 390.426C370.611 389.362 370.354 388.492 369.87 387.783C369.387 387.106 368.581 386.462 367.453 385.914C366.841 385.624 365.616 385.141 363.779 384.496C362.522 384.077 361.491 383.69 360.653 383.336C359.783 383.014 359.042 382.659 358.365 382.305C356.979 381.531 355.948 380.532 355.271 379.34C354.562 378.147 354.208 376.633 354.208 374.828C354.208 373.088 354.659 371.509 355.529 370.091C356.399 368.705 357.656 367.577 359.3 366.771C360.911 365.966 362.78 365.547 364.907 365.547C365.777 365.547 367.356 365.644 369.58 365.837C371.353 365.998 372.513 366.095 373.125 366.095H373.77L375.123 374.055H373.641L371.61 371.638C370.547 370.349 369.516 369.414 368.517 368.834C367.518 368.286 366.261 367.996 364.778 367.996C363.264 367.996 362.039 368.351 361.137 369.092C360.202 369.833 359.751 370.864 359.751 372.153C359.751 373.12 360.009 373.926 360.524 374.538C361.04 375.15 361.846 375.73 362.974 376.278C363.618 376.568 364.811 377.02 366.519 377.567C367.775 377.986 368.807 378.341 369.677 378.663C370.547 378.985 371.288 379.34 371.965 379.727C373.318 380.532 374.35 381.531 375.091 382.756C375.8 383.98 376.154 385.527 376.154 387.429C376.154 389.33 375.703 391.07 374.801 392.585C373.866 394.132 372.577 395.356 370.901 396.227C369.193 397.097 367.228 397.548 365.004 397.548C364.069 397.548 363.135 397.516 362.136 397.419C361.137 397.322 360.524 397.29 360.299 397.258C358.462 397.097 357.108 397 356.238 397H355.336L353.854 388.202H355.4ZM390.721 358.264V366.095H400.228V369.543H390.721V387.525C390.721 389.233 391.172 390.555 392.042 391.489C392.912 392.424 394.266 392.907 396.038 392.907C397.553 392.907 398.906 392.585 400.034 391.94L400.969 393.294C400.131 394.551 398.971 395.582 397.488 396.388C395.974 397.226 394.233 397.645 392.203 397.645C390.624 397.645 389.206 397.322 387.917 396.71C386.628 396.098 385.597 395.099 384.823 393.777C384.05 392.456 383.663 390.78 383.663 388.75V369.543H379.119V368.286L389.689 358.264H390.721ZM1036.64 394.583C1036.64 397.709 1035.8 400.48 1034.16 402.865C1032.48 405.25 1030.06 407.184 1026.91 408.698L1025.65 407.087C1027.23 405.508 1028.32 403.8 1028.94 401.931C1029.55 400.094 1029.87 397.645 1029.87 394.647V389.523H1036.64V394.583ZM231.36 447.287C233.101 448.512 234.454 450.188 235.389 452.314C236.323 454.474 236.774 456.891 236.774 459.565C236.774 462.885 236.065 465.85 234.68 468.492C233.294 471.135 231.328 473.197 228.782 474.712C226.236 476.227 223.336 477 220.081 477H208.383V435.557L203.484 433.269V431.689L215.44 429.82V450.51C216.697 448.963 218.18 447.738 219.823 446.804C221.467 445.901 223.271 445.45 225.27 445.45C227.59 445.45 229.62 446.062 231.36 447.287ZM228.814 469.846C229.685 467.912 230.136 465.527 230.136 462.724C230.136 458.76 229.362 455.73 227.783 453.604C226.204 451.477 223.98 450.413 221.112 450.413C218.953 450.413 217.084 451.058 215.44 452.314V472.521L224.851 473.938C226.623 473.133 227.944 471.779 228.814 469.846ZM251.599 454.345V474.164L256.948 475.292V477H240.062V475.292L244.541 474.164V450.478L240.287 447.899V446.095H251.47V452.959C254.273 448.254 257.464 445.901 261.041 445.901H262.685V453.281H256.4C254.338 453.281 252.727 453.636 251.599 454.345ZM272.997 475.582C270.645 474.229 268.84 472.327 267.551 469.91C266.229 467.493 265.585 464.754 265.585 461.66C265.585 458.502 266.229 455.698 267.551 453.249C268.84 450.8 270.645 448.898 272.997 447.513C275.317 446.127 277.992 445.45 281.021 445.45C284.019 445.45 286.661 446.127 289.014 447.48C291.334 448.866 293.139 450.768 294.46 453.185C295.749 455.602 296.394 458.373 296.394 461.435C296.394 464.593 295.749 467.396 294.46 469.846C293.139 472.327 291.334 474.229 289.014 475.582C286.661 476.968 283.986 477.645 280.957 477.645C277.96 477.645 275.317 476.968 272.997 475.582ZM286.629 471.876C287.821 469.685 288.401 466.236 288.401 461.563C288.401 456.858 287.821 453.41 286.629 451.219C285.437 449.027 283.535 447.932 280.989 447.932C278.411 447.932 276.542 449.027 275.35 451.219C274.157 453.442 273.545 456.858 273.545 461.531C273.545 466.236 274.157 469.685 275.35 471.876C276.542 474.067 278.443 475.163 280.989 475.163C283.567 475.163 285.437 474.067 286.629 471.876ZM334.937 473.713V475.195L323.593 477.645L323.303 472.456C321.917 473.971 320.338 475.228 318.501 476.194C316.664 477.161 314.666 477.645 312.507 477.645C310.67 477.645 309.091 477.258 307.77 476.452C306.448 475.646 305.417 474.583 304.74 473.197C304.063 471.844 303.709 470.297 303.709 468.589V450.478L299.423 447.899V446.095H310.767V466.945C310.767 470.748 312.861 472.649 317.019 472.649C318.211 472.649 319.339 472.456 320.402 472.102C321.466 471.747 322.336 471.328 323.045 470.845V450.478L318.791 447.899V446.095H330.103V472.585L334.937 473.713ZM363.973 449.414C363.425 449.414 362.941 449.446 362.587 449.543C364.295 451.38 365.133 453.604 365.133 456.246C365.133 458.405 364.585 460.339 363.489 461.982C362.394 463.658 360.847 464.947 358.849 465.882C356.851 466.816 354.562 467.3 351.952 467.3C349.471 467.3 347.279 466.849 345.346 465.979C343.896 466.913 343.154 468.041 343.154 469.298C343.154 470.426 343.573 471.264 344.379 471.876C345.185 472.488 346.28 472.811 347.666 472.811H360.363C363.07 472.811 365.197 473.455 366.776 474.712C368.323 475.969 369.097 477.838 369.097 480.255C369.097 482.35 368.452 484.38 367.163 486.281C365.842 488.183 363.779 489.762 360.976 490.986C358.172 492.243 354.595 492.855 350.276 492.855C346.957 492.855 344.282 492.469 342.188 491.695C340.093 490.922 338.578 489.891 337.644 488.602C336.709 487.312 336.226 485.862 336.226 484.251C336.226 483.155 336.419 482.092 336.838 481.028H342.059C341.833 481.705 341.704 482.414 341.704 483.155C341.704 485.25 342.574 486.861 344.347 487.989C346.087 489.117 348.891 489.665 352.79 489.665C356.689 489.665 359.59 489.085 361.556 487.957C363.521 486.829 364.488 485.314 364.488 483.413C364.488 480.738 362.651 479.385 358.978 479.385H346.474C344.766 479.385 343.283 479.095 342.091 478.482C340.898 477.902 339.996 477.097 339.384 476.098C338.771 475.099 338.481 473.938 338.481 472.682C338.481 471.07 338.965 469.62 339.932 468.299C340.898 466.978 342.188 465.946 343.831 465.173C342.284 464.206 341.092 462.981 340.254 461.499C339.416 460.017 338.997 458.341 338.997 456.504C338.997 454.409 339.545 452.508 340.673 450.832C341.769 449.188 343.315 447.899 345.313 446.965C347.312 446.03 349.6 445.579 352.146 445.579C354.015 445.579 355.723 445.805 357.302 446.288C358.849 446.771 360.202 447.48 361.33 448.383C362.104 446.836 363.167 445.579 364.488 444.58C365.81 443.613 367.356 443.13 369.129 443.13H370.418V449.414H363.973ZM356.689 462.788C357.785 461.402 358.333 459.275 358.333 456.472C358.333 453.668 357.785 451.541 356.689 450.091C355.562 448.641 354.015 447.932 352.049 447.932C350.115 447.932 348.633 448.608 347.569 449.994C346.506 451.38 345.958 453.475 345.958 456.278C345.958 459.146 346.474 461.306 347.537 462.756C348.601 464.206 350.083 464.915 352.049 464.915C354.015 464.915 355.562 464.206 356.689 462.788ZM407.704 475.292V477H391.945V475.292L396.135 474.164V456.375C396.135 454.377 395.587 452.895 394.459 451.896C393.331 450.929 391.816 450.445 389.883 450.445C388.626 450.445 387.434 450.639 386.37 450.993C385.307 451.348 384.404 451.799 383.695 452.314V474.164L387.917 475.292V477H372.158V475.292L376.638 474.164V435.557L371.739 433.269V431.689L383.695 429.82V450.542C387.176 447.158 390.785 445.45 394.556 445.45C396.328 445.45 397.875 445.837 399.196 446.578C400.518 447.352 401.517 448.415 402.193 449.769C402.87 451.122 403.225 452.669 403.225 454.377V474.164L407.704 475.292ZM420.466 438.264V446.095H429.973V449.543H420.466V467.525C420.466 469.233 420.917 470.555 421.787 471.489C422.657 472.424 424.011 472.907 425.783 472.907C427.298 472.907 428.651 472.585 429.779 471.94L430.714 473.294C429.876 474.551 428.716 475.582 427.233 476.388C425.719 477.226 423.979 477.645 421.948 477.645C420.369 477.645 418.951 477.322 417.662 476.71C416.373 476.098 415.342 475.099 414.568 473.777C413.795 472.456 413.408 470.78 413.408 468.75V449.543H408.864V448.286L419.435 438.264H420.466ZM457.913 438.264V446.095H467.42V449.543H457.913V467.525C457.913 469.233 458.364 470.555 459.234 471.489C460.104 472.424 461.458 472.907 463.23 472.907C464.745 472.907 466.099 472.585 467.227 471.94L468.161 473.294C467.323 474.551 466.163 475.582 464.681 476.388C463.166 477.226 461.426 477.645 459.396 477.645C457.816 477.645 456.398 477.322 455.109 476.71C453.82 476.098 452.789 475.099 452.016 473.777C451.242 472.456 450.855 470.78 450.855 468.75V449.543H446.312V448.286L456.882 438.264H457.913ZM477.507 475.582C475.154 474.229 473.35 472.327 472.061 469.91C470.739 467.493 470.095 464.754 470.095 461.66C470.095 458.502 470.739 455.698 472.061 453.249C473.35 450.8 475.154 448.898 477.507 447.513C479.827 446.127 482.502 445.45 485.531 445.45C488.528 445.45 491.171 446.127 493.523 447.48C495.844 448.866 497.648 450.768 498.97 453.185C500.259 455.602 500.903 458.373 500.903 461.435C500.903 464.593 500.259 467.396 498.97 469.846C497.648 472.327 495.844 474.229 493.523 475.582C491.171 476.968 488.496 477.645 485.467 477.645C482.47 477.645 479.827 476.968 477.507 475.582ZM491.139 471.876C492.331 469.685 492.911 466.236 492.911 461.563C492.911 456.858 492.331 453.41 491.139 451.219C489.946 449.027 488.045 447.932 485.499 447.932C482.921 447.932 481.052 449.027 479.859 451.219C478.667 453.442 478.055 456.858 478.055 461.531C478.055 466.236 478.667 469.685 479.859 471.876C481.052 474.067 482.953 475.163 485.499 475.163C488.077 475.163 489.946 474.067 491.139 471.876ZM548.599 446.095V447.803L544.635 449.382L532.969 479.385C531.422 483.316 529.553 486.475 527.361 488.859C525.17 491.244 522.753 492.437 520.11 492.437H517.564V485.927H526.523C527.909 484.122 529.102 481.931 530.101 479.32L530.745 477.677L519.305 448.866L515.695 447.803V446.095H530.777V447.803L526.685 448.641L534.387 468.202L541.734 449.221L537.126 447.803V446.095H548.599ZM556.462 475.582C554.109 474.229 552.305 472.327 551.016 469.91C549.694 467.493 549.05 464.754 549.05 461.66C549.05 458.502 549.694 455.698 551.016 453.249C552.305 450.8 554.109 448.898 556.462 447.513C558.782 446.127 561.457 445.45 564.486 445.45C567.483 445.45 570.126 446.127 572.479 447.48C574.799 448.866 576.604 450.768 577.925 453.185C579.214 455.602 579.858 458.373 579.858 461.435C579.858 464.593 579.214 467.396 577.925 469.846C576.604 472.327 574.799 474.229 572.479 475.582C570.126 476.968 567.451 477.645 564.422 477.645C561.425 477.645 558.782 476.968 556.462 475.582ZM570.094 471.876C571.286 469.685 571.866 466.236 571.866 461.563C571.866 456.858 571.286 453.41 570.094 451.219C568.901 449.027 567 447.932 564.454 447.932C561.876 447.932 560.007 449.027 558.814 451.219C557.622 453.442 557.01 456.858 557.01 461.531C557.01 466.236 557.622 469.685 558.814 471.876C560.007 474.067 561.908 475.163 564.454 475.163C567.032 475.163 568.901 474.067 570.094 471.876ZM618.401 473.713V475.195L607.058 477.645L606.768 472.456C605.382 473.971 603.803 475.228 601.966 476.194C600.129 477.161 598.131 477.645 595.972 477.645C594.135 477.645 592.556 477.258 591.234 476.452C589.913 475.646 588.882 474.583 588.205 473.197C587.528 471.844 587.174 470.297 587.174 468.589V450.478L582.888 447.899V446.095H594.231V466.945C594.231 470.748 596.326 472.649 600.483 472.649C601.676 472.649 602.804 472.456 603.867 472.102C604.931 471.747 605.801 471.328 606.51 470.845V450.478L602.256 447.899V446.095H613.567V472.585L618.401 473.713ZM660.747 447.287C662.487 448.512 663.841 450.188 664.775 452.314C665.71 454.474 666.161 456.891 666.161 459.565C666.161 462.885 665.452 465.85 664.066 468.492C662.681 471.135 660.715 473.197 658.169 474.712C655.623 476.227 652.723 477 649.468 477H637.77V435.557L632.871 433.269V431.689L644.827 429.82V450.51C646.084 448.963 647.566 447.738 649.21 446.804C650.854 445.901 652.658 445.45 654.656 445.45C656.977 445.45 659.007 446.062 660.747 447.287ZM658.201 469.846C659.071 467.912 659.522 465.527 659.522 462.724C659.522 458.76 658.749 455.73 657.17 453.604C655.591 451.477 653.367 450.413 650.499 450.413C648.34 450.413 646.471 451.058 644.827 452.314V472.521L654.237 473.938C656.01 473.133 657.331 471.779 658.201 469.846ZM700.063 446.095V447.803L696.1 449.382L684.434 479.385C682.887 483.316 681.018 486.475 678.826 488.859C676.635 491.244 674.218 492.437 671.575 492.437H669.029V485.927H677.988C679.374 484.122 680.566 481.931 681.565 479.32L682.21 477.677L670.77 448.866L667.16 447.803V446.095H682.242V447.803L678.149 448.641L685.852 468.202L693.199 449.221L688.591 447.803V446.095H700.063Z" fill="#F6F2E7"/>
<path d="M475.896 353.849L470.32 355.267L460.685 393.874L465.519 395.292L465.132 397H447.375L447.826 395.292L453.401 393.842L462.876 356.008H462.296L438.062 397H436.45L432.551 356.072H431.971L422.689 393.197L427.62 395.292L427.233 397H413.247L413.698 395.292L419.692 393.197L429.103 355.589L424.591 353.849L424.978 352.108H439.576L442.605 384.206L461.587 352.108H476.347L475.896 353.849ZM502.74 354.912H491.525L487.336 371.638H504.319L503.353 375.376H486.401L481.696 394.196H495.908L504.996 386.107H506.575L501.548 397H468.258L468.709 395.292L474.284 393.842L483.92 355.234L479.086 353.849L479.473 352.108H509.153L510.249 362.195H508.638L502.74 354.912ZM545.473 352.108H558.686L558.234 353.849L553.207 355.589L530.133 397H522.753L519.498 355.041L515.438 353.849L515.889 352.108H532.679L532.195 353.849L527.007 354.977L529.746 392.069L550.049 355.428L545.021 353.849L545.473 352.108ZM565.743 378.695L564.776 382.53H550.887L551.854 378.695H565.743ZM580.503 395.26C577.828 393.681 575.798 391.457 574.412 388.653C572.994 385.85 572.285 382.691 572.285 379.114C572.285 376.858 572.607 374.441 573.22 371.896C574.283 367.609 576.056 363.903 578.473 360.842C580.89 357.78 583.887 355.46 587.399 353.881C590.912 352.302 594.812 351.496 599.098 351.496C600.548 351.496 602.481 351.593 604.834 351.818C606.864 352.012 608.54 352.108 609.894 352.108H611.021L611.763 362.195H610.184L607.992 359.134C606.8 357.49 605.479 356.298 603.996 355.492C602.481 354.687 600.516 354.3 598.034 354.3C593.845 354.3 590.429 355.589 587.786 358.135C585.111 360.681 583.081 364.773 581.663 370.381C580.825 373.732 580.406 376.826 580.406 379.694C580.406 384.045 581.438 387.429 583.532 389.878C585.595 392.327 588.721 393.552 592.878 393.552C595.617 393.552 597.938 393.068 599.774 392.069C601.611 391.07 603.287 389.717 604.737 387.977L606.381 389.298C605.575 390.651 604.415 391.973 602.9 393.229C601.386 394.519 599.517 395.582 597.293 396.388C595.069 397.226 592.652 397.645 589.978 397.645C586.336 397.645 583.178 396.839 580.503 395.26ZM644.312 385.398C640.831 393.133 636.835 397 632.291 397H628.263L633.097 379.211H632.291C630.1 383.271 628.134 386.591 626.426 389.201C624.686 391.812 622.945 393.874 621.205 395.389C619.465 396.903 617.725 397.645 615.984 397.645C614.18 397.645 612.794 397.032 611.827 395.808C610.828 394.583 610.345 392.972 610.345 391.006C610.345 389.942 610.474 388.879 610.764 387.815C611.408 385.237 612.633 382.53 614.47 379.694C616.274 376.891 618.53 374.248 621.205 371.831C623.88 369.414 626.748 367.48 629.842 366.095H642.056L635.578 392.037H635.836C636.932 392.037 638.027 391.457 639.091 390.297C640.154 389.169 641.347 387.3 642.636 384.722L644.312 385.398ZM625.749 386.043C628.424 382.272 630.938 378.083 633.354 373.475L634.45 371.348H625.878C623.848 373.12 622.043 375.279 620.528 377.825C619.014 380.371 617.95 382.756 617.37 385.044C617.112 386.107 616.983 387.074 616.983 388.009C616.983 389.137 617.177 390.039 617.563 390.716C617.95 391.393 618.53 391.715 619.304 391.715C620.947 391.715 623.074 389.813 625.749 386.043ZM670.028 367.674C672.188 368.77 673.831 370.252 674.991 372.121C676.119 374.022 676.699 376.149 676.699 378.502C676.699 379.694 676.538 380.983 676.216 382.305C675.41 385.495 673.928 388.331 671.704 390.877C669.48 393.423 666.902 395.453 664.034 397H654.688L651.627 409.375L656.429 410.632L656.01 412.179H640.154L640.573 410.632L645.117 409.407L654.785 370.864C653.399 371.187 652.046 371.638 650.757 372.25C649.436 372.862 648.308 373.571 647.341 374.345L646.277 373.056C647.76 371.67 649.274 370.478 650.789 369.446C652.304 368.447 653.979 367.642 655.752 367.062L657.396 360.487H663.809L662.423 366.03C665.355 366.062 667.869 366.61 670.028 367.674ZM671.382 382.337C671.382 379.243 670.512 376.665 668.739 374.57C666.967 372.476 664.485 371.187 661.263 370.671L656.01 391.715H668.159C669.48 390.361 670.351 388.686 670.834 386.72C671.188 385.27 671.382 383.819 671.382 382.337ZM688.849 389.362C688.752 389.717 688.688 390.136 688.688 390.555C688.688 391.231 688.881 391.747 689.235 392.102C689.59 392.456 690.073 392.649 690.686 392.649C691.685 392.649 692.78 392.005 693.94 390.684C695.101 389.395 696.422 387.396 697.872 384.722L699.516 385.624C697.485 389.459 695.487 392.424 693.521 394.519C691.556 396.613 689.429 397.645 687.173 397.645C685.529 397.645 684.208 397.161 683.273 396.194C682.307 395.228 681.823 393.938 681.823 392.295C681.823 391.586 681.92 390.845 682.113 390.071L687.27 369.414H682.178L682.983 366.095H688.107L690.041 358.296H696.615L694.682 366.095H702.964L702.126 369.414H693.844L688.849 389.362ZM738.188 385.398C734.707 393.133 730.711 397 726.167 397H721.978L726.747 378.953H725.974C725.394 380.339 724.717 381.789 723.943 383.304C723.138 384.818 722.139 386.591 720.882 388.686C719.303 391.296 717.691 393.455 716.016 395.131C714.308 396.807 712.503 397.645 710.602 397.645C709.151 397.645 707.991 397.129 707.089 396.13C706.187 395.131 705.735 393.81 705.735 392.198C705.735 391.521 705.832 390.78 706.025 390.007L710.73 371.154H710.247C709.184 371.154 708.12 371.767 707.089 372.991C706.025 374.248 704.897 376.246 703.705 378.985L701.933 378.438C705.284 370.22 709.184 366.095 713.631 366.095H718.562L712.857 388.879C712.761 389.362 712.696 389.749 712.696 390.104C712.696 390.716 712.825 391.199 713.083 391.554C713.341 391.94 713.728 392.134 714.275 392.134C715.081 392.134 715.983 391.554 716.982 390.426C717.949 389.298 719.142 387.525 720.592 385.141C721.913 382.917 723.299 380.371 724.717 377.503C726.103 374.635 727.23 372.089 728.101 369.865L729.551 366.095H735.932L729.454 392.037H729.712C730.808 392.037 731.903 391.457 732.967 390.297C734.03 389.169 735.223 387.3 736.512 384.722L738.188 385.398ZM768.706 365.515L766.901 372.862H765C763.679 372.862 762.583 373.023 761.745 373.346C760.875 373.7 760.037 374.28 759.231 375.086C757.362 376.955 755.558 379.727 753.785 383.433C752.013 387.139 750.434 391.07 749.08 395.228L748.468 397H742.119L748.564 371.154H748.081C747.018 371.154 745.954 371.767 744.923 372.991C743.859 374.248 742.731 376.246 741.539 378.985L739.767 378.438C743.118 370.22 747.018 366.095 751.465 366.095H756.009L751.4 383.143H752.206C754.301 378.631 756.009 375.15 757.395 372.701C758.78 370.284 760.102 368.479 761.391 367.287C762.68 366.095 764.065 365.515 765.548 365.515H768.706ZM787.655 352.237L785.947 358.973H778.793L780.533 352.237H787.655ZM780.759 390.297C781.822 389.169 783.015 387.3 784.304 384.722L785.979 385.398C782.499 393.133 778.503 397 773.959 397H769.028L776.279 371.154H775.474C774.41 371.154 773.347 371.767 772.315 372.991C771.252 374.248 770.124 376.246 768.932 378.985L767.159 378.438C770.511 370.22 774.41 366.095 778.857 366.095H784.271L776.956 392.037H777.504C778.6 392.037 779.695 391.457 780.759 390.297ZM823.459 385.398C819.946 393.133 815.95 397 811.406 397H806.572L813.114 374.441C813.308 373.797 813.404 373.185 813.404 372.604C813.404 371.315 812.889 370.671 811.89 370.671C810.762 370.671 809.312 371.863 807.507 374.216C805.702 376.568 803.897 379.501 802.093 382.981C800.256 386.462 798.838 389.717 797.774 392.746L796.292 397H790.008L796.453 371.154H795.97C794.906 371.154 793.843 371.767 792.812 372.991C791.748 374.248 790.62 376.246 789.428 378.985L787.655 378.438C791.007 370.22 794.906 366.095 799.354 366.095H803.962L799.321 383.078H800.127C802.093 379.275 803.833 376.149 805.38 373.668C806.895 371.219 808.506 369.221 810.214 367.706C811.89 366.191 813.63 365.45 815.402 365.45C816.949 365.45 818.174 365.934 819.076 366.868C819.979 367.835 820.43 369.124 820.43 370.735C820.43 371.638 820.301 372.54 820.011 373.475L814.597 392.037H814.983C816.079 392.037 817.175 391.457 818.238 390.297C819.302 389.169 820.494 387.3 821.751 384.722L823.459 385.398ZM857.2 367.158L855.943 372.186H851.657C851.561 374.441 850.755 376.536 849.24 378.438C847.726 380.371 845.824 382.111 843.536 383.69L839.862 386.172C838.799 386.881 838.283 387.59 838.283 388.331C838.283 388.976 838.67 389.652 839.476 390.329L846.05 396.001C847.436 397.193 848.402 398.225 849.015 399.095C849.627 399.997 849.917 400.932 849.917 401.931C849.917 402.414 849.853 402.93 849.724 403.478C849.369 404.863 848.563 406.281 847.307 407.699C846.05 409.117 844.535 410.277 842.763 411.212C840.99 412.146 839.153 412.63 837.252 412.63C834.771 412.63 832.225 412.082 829.55 410.954C826.875 409.826 824.651 408.376 822.879 406.604C821.106 404.831 820.236 403.059 820.236 401.286C820.236 400.867 820.269 400.513 820.365 400.158C820.655 399.03 821.235 398.063 822.105 397.29C822.976 396.517 824.2 395.808 825.812 395.131C827.423 394.454 829.743 393.648 832.805 392.682C832.772 392.585 832.772 392.424 832.772 392.198C832.772 391.264 833.127 390.265 833.868 389.233C834.577 388.234 835.479 387.364 836.607 386.688C834.738 386.623 833.159 386.269 831.87 385.624C830.549 384.979 829.582 384.142 828.905 383.078C828.229 382.047 827.906 380.887 827.906 379.63C827.906 378.985 827.971 378.373 828.132 377.761C828.647 375.666 829.808 373.636 831.58 371.734C833.353 369.833 835.447 368.318 837.8 367.158C840.152 366.03 842.376 365.45 844.503 365.45C846.63 365.45 848.338 366.03 849.659 367.158H857.2ZM845.502 371.863C845.502 370.671 845.244 369.736 844.761 368.995C844.277 368.254 843.536 367.899 842.537 367.899C841.474 367.899 840.41 368.286 839.314 369.06C838.219 369.865 837.252 370.896 836.414 372.153C835.576 373.41 834.996 374.731 834.642 376.117C834.448 376.923 834.352 377.664 834.352 378.373C834.352 379.92 834.835 381.177 835.77 382.176C836.704 383.175 838.09 383.787 839.927 384.013L840.12 383.819C841.312 382.627 842.344 381.209 843.214 379.565C844.084 377.922 844.729 376.214 845.18 374.377C845.405 373.539 845.502 372.701 845.502 371.863ZM833.868 394.39C831.773 395.131 830.194 395.743 829.099 396.227C827.971 396.71 827.197 397.161 826.746 397.516C826.263 397.902 825.973 398.321 825.876 398.772C825.844 398.934 825.812 399.095 825.812 399.191C825.812 400.352 826.714 401.673 828.486 403.155C830.259 404.67 832.418 405.959 834.899 407.022C837.381 408.086 839.54 408.634 841.409 408.634C842.376 408.634 843.182 408.44 843.858 408.054C844.503 407.699 844.922 407.119 845.115 406.346C845.18 406.12 845.212 405.927 845.212 405.701C845.212 405.121 844.954 404.509 844.471 403.864C843.987 403.252 843.085 402.382 841.796 401.254L833.868 394.39ZM907.055 394.1L911.083 395.292L910.632 397H894.003L894.454 395.292L899.546 394.1L898.515 382.691H881.435L875.15 393.681L880.146 395.292L879.694 397H866.417L866.868 395.292L871.992 393.552L895.872 352.108H903.22L907.055 394.1ZM883.497 379.05H898.16L896.162 356.91L883.497 379.05ZM974.892 353.849L969.316 355.267L959.681 393.874L964.515 395.292L964.128 397H946.371L946.822 395.292L952.397 393.842L961.872 356.008H961.292L937.058 397H935.446L931.547 356.072H930.967L921.686 393.197L926.616 395.292L926.229 397H912.243L912.694 395.292L918.688 393.197L928.099 355.589L923.587 353.849L923.974 352.108H938.572L941.602 384.206L960.583 352.108H975.343L974.892 353.849ZM1029.61 353.849L1024.04 355.267L1014.4 393.874L1019.24 395.292L1018.85 397H1001.09L1001.54 395.292L1007.12 393.842L1016.59 356.008H1016.01L991.778 397H990.167L986.268 356.072H985.688L976.406 393.197L981.337 395.292L980.95 397H966.964L967.415 395.292L973.409 393.197L982.819 355.589L978.308 353.849L978.694 352.108H993.293L996.322 384.206L1015.3 352.108H1030.06L1029.61 353.849Z" fill="#B462FA"/>
<path d="M725.039 475.26C722.364 473.681 720.334 471.457 718.948 468.653C717.53 465.85 716.821 462.691 716.821 459.114C716.821 456.858 717.144 454.441 717.756 451.896C718.819 447.609 720.592 443.903 723.009 440.842C725.426 437.78 728.423 435.46 731.936 433.881C735.448 432.302 739.348 431.496 743.634 431.496C745.084 431.496 747.018 431.593 749.37 431.818C751.4 432.012 753.076 432.108 754.43 432.108H755.558L756.299 442.195H754.72L752.528 439.134C751.336 437.49 750.015 436.298 748.532 435.492C747.018 434.687 745.052 434.3 742.57 434.3C738.381 434.3 734.965 435.589 732.322 438.135C729.647 440.681 727.617 444.773 726.199 450.381C725.361 453.732 724.942 456.826 724.942 459.694C724.942 464.045 725.974 467.429 728.068 469.878C730.131 472.327 733.257 473.552 737.414 473.552C740.153 473.552 742.474 473.068 744.311 472.069C746.147 471.07 747.823 469.717 749.273 467.977L750.917 469.298C750.111 470.651 748.951 471.973 747.437 473.229C745.922 474.519 744.053 475.582 741.829 476.388C739.605 477.226 737.188 477.645 734.514 477.645C730.872 477.645 727.714 476.839 725.039 475.26ZM761.358 476.065C759.683 475.034 758.426 473.584 757.556 471.715C756.686 469.878 756.234 467.751 756.234 465.366C756.234 463.658 756.46 461.886 756.911 460.049C757.652 457.116 758.748 454.538 760.263 452.314C761.745 450.123 763.518 448.415 765.548 447.223C767.578 446.03 769.77 445.45 772.122 445.45C774.41 445.45 776.408 445.966 778.084 447.029C779.728 448.093 781.017 449.543 781.887 451.38C782.757 453.217 783.176 455.344 783.176 457.729C783.176 459.404 782.95 461.177 782.499 463.046C781.758 465.979 780.662 468.557 779.18 470.748C777.665 472.972 775.893 474.647 773.862 475.84C771.832 477.032 769.641 477.645 767.32 477.645C765.032 477.645 763.034 477.129 761.358 476.065ZM771.478 472.392C772.734 470.458 773.862 467.396 774.926 463.175C775.925 459.179 776.44 455.988 776.44 453.636C776.44 449.736 775.087 447.803 772.38 447.803C770.672 447.803 769.189 448.77 767.933 450.703C766.676 452.637 765.548 455.698 764.484 459.92C763.485 463.819 763.002 467.01 763.002 469.427C763.002 471.36 763.324 472.811 764.001 473.81C764.646 474.809 765.677 475.292 767.062 475.292C768.771 475.292 770.221 474.325 771.478 472.392ZM844.374 432.108H857.587L857.136 433.849L852.108 435.589L830.13 477H822.46L820.784 451.025L807.12 477H799.515L796.872 434.977L792.844 433.849L793.295 432.108H810.053L809.569 433.849L804.445 434.977L806.572 472.134L820.462 445.74L819.753 434.944L815.725 433.849L816.176 432.108H832.934L832.45 433.849L827.294 435.041L829.485 472.295L848.95 435.428L843.923 433.849L844.374 432.108ZM900.835 434.59C903.639 436.266 905.733 438.489 907.151 441.293C908.569 444.097 909.278 447.223 909.278 450.639C909.278 452.669 909.021 454.764 908.505 456.858C907.538 460.693 905.959 464.142 903.768 467.203C901.576 470.265 898.901 472.649 895.711 474.39C892.521 476.13 889.008 477 885.205 477H860.681L861.132 475.292L866.707 473.842L876.343 435.234L871.509 433.849L871.896 432.108H890.748C894.68 432.108 898.031 432.946 900.835 434.59ZM901.415 448.963C901.415 446.159 900.964 443.71 900.094 441.583C899.224 439.488 897.902 437.845 896.13 436.652C894.357 435.492 892.166 434.912 889.556 434.912H883.916L874.119 474.196H884.947C888.524 474.196 891.65 472.746 894.293 469.878C896.903 467.01 898.934 462.788 900.319 457.245C901.061 454.345 901.415 451.573 901.415 448.963ZM944.728 474.1L948.756 475.292L948.305 477H931.676L932.127 475.292L937.219 474.1L936.188 462.691H919.107L912.823 473.681L917.818 475.292L917.367 477H904.09L904.541 475.292L909.665 473.552L933.545 432.108H940.893L944.728 474.1ZM921.17 459.05H935.833L933.835 436.91L921.17 459.05ZM960.68 475.131C957.908 473.487 955.813 471.231 954.363 468.363C952.913 465.495 952.172 462.337 952.172 458.824C952.172 456.665 952.43 454.506 952.978 452.347C954.009 448.189 955.685 444.548 958.005 441.39C960.325 438.264 963.129 435.814 966.448 434.074C969.768 432.334 973.377 431.464 977.309 431.464C981.079 431.464 984.366 432.302 987.138 433.945C989.877 435.621 992.004 437.877 993.454 440.745C994.904 443.613 995.613 446.771 995.613 450.284C995.613 452.443 995.355 454.603 994.808 456.762C993.776 460.919 992.101 464.593 989.78 467.719C987.46 470.877 984.656 473.326 981.337 475.034C978.018 476.774 974.408 477.645 970.477 477.645C966.706 477.645 963.419 476.807 960.68 475.131ZM980.467 470.232C983.013 467.235 985.075 462.691 986.59 456.536C987.524 452.895 987.976 449.64 987.976 446.804C987.976 442.872 987.073 439.811 985.236 437.651C983.399 435.492 980.596 434.396 976.793 434.396C973.055 434.396 969.896 435.879 967.318 438.876C964.74 441.873 962.678 446.449 961.163 452.572C960.261 456.149 959.81 459.372 959.81 462.305C959.81 466.269 960.712 469.33 962.549 471.489C964.354 473.648 967.157 474.744 970.96 474.744C974.73 474.744 977.889 473.229 980.467 470.232Z" fill="#F5BD24"/>
</g>
<defs>
<clipPath id="clip0_2003_238">
<rect width="1200" height="675" fill="white"/>
</clipPath>
</defs>
</svg>
