<svg width="186" height="34" viewBox="0 0 186 34" fill="none" xmlns="http://www.w3.org/2000/svg">
<path d="M2.48242 27.334C0.988281 27.334 0.109375 26.4199 0.109375 24.8555V4.71094C0.109375 2.56641 1.375 1.2832 3.53711 1.2832C5.38281 1.2832 6.40234 2.05664 7.17578 4.02539L13.4688 19.6172H13.6094L19.8848 4.02539C20.6582 2.07422 21.6953 1.2832 23.5586 1.2832C25.7031 1.2832 26.9688 2.54883 26.9688 4.71094V24.8555C26.9688 26.4199 26.0898 27.334 24.5957 27.334C23.1016 27.334 22.2402 26.4199 22.2402 24.8555V9.87891H22.0996L15.8242 25.2246C15.3672 26.3496 14.6641 26.8418 13.5566 26.8418C12.4316 26.8418 11.6934 26.332 11.2539 25.2422L4.97852 9.87891H4.83789V24.8555C4.83789 26.4199 3.97656 27.334 2.48242 27.334ZM37.7223 5.81836C36.1755 5.81836 34.9802 4.64062 34.9802 3.16406C34.9802 1.66992 36.1755 0.509766 37.7223 0.509766C39.2692 0.509766 40.4645 1.66992 40.4645 3.16406C40.4645 4.64062 39.2692 5.81836 37.7223 5.81836ZM37.7223 27.3691C36.1227 27.3691 35.1559 26.3672 35.1559 24.6973V10.459C35.1559 8.78906 36.1227 7.76953 37.7223 7.76953C39.3044 7.76953 40.2887 8.78906 40.2887 10.459V24.6973C40.2887 26.3672 39.3044 27.3691 37.7223 27.3691ZM50.7259 27.3691C49.2318 27.3691 48.1595 26.4551 48.1595 24.6973V3.9375C48.1595 2.17969 49.2318 1.24805 50.7259 1.24805C52.2377 1.24805 53.2923 2.17969 53.2923 3.9375V24.6973C53.2923 26.4551 52.2377 27.3691 50.7259 27.3691ZM63.7647 27.3691C62.2705 27.3691 61.1983 26.4551 61.1983 24.6973V3.9375C61.1983 2.17969 62.2705 1.24805 63.7647 1.24805C65.2764 1.24805 66.3311 2.17969 66.3311 3.9375V15.627H66.4014L73.2217 8.78906C73.9073 8.06836 74.4873 7.76953 75.2608 7.76953C76.5791 7.76953 77.5459 8.73633 77.5459 10.002C77.5459 10.7754 77.3174 11.25 76.5791 11.9355L71.7803 16.4707L77.0362 23.168C77.5987 23.9238 77.7569 24.3809 77.7569 25.0488C77.7569 26.4199 76.7549 27.3691 75.3135 27.3691C74.2237 27.3691 73.6084 26.9824 72.7998 25.7695L67.9659 19.3711L66.3311 20.8828V24.6973C66.3311 26.4551 65.2764 27.3691 63.7647 27.3691ZM87.3327 27.3691C85.8034 27.3691 84.7663 26.4375 84.7663 24.6973V10.3887C84.7663 8.66602 85.7859 7.76953 87.2448 7.76953C88.7038 7.76953 89.7234 8.66602 89.7234 10.3887V11.5664H89.8288C90.6198 9.29883 92.6413 7.80469 95.2077 7.80469C97.9323 7.80469 99.8308 9.21094 100.464 11.6719H100.569C101.413 9.29883 103.663 7.80469 106.423 7.80469C110.114 7.80469 112.592 10.3359 112.592 14.1328V24.6973C112.592 26.4375 111.538 27.3691 110.009 27.3691C108.497 27.3691 107.46 26.4375 107.46 24.6973V15.416C107.46 13.2363 106.37 12.041 104.384 12.041C102.432 12.041 101.149 13.4648 101.149 15.5566V24.6973C101.149 26.4375 100.2 27.3691 98.6706 27.3691C97.1589 27.3691 96.2097 26.4375 96.2097 24.6973V15.2578C96.2097 13.2363 95.0671 12.041 93.1687 12.041C91.2175 12.041 89.8991 13.5176 89.8991 15.627V24.6973C89.8991 26.4375 88.8445 27.3691 87.3327 27.3691ZM119.76 27.2637C119.338 27.2637 119.057 27 119.057 26.6309C119.057 26.5078 119.092 26.3848 119.162 26.1738L128.373 2.03906C128.549 1.58203 128.813 1.37109 129.235 1.37109C129.657 1.37109 129.903 1.56445 130.079 2.02148L139.307 26.1738C139.36 26.3496 139.395 26.5078 139.395 26.6133C139.395 27 139.114 27.2637 138.692 27.2637C138.34 27.2637 138.129 27.0879 137.989 26.6836L134.912 18.5449H123.539L120.481 26.6836C120.323 27.1055 120.129 27.2637 119.76 27.2637ZM123.996 17.2969H134.473L129.27 3.44531H129.182L123.996 17.2969ZM147.002 33.2754C146.598 33.2754 146.316 32.9941 146.316 32.5371V9.14062C146.316 8.71875 146.58 8.4375 146.949 8.4375C147.336 8.4375 147.6 8.71875 147.6 9.14062V13.623H147.652C148.496 10.6875 151.08 8.4375 154.473 8.4375C159.061 8.4375 162.225 12.2344 162.225 17.8594C162.225 23.4844 159.078 27.2812 154.49 27.2812C151.115 27.2812 148.531 25.0488 147.723 22.2012H147.688V32.5371C147.688 32.9941 147.406 33.2754 147.002 33.2754ZM154.315 26.0508C158.199 26.0508 160.836 22.7461 160.836 17.877C160.836 12.9902 158.199 9.66797 154.315 9.66797C150.395 9.66797 147.67 13.0078 147.67 17.8594C147.67 22.7109 150.395 26.0508 154.315 26.0508ZM170.377 33.2754C169.972 33.2754 169.691 32.9941 169.691 32.5371V9.14062C169.691 8.71875 169.955 8.4375 170.324 8.4375C170.711 8.4375 170.974 8.71875 170.974 9.14062V13.623H171.027C171.871 10.6875 174.455 8.4375 177.847 8.4375C182.435 8.4375 185.599 12.2344 185.599 17.8594C185.599 23.4844 182.453 27.2812 177.865 27.2812C174.49 27.2812 171.906 25.0488 171.097 22.2012H171.062V32.5371C171.062 32.9941 170.781 33.2754 170.377 33.2754ZM177.689 26.0508C181.574 26.0508 184.211 22.7461 184.211 17.877C184.211 12.9902 181.574 9.66797 177.689 9.66797C173.769 9.66797 171.045 13.0078 171.045 17.8594C171.045 22.7109 173.769 26.0508 177.689 26.0508Z" fill="#E2E8F0"/>
</svg>
